<svg xmlns="http://www.w3.org/2000/svg" xmlns:xlink="http://www.w3.org/1999/xlink" viewBox="0 0 689.38 493.36"><defs><style>.cls-1{isolation:isolate;}.cls-2{fill:#f8ecd7;}.cls-3{fill:none;}.cls-4{fill:#e5f2f4;}.cls-5{fill:url(#linear-gradient);}.cls-6{opacity:0.4;}.cls-12,.cls-22,.cls-23,.cls-24,.cls-25,.cls-26,.cls-27,.cls-28,.cls-46,.cls-48,.cls-6,.shadow-133{mix-blend-mode:multiply;}.cls-7{fill:#785d5c;}.cls-8{fill:#0c1927;}.cls-9{fill:#ece1d4;}.cls-10{fill:#fff;}.cls-11{fill:#ecd9b2;}.cls-12,.cls-22,.cls-23,.cls-24,.cls-25,.cls-26,.cls-27,.cls-28{opacity:0.57;}.cls-12{fill:url(#linear-gradient-2);}.cls-13{fill:#294e86;}.cls-14{fill:url(#linear-gradient-3);}.cls-48,.cls-49,.shadow-133{fill:#485f96;}.shadow-133{opacity:0.32;}.cls-15{fill:#cf7e75;}.cls-16,.cls-18{fill:#c66359;}.cls-17{fill:#ce8e62;}.cls-18{opacity:0.82;}.cls-19{fill:#505253;}.cls-20{fill:#665b5f;}.cls-21{fill:url(#linear-gradient-4);}.cls-22{fill:url(#linear-gradient-5);}.cls-23{fill:url(#linear-gradient-6);}.cls-24{fill:url(#linear-gradient-7);}.cls-25{fill:url(#linear-gradient-8);}.cls-26{fill:url(#linear-gradient-9);}.cls-27{fill:url(#linear-gradient-10);}.cls-28{fill:url(#linear-gradient-11);}.cls-29{fill:#6eb6c3;}.cls-30{fill:#762558;}.cls-31{fill:#54898f;}.cls-32{fill:#fdf4de;}.cls-33{fill:#5063a8;}.cls-34{fill:#e37263;}.cls-35{fill:#e05d4a;}.cls-36,.cls-46{fill:#333f68;}.cls-37{fill:#e5cf07;}.cls-38{fill:#ffec00;}.cls-39{fill:#30518b;}.cls-40{fill:#cb4434;}.cls-41{fill:#5b8f95;}.cls-42{fill:#5e9095;}.cls-43{fill:#74aeb8;}.cls-44{fill:#71afaf;}.cls-45{fill:#77bac6;}.cls-46{opacity:0.1;}.cls-47{fill:#c39168;}.cls-48{opacity:0.24;}</style><linearGradient id="linear-gradient" x1="34" y1="467.85" x2="582.4" y2="467.85" gradientUnits="userSpaceOnUse"><stop offset="0" stop-color="#e5a477"/><stop offset="1" stop-color="#c39781"/></linearGradient><linearGradient id="linear-gradient-2" x1="376.1" y1="391.34" x2="408.31" y2="376.97" gradientUnits="userSpaceOnUse"><stop offset="0" stop-color="#485f96"/><stop offset="0.88" stop-color="#fff"/></linearGradient><linearGradient id="linear-gradient-3" x1="325.69" y1="248.45" x2="324.75" y2="282.02" gradientUnits="userSpaceOnUse"><stop offset="0" stop-color="#c75c36"/><stop offset="0.88" stop-color="#ce8e62"/></linearGradient><linearGradient id="linear-gradient-4" x1="141.73" y1="624.11" x2="143.2" y2="613.3" gradientTransform="matrix(0.99, -0.15, 0.15, 0.99, 91.46, -360.19)" gradientUnits="userSpaceOnUse"><stop offset="0" stop-color="#c66359"/><stop offset="1" stop-color="#ce8e62"/></linearGradient><linearGradient id="linear-gradient-5" x1="-3217.75" y1="440.45" x2="-3213.63" y2="435.35" gradientTransform="matrix(-1, 0, 0, 1, -2871.79, 0)" gradientUnits="userSpaceOnUse"><stop offset="0" stop-color="#c66359"/><stop offset="0.88" stop-color="#fff"/></linearGradient><linearGradient id="linear-gradient-6" x1="-3223.1" y1="440.74" x2="-3218.99" y2="435.64" xlink:href="#linear-gradient-5"/><linearGradient id="linear-gradient-7" x1="-3227.9" y1="440.99" x2="-3224.22" y2="436.43" xlink:href="#linear-gradient-5"/><linearGradient id="linear-gradient-8" x1="-1609.13" y1="440.24" x2="-1604.43" y2="434.4" gradientTransform="translate(1894.69)" xlink:href="#linear-gradient-5"/><linearGradient id="linear-gradient-9" x1="-1614.49" y1="440.53" x2="-1609.78" y2="434.69" gradientTransform="translate(1894.69)" xlink:href="#linear-gradient-5"/><linearGradient id="linear-gradient-10" x1="-1619.24" y1="440.8" x2="-1615.04" y2="435.58" gradientTransform="translate(1894.69)" xlink:href="#linear-gradient-5"/><linearGradient id="linear-gradient-11" x1="8187.02" y1="207.48" x2="8219.32" y2="193.07" gradientTransform="matrix(-1, 0.05, 0.05, 1, 8427.88, -222.68)" xlink:href="#linear-gradient-2"/></defs><title>404</title><g class="cls-1"><g id="Layer1"><g id="Calque_5" data-name="Calque 5"><path class="cls-2" d="M302.94,492.81a7.35,7.35,0,0,0-.17-2.7c-5.25.09-29.71.47-35.49-.17-6.21-.68-12.62-3.72-19.39-5.42-.65,3.3-1.44,7.64-.36,8.29C248.92,493.65,302.94,492.81,302.94,492.81Z"/></g><path class="cls-3" d="M12,467.5c-3.8,8.2-6.5,16.65-7.11,25.86h7.4A54.06,54.06,0,0,1,12,467.5Z"/><path class="cls-3" d="M651.09,250.5c22.67,42.71,29.79,101.27.25,142.56a112,112,0,0,1-7.8,9.64A111.49,111.49,0,0,0,656.38,391c12-12.86,21-31.84,25.31-53.43,7.11-35.28.51-72.08-17.65-98.43-14.55-21.11-33.83-32.4-55.41-40.06,2.09,1.53,4.16,3.1,6.16,4.78C629.79,216.4,641.67,232.75,651.09,250.5Z"/><path class="cls-3" d="M216.67,84.63c20.07-27.81,48.65-49,80-57.55s65.15-3.8,91.15,14.2c25.74,17.81,42.35,46.72,62.9,71a116,116,0,0,1-5-12.39c-9.54-28-26.86-52.94-48.78-70.12C373.32,11.33,346.24,2.91,318.56,5.42c-33.11,3-66.09,20.33-90.47,47.52-13.86,15.47-22.93,34.72-31.7,53.34-8.31,17.65-16.91,35.9-29.69,51.47q-3.15,3.83-6.58,7.38c.88-.72,1.75-1.46,2.61-2.23C186.08,142,198.07,110.41,216.67,84.63Z"/><path class="cls-3" d="M58.94,216.2a126.59,126.59,0,0,0-12.49,8.58C23.16,243,9.13,269.72,9.83,294.57c.5,17.73,9.29,32.49,17.79,46.76,3,5.08,6.07,10.21,8.78,15.52-5.55-25.1-18.34-48.69-16.09-74.84C22.6,255.57,39.34,232.89,58.94,216.2Z"/><path class="cls-4" d="M12,467.5a54.06,54.06,0,0,0,.29,25.86H579.16a108.3,108.3,0,0,1,19.56-45.18c.64-.85,1.3-1.7,2-2.53,6.59-8.25,14.23-15.43,22-22.53l1.79-1.17c12.3-8,25-16.26,35.48-27.51,12.6-13.54,22-33.4,26.58-55.91,7.37-36.6.49-74.83-18.42-102.26-19.19-27.83-46.83-39.47-75.73-47.41-38.73-21-86-27.21-120.66-55.47-1.85-1.51-3.65-3.08-5.41-4.69a112.89,112.89,0,0,1-16-30.49c-9.84-28.93-27.73-54.64-50.37-72.39C375.38,6.6,347.13-2.17,318.21.45c-34.33,3.12-68.49,21-93.7,49.17-14.36,16-23.59,35.61-32.52,54.56-8.18,17.37-16.64,35.33-29,50.41A116.9,116.9,0,0,1,134,180c-13.19,5.3-27.06,8.88-40.2,14.26-3,1.24-6,2.67-9,4.24C68.4,204.57,55,211.88,43.52,220.85,18.61,240.31,4.19,268,5,294.8c.53,19,9.66,34.35,18.48,49.17,6.36,10.69,12.46,21,15.42,32.32.26,17.62-6,34.34-12.07,50.69-1.81,4.89-3.87,9.75-5.9,14.63l-.26.43C11.07,457.81,1.21,474.12,0,493.36H4.9C5.51,484.15,8.21,475.7,12,467.5ZM664,239.18c18.16,26.35,24.76,63.15,17.65,98.43-4.35,21.59-13.34,40.57-25.31,53.43a111.49,111.49,0,0,1-12.84,11.66,112,112,0,0,0,7.8-9.64c29.54-41.29,22.42-99.85-.25-142.56-9.42-17.75-21.3-34.1-36.3-46.6-2-1.68-4.07-3.25-6.16-4.78C630.21,206.78,649.49,218.07,664,239.18ZM166.7,157.75c12.78-15.57,21.38-33.82,29.69-51.47,8.77-18.62,17.84-37.87,31.7-53.34,24.38-27.19,57.36-44.52,90.47-47.52,27.68-2.51,54.76,5.91,78.31,24.37C418.79,47,436.11,71.87,445.65,99.91a116,116,0,0,0,5,12.39c-20.55-24.3-37.16-53.21-62.9-71-26-18-59.83-22.7-91.15-14.2s-59.9,29.74-80,57.55c-18.6,25.78-30.59,57.37-53.94,78.27-.86.77-1.73,1.51-2.61,2.23Q163.54,161.57,166.7,157.75ZM36.4,356.85c-2.71-5.31-5.76-10.44-8.78-15.52-8.5-14.27-17.29-29-17.79-46.76-.7-24.85,13.33-51.59,36.62-69.79a126.59,126.59,0,0,1,12.49-8.58C39.34,232.89,22.6,255.57,20.31,282,18.06,308.16,30.85,331.75,36.4,356.85Z"/></g><g id="Calque_9" data-name="Calque 9"><rect class="cls-5" x="34" y="442.58" width="548.41" height="50.56" rx="12.2"/><g class="cls-6"><path class="cls-7" d="M570.59,463.49l-37.6,0h-.87l-26.7,0h-1c-7.84,0-79.78.1-81.84.15-4.23.09,17.6.14,51.2.15,30.15,0,69.78,0,108.62,0v-.32Z"/><path class="cls-7" d="M153.52,465.3l205.71-.16-.73,0c-.48,0-.6,0,.41,0,.5,0,.9,0,.85,0l12.91,0,.22,0,.2,0,8.74,0c2.4.13,4.93.12,6.21.07,3.3,0,2.2-.06,1.15-.05h-.5c1.53-.17-4.74-.51-34.54-.1l-26.3,0c.49,0,.2,0-.57-.05a2,2,0,0,1-.34.05h-4.41l.67,0a2.68,2.68,0,0,0-.71,0h-1.1c.2,0,.05,0-.53,0h-.58c-22.77.35-54.2,0-85.32-.07h-.77l-111.53-.09C55.69,464.68,88.76,465.6,153.52,465.3Z"/><path class="cls-7" d="M143.67,463.51h1.57C145.4,463.51,144.21,463.48,143.67,463.51Z"/><path class="cls-7" d="M150.9,463.47c-4.51,0-5.05.09-.59,0A5.69,5.69,0,0,0,150.9,463.47Z"/><path class="cls-7" d="M153.52,463.84c64.19,0,231.67-.17,235.27-.17l.43,0,.34,0h-.3c9.7,0,15.3,0,15.15-.05,4.42-.06-9.29.25-33-.11h-.88c-2.71,0-145.56,0-157.83,0h-.87l-26.7,0h-1c-7.85,0-79.79.1-81.85.15C98.09,463.78,119.91,463.83,153.52,463.84Z"/><path class="cls-7" d="M117.07,463.54h.52A2.16,2.16,0,0,0,117.07,463.54Z"/><path class="cls-7" d="M140.39,461.15h-.3C137,461.16,137.4,461.16,140.39,461.15Z"/><path class="cls-7" d="M152.62,461h.52A2.16,2.16,0,0,0,152.62,461Z"/><path class="cls-7" d="M56.57,451.38c2,.2,9.63.57,9.88.16.08-.12-.27,0,4.47.32-5.47.2-4.75.17-4.35.28,4.21-.07,3.42-.1,3.86.11,6.85.13,5.68.17,5.8-.07,14.35.95,55.39-.45,55.42-.45,0,.33,4.17.84,12.92-.09a63.58,63.58,0,0,0,9,0c1.08,0,2.44,0,4.29,0-.51.72,5.43.42,6.63.37-.66.09-.06.27,1.32.28,3.75,0,7-.15,10.27-.28,22.38,1.16,30.85.8,33.89.54a11.24,11.24,0,0,0,1.37.08l-.07.09c-.17.27,5.62,0,7.72-.15,3.21.43,4-.05,6.45,0,0,.6,6,.34,6,.34.34-.1-.13-.13,2.34.24,17.07-.32,5.64,0,15.5-.67a3.57,3.57,0,0,0,2.18.21c.52-.36-.23-.06,1.73-.07a2.37,2.37,0,0,1,1.14.15,12.16,12.16,0,0,0,3.65-.22,25.43,25.43,0,0,0,4.39-.1h.79a23.74,23.74,0,0,0,3.13,0h.26a9.7,9.7,0,0,0,2.75,0h.08c26.75-.26,62.69-1.51,66.31-1.38,36.74,1.26,14.08-.09,41.19.34,2,.2,9.62.57,9.88.16.07-.12-.27,0,4.47.32-5.47.2-4.76.17-4.35.28,4.21-.07,3.41-.1,3.85.11,6.85.13,5.68.17,5.8-.07,14.36.95,55.4-.45,55.43-.45,0,.33,4.16.84,12.92-.09a63.44,63.44,0,0,0,8.94,0c1.08,0,2.44,0,4.3,0-.52.72,5.42.42,6.62.37-.65.09-.06.27,1.32.28,3.75,0,7-.15,10.28-.28,22.38,1.16,30.85.8,33.88.54a11.39,11.39,0,0,0,1.37.08l-.06.09c-.17.27,5.61,0,7.72-.15,3.21.43,4-.05,6.45,0,0,.6,6,.34,6,.34.34-.1-.12-.13,2.34.24,17.07-.32,5.65,0,15.5-.67a3.6,3.6,0,0,0,2.19.21c.51-.36-.24-.06,1.73-.07a2.32,2.32,0,0,1,1.13.15,12.22,12.22,0,0,0,3.66-.22,25.38,25.38,0,0,0,4.19-.08,7.77,7.77,0,0,0-.14-1c0-.14,0-.28-.07-.42l-1.13.13c-.22,0-2.13,0-2.19,0,1-.1,2.18-.18,3.31-.26a7.09,7.09,0,0,0-.39-1.18c-3.17.09-6.07.18-8,.06s-5-.35-2.71-.1c-1.72.31-1.09.31-2.63,0-4.62.55-8.42.49-2.91.43-4.28.34-4,.25-1.18.35,1.87-.28,1.19-.35,2.4.25l-2,.15-.53-.14c-3.68.1-3.08.09-4,.15l-.68,0c1.85-.41-4.65-.26-4.9-.15,0-.22-2.18-.18-4.58-.07-1.16,0-2.51,0-4,.1a28.09,28.09,0,0,0-6,0c-.22-.54-5.5-.08-6.2,0-2.06-.36-14.4.13-17.3.14l-1.15-.05a1.27,1.27,0,0,0,.7-.15c-9.34-.16-8.58-.31-13.86-.23-7.32-1.15-11.22-.15-12.93-.6-.95-.25-9.07-.29-15.48-.23-4.33,0-7.89.13-7.89.24a55.56,55.56,0,0,1-7.8-.2,75.4,75.4,0,0,1-10.89,0c.11.2,1.13.5-3.09.28-1.27-.06-3.56-.16-3.93-.12a5.73,5.73,0,0,1-2.46-.08c-11.89.35-11.34-.49-11.34.09-1.94.07-4.06-.38-5.47,0-33-1.1-34,.48-52.49-.4a3.61,3.61,0,0,0-1.87-.05c-7.11-.08-5.14-.66-8.27-.42-7.35.58-12.84-.59-30.3.36-16.69-.23-47.48.72-52.91.71-6.37-.81-16.78.17-21.57-.13-2-.12-5-.35-2.72-.1a3.71,3.71,0,0,1-2.63,0c-4.62.55-8.42.49-2.91.43-4.28.34-4,.25-1.17.35,1.87-.28,1.19-.35,2.4.25l-2,.15-.54-.14c-3.67.1-3.07.09-4,.15l-.69,0c1.86-.41-4.65-.26-4.9-.15,0-.22-2.17-.18-4.58-.07-1.15,0-2.5,0-4,.1a28,28,0,0,0-6,0c-.23-.54-5.5-.08-6.21,0-2.06-.36-14.4.13-17.3.14l-1.14-.05a1.33,1.33,0,0,0,.7-.15c-9.35-.16-8.59-.31-13.87-.23-7.31-1.15-11.21-.15-12.92-.6-1-.25-9.08-.29-15.48-.23-4.34,0-7.9.13-7.89.24a55.71,55.71,0,0,1-7.81-.2,75.26,75.26,0,0,1-10.88,0c.1.2,1.13.5-3.1.28-1.27-.06-3.56-.16-3.92-.12a5.8,5.8,0,0,1-2.47-.08c-11.89.35-11.34-.49-11.34.09-1.93.07-4-.38-5.47,0-32.95-1.1-34,.48-52.49-.4a3.6,3.6,0,0,0-1.87-.05c-7.1-.08-5.14-.66-8.26-.42-1.05.09-2.06.13-3.07.15a7.13,7.13,0,0,0-.81,2.46C43.56,451.71,36.68,451.07,56.57,451.38Z"/><path class="cls-7" d="M85.44,447c-.83,0-.7,0-.27,0Z"/><path class="cls-7" d="M142.59,446.9l47,0h.33l7.23,0h-.24l7.16,0h3a6.62,6.62,0,0,0,.68,0c19.75,0,27.82-.08,15.59-.13-23.72-.1-152.14-.22-186.24-.15-.16.15-.36.27-.51.41Z"/><path class="cls-7" d="M81.07,447h0Z"/><path class="cls-7" d="M86.32,447l1.46,0C85.94,447,86.23,447,86.32,447Z"/><path class="cls-7" d="M133.65,447c-.68,0-.53,0-.42,0Z"/><path class="cls-7" d="M107.08,475.69h0Z"/><path class="cls-7" d="M153.52,470.37c49.4,0,88.89-.07,59.6-.41-1.18-.06-27.76-.1-59.6-.12-48.52,0-109.24.05-110.86.27-4.38.62-5.84,1.22-8.66,1.45v.34c6.34-.46,3.49-1.51,15.45-1.55C72.62,470.34,115.94,470.37,153.52,470.37Z"/><path class="cls-7" d="M37.59,465.3c.75,0,1.5,0,2.24-.08C39.58,465.19,41.32,465.1,37.59,465.3Z"/><path class="cls-7" d="M38.23,465.16c-.48,0-.6,0,.41,0,.51,0,.91,0,.85,0l12.92,0,.21,0,.2,0,8.74,0c2.4.13,4.93.12,6.22.07,3.29,0,2.2-.06,1.14-.05h-.49C70,465,63.7,464.62,34,465v.11c.64,0,1.88,0,3.62-.05l-1,0-1.49,0H39Z"/><path class="cls-7" d="M34,465.14h0Z"/><path class="cls-7" d="M36.76,465.26l.59,0A4.93,4.93,0,0,0,36.76,465.26Z"/><path class="cls-7" d="M35.62,465.18c-2.35,0-1.16,0-1.62,0C35,465.21,35.09,465.2,35.62,465.18Z"/><path class="cls-7" d="M66.84,464.86c-1.18,0,2.15,0,4,0C73.16,464.92,73.29,464.77,66.84,464.86Z"/><path class="cls-7" d="M75.1,465.05c.13-.12-8-.07-5.74,0C72.75,465.07,77.72,465.1,75.1,465.05Z"/><path class="cls-7" d="M82.41,465c-3-.09-9.92,0-6.8,0C75.65,465,84.78,465,82.41,465Z"/><path class="cls-7" d="M80.16,465.07c-2,0,.58,0,2.63.06C86.81,465.16,87.81,465,80.16,465.07Z"/><path class="cls-7" d="M56.16,463.69l12.37,0,.42,0,.34,0H69c9.7,0,15.29,0,15.14-.05,4.42-.06-9.29.25-33-.11H34v.23Z"/><path class="cls-7" d="M52.94,463.5c.68,0,.8,0,1,0C49.32,463.41,48.06,463.51,52.94,463.5Z"/><path class="cls-7" d="M83.17,463.43c-1.18,0,2.15,0,4,0C89.49,463.49,89.62,463.34,83.17,463.43Z"/><path class="cls-7" d="M85.69,463.59c3.37.05,8.41.09,5.74,0C91.56,463.5,83.44,463.55,85.69,463.59Z"/><path class="cls-7" d="M91.94,463.53s9.17.06,6.8,0C95.75,463.43,88.83,463.53,91.94,463.53Z"/><path class="cls-7" d="M96.49,463.64c-2,0,.59.05,2.63.06C103.14,463.73,104.14,463.6,96.49,463.64Z"/><path class="cls-7" d="M85.25,463.69c-1.71,0-3.07.05-1.62.05C87.58,463.74,86.36,463.68,85.25,463.69Z"/><path class="cls-7" d="M117.89,461h0Z"/><path class="cls-7" d="M88.62,461.09l7.64,0h3.25l-.74,0c.58,0,.34,0,.94,0l18.18-.05-30.35-.09c-1.77,0-2.51,0-1.91,0L34,460.8v.29c1.22,0,.19,0,.3.06H34v.11l54.75-.18Z"/><path class="cls-7" d="M89.45,461.15q1.13,0,2.25,0C91.45,461.11,93.19,461.07,89.45,461.15Z"/><path class="cls-7" d="M104.5,461.17l.33,0C103.3,461.08,104.47,461.16,104.5,461.17Z"/><path class="cls-7" d="M118.72,460.89c-1.19,0,2.15,0,4,0C125,461,125.17,460.8,118.72,460.89Z"/><path class="cls-7" d="M121.23,461.05c3.39.06,8.36.09,5.75,0C127.11,461,119,461,121.23,461.05Z"/><path class="cls-7" d="M127.49,461s9.17.07,6.8,0C131.3,460.9,124.37,461,127.49,461Z"/><path class="cls-7" d="M134.67,461.16c4,0,5-.1-2.64-.06C130,461.11,132.62,461.15,134.67,461.16Z"/><path class="cls-7" d="M119.18,461.2c3.94,0,2.73-.06,1.62-.05C119.07,461.17,117.73,461.2,119.18,461.2Z"/><path class="cls-7" d="M34,455v0C34.75,455,35.16,455,34,455Z"/><path class="cls-7" d="M149.66,489.39l.34,0C148.46,489.3,149.63,489.39,149.66,489.39Z"/><path class="cls-7" d="M70.13,489.48h0Z"/><path class="cls-7" d="M107.08,488.05h0Z"/><path class="cls-7" d="M136.63,479.5h0Z"/><path class="cls-7" d="M141,479.55h0Z"/><path class="cls-7" d="M141.88,479.54l1.45,0C141.5,479.52,141.78,479.51,141.88,479.54Z"/><path class="cls-7" d="M437.86,463.54a2.16,2.16,0,0,0-.52,0Z"/><path class="cls-7" d="M471.16,463.47c-4.51,0-5,.09-.59,0A5.44,5.44,0,0,0,471.16,463.47Z"/><path class="cls-7" d="M463.94,463.51h1.57C465.66,463.51,464.47,463.48,463.94,463.51Z"/><path class="cls-7" d="M460.66,461.15c1.2,0,118.6.15,121.74.18v-.52C561.43,460.81,463.27,461.14,460.66,461.15Z"/><path class="cls-7" d="M473.41,461a2.16,2.16,0,0,0-.52,0Z"/><path class="cls-7" d="M460.66,461.15h-.31C457.24,461.16,457.67,461.16,460.66,461.15Z"/><path class="cls-7" d="M294.11,446.75l.58-.05C290.2,446.74,289.64,446.79,294.11,446.75Z"/><path class="cls-7" d="M406.59,447l1.45,0C406.21,447,406.49,447,406.59,447Z"/><path class="cls-7" d="M256,447l253.88-.14h.33l7.24,0h-.25l7.17,0h3a6.48,6.48,0,0,0,.67,0c19.75,0,27.82-.08,15.59-.13-23.72-.1-47.12-.16-69.78-.19C325.82,446.27,210.37,447.26,256,447Z"/><path class="cls-7" d="M287.47,446.73H289C289.2,446.74,288,446.71,287.47,446.73Z"/><path class="cls-7" d="M401.34,447h0Z"/><path class="cls-7" d="M405.71,447c-.84,0-.7,0-.27,0Z"/><path class="cls-7" d="M260.87,446.76h0Z"/><path class="cls-7" d="M453.92,447c-.68,0-.53,0-.42,0Z"/><path class="cls-7" d="M427.34,475.69h0Z"/><path class="cls-7" d="M255.81,470c-.07,0-.08,0-.52,0Z"/><path class="cls-7" d="M343.07,465.24c-1.09,0,1.54.06,4.49,0C346.44,465.25,346.66,465.18,343.07,465.24Z"/><path class="cls-7" d="M350,465.37c1.23,0,2.41-.05,3.52-.09C352.12,465.3,348.49,465.37,350,465.37Z"/><path class="cls-7" d="M293.8,465.29c-.68,0-.53,0-.42,0Z"/><path class="cls-7" d="M355.88,465.18c-2.49,0-1,0-1.71,0A17.09,17.09,0,0,0,355.88,465.18Z"/><path class="cls-7" d="M228.75,464.92c1.24,0,1.32,0,.89,0C228.25,464.9,227.54,464.92,228.75,464.92Z"/><path class="cls-7" d="M357,465.26l.59,0A5,5,0,0,0,357,465.26Z"/><path class="cls-7" d="M357.86,465.3c.74,0,1.5,0,2.24-.08C359.85,465.19,361.58,465.1,357.86,465.3Z"/><path class="cls-7" d="M387.11,464.86c-1.19,0,2.15,0,4,0C393.43,464.92,393.56,464.77,387.11,464.86Z"/><path class="cls-7" d="M395.36,465.05c.14-.12-8-.07-5.74,0C393,465.07,398,465.1,395.36,465.05Z"/><path class="cls-7" d="M402.68,465c-3-.09-9.92,0-6.81,0C395.91,465,405,465,402.68,465Z"/><path class="cls-7" d="M400.42,465.07c-2.05,0,.59,0,2.63.06C407.07,465.16,408.08,465,400.42,465.07Z"/><path class="cls-7" d="M310.12,463.79c-.68,0-.53,0-.42,0Z"/><path class="cls-7" d="M246,463.46c-1.39,0-2.1,0-.88,0S246.4,463.48,246,463.46Z"/><path class="cls-7" d="M374.22,463.48c-4.63-.07-5.89,0-1,0C373.88,463.5,374,463.48,374.22,463.48Z"/><path class="cls-7" d="M403.44,463.43c-1.19,0,2.15,0,4,0C409.76,463.49,409.89,463.34,403.44,463.43Z"/><path class="cls-7" d="M411.7,463.62c.13-.12-8-.07-5.75,0C409.33,463.64,414.36,463.68,411.7,463.62Z"/><path class="cls-7" d="M419,463.52c-3-.09-9.92,0-6.8,0C412.24,463.53,421.38,463.59,419,463.52Z"/><path class="cls-7" d="M416.75,463.64c-2,0,.59.05,2.64.06C423.4,463.73,424.41,463.6,416.75,463.64Z"/><path class="cls-7" d="M405.52,463.69c-1.71,0-3.07.05-1.62.05C407.84,463.74,406.63,463.68,405.52,463.69Z"/><path class="cls-7" d="M438.16,461h0Z"/><path class="cls-7" d="M424.76,461.17l.34,0C423.56,461.08,424.73,461.16,424.76,461.17Z"/><path class="cls-7" d="M409.72,461.15c.74,0,1.5,0,2.24,0C411.71,461.11,413.45,461.07,409.72,461.15Z"/><path class="cls-7" d="M407.8,460.91c-1.76,0-2.5,0-1.9,0-38.31-.1-96.08-.21-99.2-.05-10.57.57-26.41.83-37,0-1.86-.13-81.69.15-116.15.27l-13.13,0c1.2,0,93.58.37,110.67.19,29.21-.31,27.22,1.61,53.12.08L409,461.08h-.13l7.64,0h3.25l-.74,0c.57,0,.34,0,.94,0l18.18-.05Z"/><path class="cls-7" d="M179.23,461h1.56C181,461,179.76,461,179.23,461Z"/><path class="cls-7" d="M185.86,461a5.44,5.44,0,0,0,.59-.05C182,461,181.38,461,185.86,461Z"/><path class="cls-7" d="M439,460.89c-1.18,0,2.15,0,4,0C445.3,461,445.43,460.8,439,460.89Z"/><path class="cls-7" d="M447.24,461.09c.13-.13-8-.08-5.74,0C444.88,461.11,449.86,461.14,447.24,461.09Z"/><path class="cls-7" d="M454.56,461c-3-.09-9.92,0-6.81,0C447.79,461,456.92,461.06,454.56,461Z"/><path class="cls-7" d="M452.3,461.1c-2.05,0,.59,0,2.63.06C459,461.19,460,461.06,452.3,461.1Z"/><path class="cls-7" d="M441.06,461.15c-1.72,0-3.06.05-1.62.05C443.39,461.2,442.17,461.14,441.06,461.15Z"/><path class="cls-7" d="M290.07,458.73c-3.14,0-.92.11-.24.06C290.91,458.72,291.12,458.74,290.07,458.73Z"/><path class="cls-7" d="M307.23,458.29l.44,0C306.57,458.27,306.05,458.28,307.23,458.29Z"/><path class="cls-7" d="M340.76,458.22c-1.4,0-2.1,0-.89,0S341.19,458.25,340.76,458.22Z"/><path class="cls-7" d="M348,458.32c-1.28,0-.42,0-2.92-.06A23.22,23.22,0,0,0,348,458.32Z"/><path class="cls-7" d="M274.47,455.21h-.19C271.58,455.21,271.84,455.21,274.47,455.21Z"/><path class="cls-7" d="M286.82,455.05h.51A2,2,0,0,0,286.82,455.05Z"/><path class="cls-7" d="M313.41,455H315C315.14,455,314,455,313.41,455Z"/><path class="cls-7" d="M320.64,455c-4.53,0-5,.09-.59,0A5.69,5.69,0,0,0,320.64,455Z"/><path class="cls-7" d="M231,489.21l.59,0C227.12,489.2,226.53,489.25,231,489.21Z"/><path class="cls-7" d="M185.41,489.39l-.17,0C182.54,489.38,182.79,489.39,185.41,489.39Z"/><path class="cls-7" d="M225.94,489.2c.16,0-1,0-1.57,0Z"/><path class="cls-7" d="M198.29,489.22a5,5,0,0,0-.52,0Z"/><path class="cls-7" d="M390.4,489.48h0Z"/><path class="cls-7" d="M469.93,489.39l.33,0C468.72,489.3,469.89,489.39,469.93,489.39Z"/><path class="cls-7" d="M473.78,488l19.31,0-1.69,0h2.25c-.09,0,.06,0,.14,0,25.06-.06,36.7-.13,23.2-.18,3.37-.13-14.63-.17-43.21-.17-45,0-116.36.14-172,.25,1,0,1.36,0-1.87,0h.37l-22.67.05,1.58,0c-.36,0-5.15,0-5,0-26.44.06-46.07.1-52.28.1C227.74,488.21,390.09,488.11,473.78,488Z"/><path class="cls-7" d="M260.89,487.76h1.57C262.62,487.77,261.43,487.74,260.89,487.76Z"/><path class="cls-7" d="M234.3,487.8h.51A4.79,4.79,0,0,0,234.3,487.8Z"/><path class="cls-7" d="M268.12,487.73c-4.52,0-5,.09-.59,0Z"/><path class="cls-7" d="M221.94,488l-.18,0C219.05,488,219.31,488,221.94,488Z"/><path class="cls-7" d="M427.34,488.05h0Z"/><path class="cls-7" d="M268.38,493.13h13.9C277.6,493,273,493,268.38,493.13Z"/><path class="cls-7" d="M316.94,479.31a2,2,0,0,0-.51,0Z"/><path class="cls-7" d="M344.59,479.29c.16,0-1,0-1.57,0Z"/><path class="cls-7" d="M456.4,479.5h0Z"/><path class="cls-7" d="M461,479.55h0Z"/><path class="cls-7" d="M349.66,479.29a5.69,5.69,0,0,0,.59-.05C345.74,479.28,345.21,479.33,349.66,479.29Z"/><path class="cls-7" d="M462.15,479.54l1.45,0C461.76,479.52,462.05,479.51,462.15,479.54Z"/><path class="cls-7" d="M347.58,470.15c4.39.9,6.12-2.15,2.41-3.64-1.82-.73-4.35.59-3.75,1.91C345.92,469.14,346.48,469.92,347.58,470.15Z"/><path class="cls-7" d="M212.76,446.93l.33,0C211.56,446.84,212.72,446.93,212.76,446.93Z"/><path class="cls-7" d="M197.71,446.91H200C199.71,446.87,201.45,446.84,197.71,446.91Z"/><path class="cls-7" d="M227,446.65c-1.18,0,2.15,0,4,0C233.29,446.71,233.42,446.56,227,446.65Z"/><path class="cls-7" d="M235.23,446.85c.13-.13-8-.08-5.74,0C232.89,446.87,237.85,446.9,235.23,446.85Z"/><path class="cls-7" d="M242.54,446.75c-3-.09-9.91,0-6.8,0C235.78,446.76,244.91,446.82,242.54,446.75Z"/><path class="cls-7" d="M240.29,446.87c-2,0,.59,0,2.63.06C246.94,447,247.94,446.83,240.29,446.87Z"/><path class="cls-7" d="M229.05,446.92c-1.54,0-3.14.05-1.62,0C231.38,447,230.16,446.9,229.05,446.92Z"/><path class="cls-7" d="M171.14,475.59h2.24C173.13,475.55,174.87,475.51,171.14,475.59Z"/><path class="cls-7" d="M186.18,475.61l.34,0C185,475.52,186.15,475.6,186.18,475.61Z"/><path class="cls-7" d="M163.28,475.53h7l7.14,0h3.73c16.77,0,25.37-.07,18.59-.08l-28.78,0c-3.87-.06-5.25-.06-2.42,0L34,475.21v.54Z"/><path class="cls-7" d="M200.4,475.33c-1.19,0,2.15,0,4,0C206.72,475.39,206.85,475.24,200.4,475.33Z"/><path class="cls-7" d="M208.65,475.52c.14-.12-8-.07-5.74,0C206.58,475.55,211.21,475.57,208.65,475.52Z"/><path class="cls-7" d="M216,475.42c-3-.09-9.92,0-6.8,0C209.2,475.43,218.33,475.49,216,475.42Z"/><path class="cls-7" d="M213.71,475.54c-2,0,.59,0,2.64.06C220.36,475.63,221.37,475.5,213.71,475.54Z"/><path class="cls-7" d="M202.48,475.59c-1.73,0-3.06.05-1.62.05C204.8,475.64,203.59,475.58,202.48,475.59Z"/><path class="cls-7" d="M221.34,469.93c-1.19,0,2.15,0,4,0C227.67,470,227.79,469.84,221.34,469.93Z"/><path class="cls-7" d="M223.85,470.09c3.41.06,8.38.09,5.75,0C229.74,470,221.61,470.05,223.85,470.09Z"/><path class="cls-7" d="M236.93,470c-3-.09-9.93,0-6.81,0C230.15,470,239.3,470.1,236.93,470Z"/><path class="cls-7" d="M234.67,470.15c-2,0,.59,0,2.64.06C241.33,470.24,242.34,470.11,234.67,470.15Z"/><path class="cls-7" d="M221.8,470.25c3.95,0,2.73-.07,1.62-.05C221.7,470.21,220.34,470.25,221.8,470.25Z"/><path class="cls-7" d="M163.56,458.45l.2,0,.18,0h8.76a63.51,63.51,0,0,0,7.09.06c2.23,0,1.22-.06.27,0h-.43c-1.11-.12-7.79-.32-26.11-.38-11.92,0-85.18.26-104.08.29.94,0,1.34,0,.4,0-1.2,0-1.62,0-1.81,0H34v.29C77.41,458.61,160.76,458.46,163.56,458.45Z"/><path class="cls-7" d="M178,458.19c-1.19,0,2.15,0,4,0C184.3,458.25,184.43,458.1,178,458.19Z"/><path class="cls-7" d="M186.23,458.39c.14-.13-8-.08-5.74,0C183.9,458.41,188.85,458.44,186.23,458.39Z"/><path class="cls-7" d="M186.74,458.3s9.17.06,6.81,0C190.56,458.2,183.63,458.29,186.74,458.3Z"/><path class="cls-7" d="M193.93,458.47c4,0,5-.1-2.64-.06C189.24,458.42,191.88,458.45,193.93,458.47Z"/><path class="cls-7" d="M238.7,455.22l.34,0C237.5,455.13,238.67,455.21,238.7,455.22Z"/><path class="cls-7" d="M159.6,455.3h0Z"/><path class="cls-7" d="M225.35,455.17l-1.69,0h2.25c-.09,0,.06,0,.14,0,25.06-.06,36.7-.12,23.19-.18,5-.19-39.62-.19-95.72-.11-38.56,0-82.52.12-119.52.2v.3C70.67,455.37,207,455.21,225.35,455.17Z"/><path class="cls-7" d="M252.92,454.94c-1.18,0,2.15,0,4,0C259.24,455,259.37,454.85,252.92,454.94Z"/><path class="cls-7" d="M255.44,455.1c3.37.06,8.41.09,5.74,0C261.31,455,253.19,455.06,255.44,455.1Z"/><path class="cls-7" d="M261.69,455s9.16.07,6.8,0C265.5,455,258.57,455,261.69,455Z"/><path class="cls-7" d="M268.87,455.21c4,0,5-.1-2.64-.06C264.19,455.16,266.82,455.2,268.87,455.21Z"/><path class="cls-7" d="M253.38,455.25c3.94,0,2.73-.06,1.62-.05C253.29,455.22,251.93,455.25,253.38,455.25Z"/><path class="cls-7" d="M160.2,489.15c1.39,0-1.15-.09-6.68-.11-17.41-.08-64.88,0-116.57,0l.52.41c38.3,0,74.63-.09,98.82-.15l-1.67,0h2.24c-.08,0,.06,0,.14,0l16.52,0C166.38,489.24,170.22,489.2,160.2,489.15Z"/><path class="cls-7" d="M167.91,489.15c2.29,0,2.42-.13-4,0C162.69,489.13,166,489.14,167.91,489.15Z"/><path class="cls-7" d="M166.39,489.27c3.37.06,8.32.09,5.74,0C172.27,489.19,164.15,489.23,166.39,489.27Z"/><path class="cls-7" d="M172.64,489.22s9.17.06,6.81,0C176.46,489.12,169.53,489.22,172.64,489.22Z"/><path class="cls-7" d="M177.19,489.33c-2.05,0,.59,0,2.64.06C183.84,489.42,184.85,489.29,177.19,489.33Z"/><path class="cls-7" d="M166,489.38c-1.73,0-3.07.05-1.62.05C168.28,489.43,167.07,489.36,166,489.38Z"/><path class="cls-7" d="M172.83,487.91l-1.69,0h2.25c-.09,0,.06,0,.14,0,25.06-.06,36.7-.13,23.19-.18,3.37-.13-14.63-.17-43.2-.17-31.28,0-75.24.07-117.83.15l.32.39C77.92,488.07,167,487.93,172.83,487.91Z"/><path class="cls-7" d="M186.18,488a2,2,0,0,1,.34,0C185,487.88,186.15,488,186.18,488Z"/><path class="cls-7" d="M200.4,487.69c-1.19,0,2.15,0,4,0C206.72,487.75,206.85,487.6,200.4,487.69Z"/><path class="cls-7" d="M202.91,487.84c3.41.06,8.36.09,5.74,0C208.79,487.76,200.67,487.81,202.91,487.84Z"/><path class="cls-7" d="M209.17,487.79s9.16.06,6.8,0C213,487.69,206.05,487.79,209.17,487.79Z"/><path class="cls-7" d="M216.35,488c4,0,5-.1-2.64-.06C211.67,487.91,214.3,487.94,216.35,488Z"/><path class="cls-7" d="M202.48,488c-1.7,0-3.08.05-1.62.05C204.8,488,203.59,487.94,202.48,488Z"/><path class="cls-7" d="M253.27,479.46h2.25C255.27,479.42,257,479.38,253.27,479.46Z"/><path class="cls-7" d="M268.31,479.48l.34,0C267.11,479.39,268.28,479.47,268.31,479.48Z"/><path class="cls-7" d="M195.65,479.44c.37,0,1.29,0,2.49,0l47-.05h7.32l7.17,0h3.65c19.75,0,27.82-.08,15.59-.13-43.76-.19-214.41-.09-244.85,0v.24Z"/><path class="cls-7" d="M189.21,479.56h0Z"/><path class="cls-7" d="M282.53,479.2c-1.18,0,2.15,0,4,0C288.85,479.26,289,479.11,282.53,479.2Z"/><path class="cls-7" d="M290.79,479.39c.13-.12-8-.07-5.75,0C288.42,479.41,293.45,479.45,290.79,479.39Z"/><path class="cls-7" d="M298.1,479.29c-3-.09-9.92,0-6.8,0C291.34,479.3,300.46,479.36,298.1,479.29Z"/><path class="cls-7" d="M295.84,479.41c-2,0,.59,0,2.64.06C302.49,479.5,303.5,479.37,295.84,479.41Z"/><path class="cls-7" d="M284.61,479.46c-1.54,0-3.14.05-1.62.05C286.93,479.51,285.72,479.45,284.61,479.46Z"/><path class="cls-7" d="M575.58,481c-13.72-.2-85.92.28-90.7,0-1.83-.12-4.68-.35-2.55-.1-1.62.31-1,.31-2.47,0-4.34.56-7.92.5-2.74.44-4,.34-3.73.25-1.1.34,1.76-.28,1.12-.35,2.26.26a37,37,0,0,1-4.5.21c-.59,0-1.32,0-2.3-.08,1.75-.41-4.37-.25-4.6-.14-.05-.33-4.51-.09-7.62.13l-.61,0c-.07,0-.13,0-.19.08l-.67,0c-.29,0-.67-.17-1.31-.34-5.05.17-1.53.06-6.38.33.33-.06.11-.14-.57-.14-4.66.06-3.2.35-1.9.27l-1.94.1c2.48-.62-1.25-.72-6.24-.48a24.11,24.11,0,0,0-5.67,0c-.21-.55-5.15-.07-5.82,0-1.94-.36-13.52.2-16.26.22l-1.07,0a1.2,1.2,0,0,0,.65-.15c-8.77-.12-8.06-.27-13-.17-7-1.14-10.44-.07-12.15-.54-1.52-.42-22-.15-21.95.13a49.17,49.17,0,0,1-7.33-.17,68.3,68.3,0,0,1-10.23.05c.1.2,1.06.5-2.91.3-1.19-.06-3.34-.15-3.69-.1a5.08,5.08,0,0,1-2.31-.08c-11.17.42-10.66-.43-10.66.15-1.81.08-3.81-.36-5.13,0-12.87-.4-18.44,0-20.69,0a18.67,18.67,0,0,0-4.88-.31c-14.31,1.14-31.76-.37-33.27-.24-5.8.52-4.46.16-7.75.12-13.71-.2-85.92.28-90.69,0-1.84-.12-4.69-.35-2.55-.1-1.62.31-1,.31-2.47,0-4.34.56-7.92.5-2.74.44-4,.34-3.73.25-1.1.34,1.75-.28,1.12-.35,2.25.26a36.85,36.85,0,0,1-4.49.21c-.6,0-1.33,0-2.31-.08,1.75-.41-4.36-.25-4.6-.14-.05-.33-4.5-.09-7.62.13l-.61,0a1.54,1.54,0,0,1-.19.08l-.66,0c-.29,0-.67-.17-1.32-.34-5.05.17-1.53.06-6.37.33.32-.06.1-.14-.58-.14-4.65.06-3.2.35-1.89.27l-1.94.1c2.48-.62-1.26-.72-6.24-.48a24.13,24.13,0,0,0-5.67,0c-.21-.55-5.16-.07-5.83,0-1.94-.36-13.51.2-16.25.22l-1.08,0a1.25,1.25,0,0,0,.66-.15c-8.78-.12-8.07-.27-13-.17-7-1.14-10.43-.07-12.14-.54-1.52-.42-22-.15-22,.13a49.17,49.17,0,0,1-7.33-.17,18.85,18.85,0,0,1-2.56.17v1.92c0,.13,0,.25,0,.38a69.45,69.45,0,0,0,8.86-.56c6,.38,3.94-.06,12.44-.08-.48.72,5.06.39,6.22.33-.61.1,0,.27,1.25.27,12.23,0,2.33-.86,22,.36.26,0,.94-.06,1.48-.08.91,0,13.49.4,16.36-.24,4.62-.15,3.07-.19,2.85.18s5.27,0,7.24-.18c3,.4,3.92-.07,6.07,0,0,.59,5.61.31,5.64.31.32-.11-.12-.14,2.2.23,14.79-.38,6.85-.1,12.77-.6-.28.19.52.34,1.88.29,1.71-.08,2.95-.21,3.82-.32.38,0,.18,0,.83.15a12,12,0,0,0,2.36,0,10.7,10.7,0,0,0,1.56-.07,6.22,6.22,0,0,0,1.26-.1c.68,0,1.2,0,1.63-.07h.72a6.59,6.59,0,0,0,.8-.07,5.47,5.47,0,0,0,2,0,9.39,9.39,0,0,0,1.46,0,12.14,12.14,0,0,0,2.31-.09,3.45,3.45,0,0,1,.87-.1c20.85.58,49.16.2,51.27,0,11.41-1,47.12.63,54,.22-.55-.3-1.07-.18,4.3-.11,0,0,4.8,0,6.16-.13,6.33.17,12.84.61,13.1.17.07-.13-.25,0,4.21.3-5.14.22-4.47.19-4.09.3,4-.09,3.21-.12,3.62.09,31.63.47,56.57-.73,57.52-.81,0,.33,3.92.82,12.14-.15,6,.38,3.93-.06,12.44-.08-.48.72,5.05.39,6.22.33-.61.1,0,.27,1.24.27,12.24,0,2.33-.86,22,.36.27,0,.94-.06,1.48-.08.92,0,13.5.4,16.36-.24,4.63-.15,3.07-.19,2.85.18s5.28,0,7.25-.18c3,.4,3.91-.07,6.06,0,0,.59,5.61.31,5.65.31.31-.11-.12-.14,2.2.23,14.78-.38,6.85-.1,12.76-.6-.28.19.52.34,1.89.29,1.71-.08,2.94-.21,3.82-.32.38,0,.18,0,.83.15a12,12,0,0,0,2.36,0,10.49,10.49,0,0,0,1.55-.07,6.13,6.13,0,0,0,1.26-.1c.68,0,1.21,0,1.64-.07h.71a6.22,6.22,0,0,0,.8-.07,5.58,5.58,0,0,0,2,0,9.27,9.27,0,0,0,1.46,0,12.14,12.14,0,0,0,2.31-.09,3.35,3.35,0,0,1,.86-.1c20.85.58,49.16.2,51.28,0,9.9-.82,38.13.26,49.91.29,0-.08,0-.15,0-.23v-2.28C577.75,481.33,578.66,481,575.58,481Z"/><path class="cls-7" d="M576.22,447h3.65l0-.06C563.78,447,561,447.08,576.22,447Z"/><path class="cls-7" d="M582.4,475.8v-.39h-1.24c.33,0,.88,0,1.24,0v-.21C509.39,475.28,542.45,475.62,582.4,475.8Z"/><path class="cls-7" d="M575.55,470h.52C576,470,576,470,575.55,470Z"/><path class="cls-7" d="M563,470.19s8,.05,19.4.09V470C565.83,470.13,555.32,470.23,563,470.19Z"/><path class="cls-7" d="M554.25,464.92h.2l-111.52-.09c-67-.16-33.9.76,30.85.46,2,0,57.73.05,108.62,0V465Z"/><path class="cls-7" d="M549.91,464.89c-1.4,0-2.1,0-.89,0S550.34,464.91,549.91,464.89Z"/><path class="cls-7" d="M566.24,463.46c-1.4,0-2.1,0-.89,0S566.67,463.48,566.24,463.46Z"/><path class="cls-7" d="M506.13,461a5.69,5.69,0,0,0,.59-.05C502.24,461,501.65,461,506.13,461Z"/><path class="cls-7" d="M499.49,461h1.57C501.22,461,500,461,499.49,461Z"/><path class="cls-7" d="M566,458.24h-1.47c-41.57-.08-63.44-.12-32.4.19-6.14.28,31.48.11,50.31.13v-.28l-16.64,0Z"/><path class="cls-7" d="M505.68,489.39l-.17,0C502.8,489.38,503.06,489.39,505.68,489.39Z"/><path class="cls-7" d="M544.64,489.19h1.57C546.36,489.2,545.17,489.17,544.64,489.19Z"/><path class="cls-7" d="M551.86,489.16c-4.48,0-5.07.09-.59,0Z"/><path class="cls-7" d="M518.56,489.22a5,5,0,0,0-.52,0Z"/><path class="cls-7" d="M566.17,489.28h-4.83l1.6-.05c-.36,0-5.21,0-5,.05l-52.29.1c2.27.1,32.58.15,73.18.15.13-.09.25-.19.37-.29Z"/><path class="cls-7" d="M542.21,488l-.18,0C539.32,488,539.58,488,542.21,488Z"/><path class="cls-7" d="M554.56,487.8h.52A5,5,0,0,0,554.56,487.8Z"/><path class="cls-7" d="M580.39,488.1l.17-.21-38.35.07C543.87,488,558.46,488.08,580.39,488.1Z"/><path class="cls-7" d="M533,446.93l.34,0C531.82,446.84,533,446.93,533,446.93Z"/><path class="cls-7" d="M518,446.91h2.25C520,446.87,521.72,446.84,518,446.91Z"/><path class="cls-7" d="M547.24,446.65c-1.18,0,2.15,0,4,0C553.56,446.71,553.69,446.56,547.24,446.65Z"/><path class="cls-7" d="M555.5,446.85c.13-.13-8-.08-5.75,0C553.16,446.87,558.11,446.9,555.5,446.85Z"/><path class="cls-7" d="M562.81,446.75c-3-.09-9.91,0-6.8,0C556.05,446.76,565.17,446.82,562.81,446.75Z"/><path class="cls-7" d="M560.55,446.87c-2,0,.59,0,2.64.06C567.2,447,568.21,446.83,560.55,446.87Z"/><path class="cls-7" d="M549.32,446.92c-1.54,0-3.14.05-1.62,0C551.64,447,550.43,446.9,549.32,446.92Z"/><path class="cls-7" d="M520,475.42l-28.78,0c-3.86-.06-5.24-.06-2.41,0l-15.06,0c-465-.67-151.57,1-151.64.44l168.62-.27h-.18l7.14,0h3.73C518.22,475.46,526.81,475.43,520,475.42Z"/><path class="cls-7" d="M506.45,475.61l.33,0C505.25,475.52,506.41,475.6,506.45,475.61Z"/><path class="cls-7" d="M491.4,475.59h2.25C493.4,475.55,495.14,475.51,491.4,475.59Z"/><path class="cls-7" d="M520.66,475.33c-1.18,0,2.15,0,4,0C527,475.39,527.11,475.24,520.66,475.33Z"/><path class="cls-7" d="M528.92,475.52c.13-.12-8-.07-5.74,0C526.84,475.55,531.47,475.57,528.92,475.52Z"/><path class="cls-7" d="M529.43,475.43s9.17.06,6.8,0C533.25,475.33,526.32,475.43,529.43,475.43Z"/><path class="cls-7" d="M536.61,475.6c4,0,5-.1-2.63-.06C531.93,475.55,534.57,475.59,536.61,475.6Z"/><path class="cls-7" d="M522.74,475.59c-1.72,0-3.06.05-1.62.05C525.07,475.64,523.85,475.58,522.74,475.59Z"/><path class="cls-7" d="M473.78,469.84c-48.52,0-109.23.05-110.85.27-6.59.92-6.56,1.84-14.46,1.45-5.88-.39-8.37-1.32-14.08-1.47-23.76-.5-110.09.19-91.66.1-.16.07,92,.3,92.08.3,5.16.21,9.37,1.24,14.42,1.6,13.15-.2,6.14-1.69,20.48-1.74,23.18,0,66.5,0,104.07,0,49.41,0,88.89-.07,59.6-.41C532.21,469.9,505.62,469.86,473.78,469.84Z"/><path class="cls-7" d="M541.6,469.93c-1.19,0,2.15,0,4,0C547.93,470,548.06,469.84,541.6,469.93Z"/><path class="cls-7" d="M544.12,470.09c3.41.06,8.37.09,5.75,0C550,470,541.87,470.05,544.12,470.09Z"/><path class="cls-7" d="M550.38,470s9.18.06,6.81,0C554.19,469.94,547.26,470,550.38,470Z"/><path class="cls-7" d="M557.57,470.21c4,0,5-.1-2.63-.06C552.89,470.16,555.53,470.19,557.57,470.21Z"/><path class="cls-7" d="M543.68,470.2c-1.71,0-3.07.05-1.62.05C546,470.25,544.79,470.18,543.68,470.2Z"/><path class="cls-7" d="M498.24,458.19c-1.18,0,2.15,0,4,0C504.56,458.25,504.69,458.1,498.24,458.19Z"/><path class="cls-7" d="M506.5,458.39c.13-.13-8-.08-5.74,0C504.16,458.41,509.12,458.44,506.5,458.39Z"/><path class="cls-7" d="M513.81,458.29c-3-.09-9.91,0-6.8,0C507.05,458.3,516.18,458.36,513.81,458.29Z"/><path class="cls-7" d="M511.56,458.41c-2.05,0,.59,0,2.63.06C518.21,458.5,519.21,458.37,511.56,458.41Z"/><path class="cls-7" d="M500.32,458.46h-.42c-1.12-.12-7.79-.32-26.12-.38-11.91,0-85.17.26-104.07.29.94,0,1.34,0,.4,0-1.2,0-1.62,0-1.81,0-41.88.05-88.73-.05-122.81-.12h-1.27c-41.57-.08-63.43-.12-32.4.19-7.72.36,54,0,60.11.2,6.87.19,209.1-.18,211.9-.19l.19,0,.19,0H493a63.74,63.74,0,0,0,7.1.06C502.28,458.49,501.27,458.44,500.32,458.46Z"/><path class="cls-7" d="M559,455.22l.33,0C557.77,455.13,558.94,455.21,559,455.22Z"/><path class="cls-7" d="M479.44,455.3h0Z"/><path class="cls-7" d="M569.51,455c5-.19-39.63-.19-95.73-.11-38.58,0-82.57.13-119.59.2,1.06,0,1.62,0-1.75,0H353l-17.8,0H330l1.7,0c-.38,0-5.29,0-5,.05-26.44.05-46.08.09-52.29.09,4.84.21,252.75,0,271.15,0l-1.69,0h2.24c-.09,0,.06,0,.14,0C571.38,455.1,583,455,569.51,455Z"/><path class="cls-7" d="M573.19,454.94c-1.19,0,2.15,0,4,0C579.51,455,579.64,454.85,573.19,454.94Z"/><path class="cls-7" d="M581.44,455.14c.13-.13-8-.08-5.74,0C579.07,455.16,584.11,455.19,581.44,455.14Z"/><path class="cls-7" d="M582,455h.45v0C581.14,455,580.61,455,582,455Z"/><path class="cls-7" d="M575.26,455.2c-1.71,0-3.06.05-1.61.05C577.59,455.25,576.37,455.19,575.26,455.2Z"/><path class="cls-7" d="M480.46,489.15c1.39,0-1.14-.09-6.68-.11-27.86-.13-132.81,0-208.58.2,1,0,1.51,0-1.8,0h.47l-22.79.05,1.59-.05c-.35,0-5.2,0-5,.05l-52.29.1c5.84.27,196.46.13,271.15-.05l-1.68,0h2.25c-.09,0,.06,0,.14,0l16.51,0C486.64,489.24,490.48,489.2,480.46,489.15Z"/><path class="cls-7" d="M488.18,489.15c2.28,0,2.41-.13-4,0C483,489.13,486.29,489.14,488.18,489.15Z"/><path class="cls-7" d="M486.66,489.27c3.36.06,8.32.09,5.74,0C492.53,489.19,484.41,489.23,486.66,489.27Z"/><path class="cls-7" d="M492.91,489.22s9.17.06,6.8,0C496.73,489.12,489.8,489.22,492.91,489.22Z"/><path class="cls-7" d="M497.46,489.33c-2,0,.59,0,2.63.06C504.11,489.42,505.11,489.29,497.46,489.33Z"/><path class="cls-7" d="M486.22,489.38c-1.72,0-3.06.05-1.62.05C488.55,489.43,487.33,489.36,486.22,489.38Z"/><path class="cls-7" d="M506.45,488a1.81,1.81,0,0,1,.33,0C505.25,487.88,506.42,488,506.45,488Z"/><path class="cls-7" d="M520.66,487.69c-1.18,0,2.16,0,4,0C527,487.75,527.11,487.6,520.66,487.69Z"/><path class="cls-7" d="M523.18,487.84c3.4.06,8.36.09,5.74,0C529.05,487.76,520.93,487.81,523.18,487.84Z"/><path class="cls-7" d="M529.43,487.79s9.17.06,6.8,0C533.24,487.69,526.32,487.79,529.43,487.79Z"/><path class="cls-7" d="M536.61,488c4,0,5-.1-2.63-.06C531.93,487.91,534.57,487.94,536.61,488Z"/><path class="cls-7" d="M522.74,488c-1.7,0-3.08.05-1.62.05C525.07,488,523.85,487.94,522.74,488Z"/><path class="cls-7" d="M573.53,479.46h2.25C575.53,479.42,577.27,479.38,573.53,479.46Z"/><path class="cls-7" d="M473.78,479c-119.62,0-202,.76-162.27.52l253.88-.13h7.32l7.16,0h2.53v-.2C544.5,479,507.65,479,473.78,479Z"/><path class="cls-7" d="M509.05,479.56h0Z"/></g><polygon class="cls-8" points="334.16 61.71 323.32 61.71 325.14 47.26 332.34 47.26 334.16 61.71"/><rect class="cls-8" x="327.5" y="23.54" width="1.67" height="24.74"/><path class="cls-8" d="M417.07,126.42c0,12.4-29.79,18.71-88.33,18.71s-88.33-6.31-88.33-18.71c0-29.72,29.79-68.32,88.33-68.32S417.07,96.7,417.07,126.42Z"/><ellipse class="cls-9" cx="328.74" cy="128.09" rx="88.33" ry="18.7"/><path class="cls-10" d="M300.75,110c0,.39-.06.78-.06,1.17a28.05,28.05,0,0,0,56.1,0c0-.4,0-.79-.06-1.19q-12.57-.57-27.71-.57Q313.52,109.39,300.75,110Z"/><path class="cls-11" d="M303.19,277.51s-3.24-.21-3.48,1.7,0,6.16-2.78,7.85-28.29,17.2-39.89,24.21-20.17,16.55-30.26,32.79-24.35,52.86-26.44,63.37-9.74,35.35,7.66,35.35H420.19c9.74,0,16.69-12.42,14.26-27.39S423.66,358.71,412.53,339s-21.22-29-29.22-32.8-28.69-13.69-30.09-16.24-1.21-9.71-3.47-10.67S303.19,277.51,303.19,277.51Z"/><path class="cls-12" d="M413.06,339.34c-5.86-1.81-16.64-3.19-21.57,8.66a139.09,139.09,0,0,0-10.26,39.58c-.87,8.83,2.78,23.5,2.78,23.5l1.65,3.78c.5.28,20.65-9.42,27.22-8.12,6.8,1.35,9.05,2.6,11.13,4.81a21.12,21.12,0,0,0,8.4-8.61C428.77,384.55,421.81,355.37,413.06,339.34Z"/><path class="cls-13" d="M270,404.64a14,14,0,0,1,4.9-1.47c.13.47.27.92.4,1.37L278.43,415q1.59,5.31,3.17,10.62c.09.29.09.29-.15.45a8,8,0,0,1-4.47,1.3c-.14,0-.19-.07-.22-.19l-1.86-6.25c-.78-2.59-1.55-5.19-2.32-7.78-.7-2.33-1.39-4.66-2.09-7C270.34,405.66,270.18,405.16,270,404.64Z"/><path class="cls-13" d="M268.13,401h.21a.6.6,0,0,1,.56.37,2.34,2.34,0,0,1,.19.62.61.61,0,0,1-.32.63c-.09.06-.15.1-.16.22a.51.51,0,0,1-.47.47.53.53,0,0,1-.56-.39c-.39-1.29-.77-2.58-1.16-3.87q-1.31-4.4-2.63-8.81a2.33,2.33,0,0,0-.07-.25.53.53,0,0,1,.07-.49,1.76,1.76,0,0,1,1.68-.62c0-.36,0-.72,0-1.07a4.1,4.1,0,0,1,.41-1.95,1.65,1.65,0,0,1,2.35-.71,4.45,4.45,0,0,1,1.42,1.31,8.29,8.29,0,0,1,1.22,2.77q1.17,4,2.36,7.94l1.47,4.92a2.05,2.05,0,0,0,.08.19,14.06,14.06,0,0,0-4.92,1.47c-.05-.21-.1-.42-.16-.62l-3.27-11c-.16-.55-.34-1.1-.49-1.65a.34.34,0,0,0-.35-.28.88.88,0,0,0-.36.06c-.16.07-.21.2-.15.4.31,1.05.63,2.1.94,3.16.7,2.33,1.4,4.67,2.09,7Z"/><path class="cls-13" d="M284,439.28l-1.85.54c-.1-.35-.2-.72-.31-1.09s-.29-1-.44-1.45a.27.27,0,0,0-.14-.17,2.36,2.36,0,0,1-1.43-1.45c-.27-.77-.49-1.56-.72-2.34q-.81-2.69-1.6-5.37l-.06-.18a5.49,5.49,0,0,0,3.92-1.18c.13.46.25.91.38,1.35.62,2.1,1.25,4.19,1.87,6.29a2.48,2.48,0,0,1-.36,2.29.3.3,0,0,0,0,.21c.23.79.47,1.58.7,2.37C284,439.16,284,439.22,284,439.28Z"/><path class="cls-13" d="M282.37,440.11l1.61-.47a2.86,2.86,0,0,1,.06,1.48.68.68,0,0,1-.13.27.34.34,0,0,1-.51.13,2.06,2.06,0,0,1-.55-.51A7.66,7.66,0,0,1,282.37,440.11Z"/><path class="cls-14" d="M302.79,269.47a91.22,91.22,0,0,1-.5,9.72,44.14,44.14,0,0,0,14.76,5.73c4.52.63,6.43.48,6.26,2.53s-.7,6.46-.7,6.46,3,1.74,3.66,3.79a37.65,37.65,0,0,0,1.91,4.41s-.17-5.83,1-6.62a16.69,16.69,0,0,0,2.44-2.05s-2.61-6.31-.35-7.57,8.17-2.37,11.48-3.47c2-.68,3.68-1.3,4.64-1.68-.88-6.71-2-15.79-2.21-20.08-.34-7.26.18-15.14.18-15.14l-42.27-.16C303.48,252.44,302.61,263.63,302.79,269.47Z"/><path class="shadow-133" d="M303.31,247.76c1.51,8.41,7.65,22.08,22.26,22.08,17.39,0,19.48-20.29,19.48-20.29Z"/><path class="cls-15" d="M305.86,225a11,11,0,0,0-10.71-.21c-5.63,3.08-5,10.51-1.23,13.65,4.05,3.39,10.54,1.59,10.54,1.59a47.83,47.83,0,0,1,.11-8.23A39.46,39.46,0,0,1,305.86,225Z"/><path class="cls-16" d="M298.77,228.56a4.05,4.05,0,0,0-.5,7.14c2.05,1.35,5,.94,6.06.73a43.29,43.29,0,0,1,.24-4.63c.15-1.31.33-2.47.51-3.44A7.76,7.76,0,0,0,298.77,228.56Z"/><path class="cls-15" d="M341.68,225a11,11,0,0,1,10.72-.21c5.62,3.08,5,10.51,1.23,13.65-4.05,3.39-10.54,1.59-10.54,1.59a47.26,47.26,0,0,0-.12-8.23A39.46,39.46,0,0,0,341.68,225Z"/><path class="cls-16" d="M348.78,228.56a4.05,4.05,0,0,1,.49,7.14c-2,1.35-5,.94-6.06.73a40.83,40.83,0,0,0-.24-4.63c-.14-1.31-.33-2.47-.51-3.44A7.79,7.79,0,0,1,348.78,228.56Z"/><path class="cls-17" d="M304.53,213.17c-2,5.27-4.18,13.56-4.18,20.5S303,252,308,257.64s13.22,8.36,21.57,7.41,13.74-9.77,15.13-14.19,3.31-15.77,2.79-23.34-4.64-17.45-8.12-19.18-9.63-4.63-16.93-4.16S306.09,209.07,304.53,213.17Z"/><path class="cls-18" d="M319.71,242.5a36.09,36.09,0,0,1,5.32-.35c.88,0,1.75,0,2.62.08l2.67.17a10.29,10.29,0,0,1-5.29,1.18A12.43,12.43,0,0,1,319.71,242.5Z"/><path class="cls-8" d="M312.82,229.51c0,.73-.27,1.32-1,1.32s-.95-.59-.95-1.32.22-1.31.95-1.31S312.82,228.79,312.82,229.51Z"/><path class="cls-8" d="M338.09,229.51c0,.73-.26,1.32-1,1.32s-.95-.59-.95-1.32.23-1.31,1-1.31S338.09,228.79,338.09,229.51Z"/><path class="cls-19" d="M306.36,222.34a8.56,8.56,0,0,1,6.36-3.43c4.17-.19,5.52,1.08,5.78,1.71s.66,1.67.14,1.74-3.07-.63-5.65-.63A49.16,49.16,0,0,0,306.36,222.34Z"/><path class="cls-19" d="M342.91,222.34a8.56,8.56,0,0,0-6.36-3.43c-4.17-.19-5.52,1.08-5.78,1.71s-.67,1.67-.14,1.74,3.07-.63,5.65-.63A49.16,49.16,0,0,1,342.91,222.34Z"/><path class="cls-20" d="M304.64,212.8s1.18-9.66,6.49-12.19c7-3.31,10-1.53,14-2s7.59-4,9.56-4.1a3.15,3.15,0,0,1,2.79,1.11,3.24,3.24,0,0,1,3.07-.32c1.45.79,2.78,4.47,2.78,7.86a11.39,11.39,0,0,1-2.09,6.62s-7.74,3.83-15.3,1.82A32,32,0,0,1,315.48,207s-4.87,1.37-6.78,2.68S304.64,212.8,304.64,212.8Z"/><path class="shadow-133" d="M320.76,233.62c.2.84,2.85,4,4.2,4s3.91-3.41,4.11-3.77S320.76,233.62,320.76,233.62Z"/><path class="cls-21" d="M322.89,223.52s-.23,1.51-.52,3.48c-.34,2.26-2.08,5.72-1.61,6.62s1.83.7,1.83.7a3.3,3.3,0,0,0,2.6,1.11,3,3,0,0,0,2.42-1.31,2.38,2.38,0,0,0,1.46-.24c.75-.39.07-1.78-.23-2.85a29.6,29.6,0,0,1-.79-4c-.14-1.18-.36-3.65-.36-3.65a3.86,3.86,0,0,0-2.58-.78A3.19,3.19,0,0,0,322.89,223.52Z"/><path class="cls-16" d="M310.7,235.18a3.31,3.31,0,1,1-3.29-3A3.15,3.15,0,0,1,310.7,235.18Z"/><path class="cls-16" d="M344.44,235.18a3.31,3.31,0,1,1-3.29-3A3.15,3.15,0,0,1,344.44,235.18Z"/><path class="cls-17" d="M402.33,424.4c-5.1-8.57-11.13-9.57-13.29-10.27-16.27,3.55-35.49,9.49-41.1,14.44-8.15,7.21-9.87,14.21-9.87,14.21h63.39C402.65,441.74,407.43,433,402.33,424.4Z"/><path class="cls-22" d="M346.48,429.92l.58.22c2,1.32,2.09,2.78,1,4.1s-4.91,5.63-5.55,8.49c0,0,0,0,0,0h-4.46S339.58,436.63,346.48,429.92Z"/><path class="cls-23" d="M352.19,429.92l.58.22c2,1.32,2.09,2.78,1,4.1s-4.9,5.63-5.55,8.49c0,0,0,0,0,0H342.6S344.37,436.86,352.19,429.92Z"/><path class="cls-24" d="M356.92,431.3l.51.2c1.8,1.17,1.87,2.48.94,3.65s-4.38,5-5,7.58c0,0,0,0,0,0h-5.14S350,437.32,356.92,431.3Z"/><path class="cls-17" d="M229.52,422.4c5.1-9.49,11.13-10.6,13.3-11.38,16.26,3.94,35.48,10.52,41.09,16,8.15,8,9.87,15.75,9.87,15.75H230.39C229.21,441.63,224.42,431.9,229.52,422.4Z"/><path class="cls-25" d="M285.37,428.53l-.57.24c-2,1.46-2.09,3.09-1.05,4.54s4.91,6.25,5.55,9.41a.14.14,0,0,1,0,.06h4.46S292.27,436,285.37,428.53Z"/><path class="cls-26" d="M279.66,428.53l-.57.24c-2,1.46-2.1,3.09-1,4.54s4.91,6.25,5.55,9.41a.14.14,0,0,0,0,.06h5.64S287.48,436.22,279.66,428.53Z"/><path class="cls-27" d="M274.93,430.06l-.51.22c-1.8,1.29-1.87,2.75-.94,4s4.38,5.58,5,8.41c0,0,0,0,0,0h5.13S281.82,436.73,274.93,430.06Z"/><path class="cls-28" d="M221.62,341c5.77-2.1,16.47-4,22,7.58a138.69,138.69,0,0,1,12.21,39c1.31,8.77-1.61,23.6-1.61,23.6l-.72,2.42c-.49.06-22.06-6.05-28.33-5.31-6.89.81-8.9,3-10.88,5.35a21.09,21.09,0,0,1-8.81-8.18C208.17,386.93,213.68,357.44,221.62,341Z"/><rect class="cls-10" x="259.66" y="441.85" width="108.11" height="0.98"/><rect class="cls-29" x="454.3" y="403.42" width="72.49" height="14.14" transform="translate(-146.59 467.1) rotate(-45)"/><rect class="cls-30" x="464.14" y="427.68" width="0.66" height="5.3" transform="translate(-168.24 454.8) rotate(-45.03)"/><rect class="cls-30" x="466.64" y="424.81" width="0.66" height="3.54" transform="translate(-164.87 455.05) rotate(-44.99)"/><rect class="cls-30" x="469.76" y="421.68" width="0.66" height="3.54" transform="translate(-161.75 456.3) rotate(-44.99)"/><rect class="cls-30" x="472.89" y="418.56" width="0.66" height="3.54" transform="translate(-158.63 457.53) rotate(-44.98)"/><rect class="cls-30" x="476.01" y="415.43" width="0.66" height="3.54" transform="translate(-155.5 458.8) rotate(-44.98)"/><polygon class="cls-31" points="521.12 389.85 484.9 406.14 483.23 407.8 503.16 407.8 521.12 389.85"/><rect class="cls-30" x="479.76" y="412.05" width="0.66" height="5.3" transform="translate(-152.63 460.83) rotate(-44.99)"/><rect class="cls-30" x="482.34" y="409.15" width="0.66" height="3.76" transform="translate(-149.29 461.45) rotate(-44.98)"/><rect class="cls-11" x="485.47" y="406.03" width="0.66" height="3.76" transform="translate(-146.15 462.9) rotate(-44.99)"/><rect class="cls-32" x="488.59" y="402.9" width="0.66" height="3.76" transform="translate(-142.99 464.61) rotate(-45.03)"/><rect class="cls-32" x="491.72" y="399.77" width="0.66" height="3.76" transform="translate(-139.9 465.46) rotate(-44.99)"/><rect class="cls-32" x="495.39" y="396.42" width="0.66" height="5.3" transform="translate(-137.02 467.19) rotate(-44.98)"/><rect class="cls-32" x="497.97" y="393.52" width="0.66" height="3.76" transform="translate(-133.62 468.36) rotate(-45.02)"/><rect class="cls-32" x="501.09" y="390.4" width="0.66" height="3.76" transform="translate(-130.53 469.35) rotate(-44.99)"/><rect class="cls-32" x="504.22" y="387.27" width="0.66" height="3.76" transform="translate(-127.43 470.42) rotate(-44.97)"/><rect class="cls-32" x="507.35" y="384.15" width="0.66" height="3.76" transform="translate(-124.28 471.96) rotate(-44.99)"/><rect class="cls-32" x="511.02" y="380.8" width="0.66" height="5.3" transform="translate(-121.32 474.22) rotate(-45.03)"/><rect class="cls-33" x="470.01" y="414.1" width="66.73" height="5.16" transform="translate(-147.2 477.98) rotate(-45)"/><polygon class="cls-11" points="533.32 386.73 528.79 394.91 525.15 391.26 533.32 386.73"/><polygon class="cls-33" points="531.06 390.82 533.32 386.73 529.24 388.99 531.06 390.82"/><rect class="cls-34" x="492.63" y="413.62" width="44.45" height="5.16" transform="translate(-143.5 485.96) rotate(-45)"/><polygon class="cls-11" points="536.92 394.13 532.39 402.31 528.75 398.66 536.92 394.13"/><polygon class="cls-35" points="534.66 398.22 536.92 394.13 532.83 396.39 534.66 398.22"/><path class="cls-32" d="M536.85,434a6.73,6.73,0,0,1-6.55,8.25H465.61a6.72,6.72,0,0,1-6.55-8.25l6.08-26.23h65.63Z"/><path class="cls-11" d="M498,407.8v34.48h32.34a6.73,6.73,0,0,0,6.56-8.25l-6.08-26.23Z"/><polygon class="cls-30" points="465.14 407.86 463.78 413.74 469.66 407.86 465.14 407.86"/><polygon class="cls-36" points="477.19 407.86 461.5 423.55 459.49 432.23 483.86 407.86 477.19 407.86"/><path class="cls-36" d="M491.39,407.86,460,439.27a6,6,0,0,0,.36.52,6.79,6.79,0,0,0,3.49,2.3l34.23-34.23Z"/><path class="cls-37" d="M539.9,415a2.11,2.11,0,0,1,.81,1.53,2.06,2.06,0,0,1-.61,1.61L539,419.25a2.13,2.13,0,0,1-1.62.61,2.11,2.11,0,0,1-1.53-.81l-7.18-9.27,2-2Z"/><polygon class="cls-36" points="505.6 407.86 471.12 442.33 477.79 442.33 512.26 407.86 505.6 407.86"/><polygon class="cls-36" points="519.8 407.86 485.32 442.33 491.99 442.33 526.47 407.86 519.8 407.86"/><polygon points="531.38 410.48 499.52 442.33 506.19 442.33 532.63 415.89 531.38 410.48"/><polygon points="534.05 422.01 513.72 442.33 520.39 442.33 535.3 427.42 534.05 422.01"/><polygon points="497.95 436.37 526.47 407.86 519.8 407.86 497.95 429.7 497.95 436.37"/><polygon points="497.95 422.17 512.26 407.86 505.6 407.86 497.95 415.5 497.95 422.17"/><path d="M535.56,439.79a6.74,6.74,0,0,0,1.29-5.71l-.13-.55-8.79,8.8h2.36A6.73,6.73,0,0,0,535.56,439.79Z"/><polygon class="cls-38" points="531.79 412.22 530.77 407.8 465.14 407.8 464.12 412.22 531.79 412.22"/><polygon class="cls-37" points="497.95 407.8 497.95 412.22 531.79 412.22 530.77 407.8 497.95 407.8"/><polygon class="cls-39" points="528.79 394.91 511.09 405.31 508.6 407.8 515.89 407.8 528.79 394.91"/><polygon class="cls-40" points="532.39 402.31 521.01 406.39 519.6 407.8 526.89 407.8 532.39 402.31"/><polygon class="cls-11" points="490.02 406.34 490.49 405.87 488.94 404.32 488.29 404.61 490.02 406.34"/><polygon class="cls-11" points="493.14 403.22 493.61 402.75 493.25 402.38 492.6 402.67 493.14 403.22"/><polygon class="cls-11" points="497.36 401.18 497.83 400.71 497.56 400.44 496.91 400.73 497.36 401.18"/><path class="cls-41" d="M115.86,390.36s5.9-8.78,7.92-12.24,6.77-12.82,6.19-13.39-11.23,9.36-14.26,13.1-9.5,12.68-9.5,12.68Z"/><path class="cls-42" d="M102.89,390.36A159.46,159.46,0,0,0,96.18,367c-4.72-11.9-11-20.53-12.44-20S86.11,362.89,88,370s5.69,20.56,5.69,20.56Z"/><path class="cls-43" d="M93.26,390.51S91,381.83,87.65,376.3c-3.49-5.76-10-11.66-10.7-11.45s2.63,8.62,5.27,14.34,4.89,11.32,4.89,11.32Z"/><path class="cls-44" d="M110.53,390.51s4.77-13.11,5.92-23.05.7-15.26.13-15.41-4.79,9-6.76,16c-1.58,5.62-3.9,22.05-3.9,22.05Z"/><path class="cls-45" d="M108.37,390.51s.1-16-.49-23.05c-.65-7.71-3.11-16.85-3.69-16.85s-2.58,12.53-2.94,19.23c-.37,6.87-.43,20.67-.43,20.67Z"/><polygon class="cls-36" points="115.7 442.68 87.83 442.68 81.02 390.06 122.51 390.06 115.7 442.68"/><path class="cls-46" d="M85.09,421.55l-.21-1.65h33.77l-.22,1.65Zm-.88-6.83.21,1.65h34.69l.21-1.65Zm-.67-5.19.21,1.65h36l.21-1.65Z"/><path class="cls-47" d="M170.69,396.12l-5.42-.09s1.28-6.08,2-6.13S170.69,396.12,170.69,396.12Z"/><path class="cls-35" d="M137.17,442.58H166.6a.84.84,0,0,0,.85-.79c.2-3.14.92-14.9.51-20.52-.57-7.73-1.32-15.26-1.32-18.56,0-2.79,1-12.29,1-12.29l3,5.7.69-.25s-2.89-6.78-4.52-7-19.05,0-19.05,0-2,10-3.77,14.19-3.93,13.81-5.06,19.08c-1,4.49-2.28,16.14-2.66,19.53A.85.85,0,0,0,137.17,442.58Z"/><path class="cls-48" d="M170.69,396.12l.69-.25s-2.72-6.39-4.37-7c-2.31,12.62-4.24,22.62-5,30.88-.58,6.41-1.38,18.35-1.68,22.82h6.25a.84.84,0,0,0,.85-.79c.2-3.14.92-14.9.51-20.52-.57-7.73-1.32-15.26-1.32-18.56,0-2.79,1-12.29,1-12.29Z"/><circle class="cls-49" cx="150.92" cy="420.24" r="7.28" transform="matrix(0.16, -0.99, 0.99, 0.16, -288.07, 501.9)"/><polygon class="cls-2" points="148.45 422.4 148.45 422.39 148.45 422.39 148.45 422.4"/><polygon class="cls-2" points="148.45 422.39 148.45 422.39 148.45 422.4 148.45 422.39"/><polygon class="cls-2" points="147.35 420.92 147.34 420.92 147.34 420.93 147.35 420.92"/><path class="cls-2" d="M147.33,420.9s0,0,0,0S147.35,420.9,147.33,420.9Z"/><path class="cls-2" d="M146.85,420.59h0S146.85,420.6,146.85,420.59Z"/><path class="cls-2" d="M148.58,417.9s0,0,0,0Z"/><path class="cls-2" d="M147.3,420.86c-.05,0,0,0,0,0Z"/><path class="cls-2" d="M149.57,418.42s0,0,0,0S149.58,418.43,149.57,418.42Z"/><path class="cls-2" d="M148.51,421.71h0S148.5,421.72,148.51,421.71Z"/><path class="cls-2" d="M151.8,418.16c-.05,0,0,0-.08.06s0,.07-.06.1,0,0-.12.09v0s-.1,0-.11.1h0c-.08.05,0,.06,0,.08s-.06,0-.07,0-.09,0-.09.12-.09,0-.11.1l0,0h0s0,0,0,0v0h0c-.11,0-.05,0-.12.08s0,.05,0,.06,0,0-.06.06-.09.06-.12.08l0,0s0,0,0,.06,0,0,.05,0l.11-.09c.06-.09.09,0,.08-.1s.06,0,.09-.05h0s0-.06.07-.09h0s0,0,0-.07,0,0,.06,0,0,0,0-.06.09,0,.1,0h0s0,0,.06-.05.08-.1.11-.12l0,0s0,0,0,0,0,0,0,0,.06-.05.11-.07a0,0,0,0,1,0,0l0,0s0,0,0,0,.09-.08.15-.1h0s0-.06,0-.1a.11.11,0,0,0,.1-.09s.05,0,.06-.05.13-.05.05-.12-.05,0-.08,0,0,0-.07.07,0,0,0,0,0,0-.05.07Z"/><path class="cls-2" d="M151.6,418.91s0,0,0,0S151.58,418.9,151.6,418.91Z"/><path class="cls-2" d="M154.75,419.08s0,0,0,0S154.74,419.07,154.75,419.08Z"/><path class="cls-2" d="M150.12,419.55h0Z"/><path class="cls-2" d="M150.82,419Z"/><path class="cls-2" d="M153.68,422h0s0,0,0,0Z"/><path class="cls-2" d="M154.8,421s0,0,0,0S154.82,421,154.8,421Z"/><path class="cls-2" d="M155.36,420a.89.89,0,0,0-.06-.35,3,3,0,0,0-.26-.9c-.18-.4-.24-.28-.4-.44s-.2-.17-.3-.28a.72.72,0,0,0-.24-.19.58.58,0,0,0-.4-.13c-.16,0-.11,0-.33,0s-.19-.06-.51-.08a2.34,2.34,0,0,0-.77.08c-.93.28-.61.16-1,.39-.11.06,0,0-.25,0s-.15-.07-.48-.21a.93.93,0,0,0-.41-.12,7.72,7.72,0,0,1-.88-.15.55.55,0,0,0-.41,0,1.18,1.18,0,0,0-.31.08c-.16.07-.12,0-.37.14s-.32,0-.52.24-.13.11-.33.31-.2.09-.27.2a1.59,1.59,0,0,0-.14.3,3.16,3.16,0,0,0-.18.27c0,.11,0,.22-.07.32s0,.24,0,.32a2,2,0,0,0-.08.31c0,.1,0,.2,0,.32s.14.21.16.29,0,.21,0,.32a3.16,3.16,0,0,0,.18.27c.06.09.1.19.17.28s.16.15.23.23.1.19.19.27a2.31,2.31,0,0,0,.84.51c.09.05.17.11.28.16s.21.06.31.1c.26.1,0,.1.92.27a2.3,2.3,0,0,0,.28.06.13.13,0,0,0,.18.07c.16.1.23,0,.69,0,.11,0,.21,0,.31,0l.32,0c.11,0,.21,0,.33,0a2.82,2.82,0,0,0,.31-.07,1.92,1.92,0,0,0,.29-.15c.35-.1.27-.11.42-.1.33,0,.26-.12.56-.27s.15-.09.31-.16a2.41,2.41,0,0,0,.78-.68c.31-.38.2-.32.35-.41s.15-.27.32-.56a1.31,1.31,0,0,0,.12-.28A.83.83,0,0,0,155.36,420Zm-.45.86s0,0,0,0,0,0,0,.07l-.06,0s-.07,0-.08.07-.05.07-.09.08a.34.34,0,0,0-.11.07s0,0,0,.06,0,0-.06,0a.1.1,0,0,0-.07.09c-.06,0-.08.06-.13.1s-.05.06-.05.09h0s-.1.1-.17.1,0,0,0,.07,0,0,0,0,0,0,0,.07a.34.34,0,0,0-.16.1v0c-.08.05,0,.06-.07.07s-.06.05-.09.08l0,0h0c0,.07,0,.07-.08.08h0s0,0,0,0a.42.42,0,0,0,0,.07c-.09,0-.06,0-.12.07s0,0,0,0c-.2.11-.21.23-.37.23,0,0,0,0,0,0s0,0,0,0,.08,0,.1-.09h0c.06,0,0-.08.08-.09a.43.43,0,0,0,.14-.13s0,0,0-.08.06,0,.07,0,.06,0,.07-.07,0,0,0-.07,0-.05.08-.05a0,0,0,0,0,0,0c0-.12.13-.11.14-.16h0s0,0,0-.05h0c0-.06,0-.05.08-.07v0s.05,0,.07,0,0,0,0,0,0,0,0-.08,0,0,.08,0,0,0,0,0,0,0,.11-.08,0,0,.08-.11l0,0s.06-.06.07-.08a.05.05,0,0,1,0,0c0-.05.09,0,.1-.07l0-.05s0,0,0,0a.12.12,0,0,1,.06-.1h.06l0,0h0l.07,0c.05-.07.08,0,.1-.1s.05,0,.06-.05l0,0s0-.06.06-.06,0,0,0,0a1.74,1.74,0,0,1-.12.23C154.9,420.89,154.89,420.85,154.91,420.9Zm-2.23,1.84c-.07,0-.16.06-.1,0s0,0,0,0,0,0,.06-.07.1-.09.19-.15l.11-.15,0,0a0,0,0,0,1,0,0s0,0,0,0v0s.08-.05.05-.1l0,0s0-.07.13-.1,0,0,0,0,0-.05,0-.05.06-.1.11-.12,0-.1.08-.07,0-.08.11-.08.06-.06,0-.1,0-.07.11-.08.08-.06.11-.09a.07.07,0,0,0,0-.05c.16-.08,0-.06.22-.19,0,0,0,0,.05-.05s0,0,0-.06,0-.07.07-.1,0,0,.06,0,.06,0,.07-.06,0,0,0,0l.05-.06a.1.1,0,0,0,0,0s0,0,0,0,0,0,0-.08h0s0-.06.06,0,0,0,0-.05a.06.06,0,0,0,0-.06s.08,0,.1-.08,0,0,.07-.07a0,0,0,0,1,0,0s0,0,.06-.05l.06,0c0-.08.09-.08.12-.11a.56.56,0,0,1,0,.16s0,.06-.05.06l-.06,0s-.07.05-.14.16-.11,0-.13.11a.08.08,0,0,1-.05.05s0,0,0,.06,0,0-.07,0-.07.1-.09.1-.07,0-.06.06a.16.16,0,0,1-.07.07s0,0,0,0,0,0,0,.06-.07,0-.1.1-.09,0-.09.1,0,0-.14.12,0,0,0,0-.05,0-.05.07,0,0-.07,0,0,0,0,.06-.07,0-.11.05a.17.17,0,0,0-.06.1c0,.07,0,.06-.1.08h0s-.05,0-.06.09v0s0,0-.05,0-.07.05-.07.08-.05,0-.06.05-.06,0-.07.05a.05.05,0,0,1,0,0s-.05,0-.08.06a.09.09,0,0,0,0,.05s-.06,0-.1.06l0,.05s0,0-.05,0a.09.09,0,0,0,0,.05l0,0s0,0,0,.05a.13.13,0,0,0-.09.11A.78.78,0,0,0,152.68,422.74Zm2.44-3.08s0,0,0,0Zm-.28.21s0,0-.05,0a.08.08,0,0,1-.07,0h0l0,0,0,0s0,.05-.09.07l0,0s0,0-.05,0l0,.05c-.05.08-.07,0-.12.12l0,0s0,0-.06,0,0,0,0,.05,0,0,0-.11,0-.13.08-.18.11-.09.14-.15,0,0,0-.07h0s0,0,0,0,0,0,.1-.07.07-.11.1-.12.07,0,.07-.06a.05.05,0,0,1,0,0s0,0,0-.08.06,0,.06,0,0,0,0,0,0,0,0,.13,0,.06,0,.07,0,.07-.08.07,0,.05-.08.06a.07.07,0,0,1-.06.07ZM153.65,421a2.54,2.54,0,0,1-.2.24c-.07.06-.18.1-.27.16s-.18.09-.27.15-.16.21-.22.24-.22,0-.31.06-.22,0-.32.05-.2.07-.3.08-.21.08-.31.09-.19,0-.32,0l-.31,0c-.13,0-.24.07-.32.06a2.06,2.06,0,0,1-.32-.07H150c-.19-.06-.24-.05-.46-.12s-.86-.37-.88-.38-.23,0-.56-.33c-.06-.05-.08-.19-.16-.29s-.2-.15-.24-.22a2.66,2.66,0,0,1-.05-.35,1,1,0,0,1,0-.71c.08-.36.13-.28.3-.47a2,2,0,0,1,.28-.26.41.41,0,0,1,.13-.1c.39-.16.32-.07.57-.08s.22,0,.31,0,.21,0,.31,0a3,3,0,0,1,.29.12,1.41,1.41,0,0,0,.22.06c-.06.07-.1.17-.16.23-.39.4-.37.33-.47.44a.55.55,0,0,0,.48.9.52.52,0,0,0,.47-.24c.17-.2.17-.17.24-.32s.07-.14.2-.18c.4-.11,0-.22.37.08s-.08.45.51.72a.56.56,0,0,0,.47,0c.37-.13.4-.28.27-.57a2.25,2.25,0,0,0-.16-.37,2.74,2.74,0,0,0-.1-.31c-.08-.12-.13-.12-.27-.29l.42-.18a1.75,1.75,0,0,1,1.37.16,1.86,1.86,0,0,1,.29.28c.06.09.13.15.16.21a.91.91,0,0,1,0,.79c-.1.29-.16.33-.22.38S153.76,420.91,153.65,421Zm-2.56,1.48s-.09,0-.08.09-.11.05-.11.07,0,0,0,0l0,0s0,0-.11.1h0l0,0v0s0,0,0,.07a.06.06,0,0,0-.06,0s0,0-.05,0l0,.06c-.15,0-.16,0-.2,0l.05,0s0-.05,0-.05,0,0,0,0,0,0,.06-.05,0,0,0-.05,0,0,0-.05h0s0,0,0-.05,0,0,.09-.1h0c0-.05.07-.07.1-.12a.06.06,0,0,0-.09,0s0,0,0,.06-.06,0-.06,0,0,0-.07,0,0,.05,0,.06-.06,0-.1.09-.2.16-.2.21l0,0s0,0-.11,0l0,0c.05,0,0,0,.08-.09s0-.05.13-.11,0-.07,0-.09l.05,0c0-.05,0,0,0,0s0-.08,0-.09v0c.05,0,.09,0,.14,0s0,0,0-.05a.44.44,0,0,0,.07-.09s.05,0,.07,0,.07,0,.08-.09.24,0,.25,0,0,0,0,0,0,0-.07.06,0,0-.09.12-.06,0-.07.08,0,0,.05,0l0,0c0-.06,0,0,.09-.05v-.06c.12-.08,0-.07.13-.07l0-.08.12,0s0,.07-.06.09,0,0-.08.08l-.06,0S151.08,422.48,151.09,422.5Zm-1.44.4.11-.08s.05,0,.06-.05l.08-.12s0,0,.07,0,0-.05,0-.08.06,0,.12-.06l.08-.1s0,0,.06-.05,0-.05.17,0l0,0c0,.05-.06.07-.09.11s0,0-.14.11,0,.05,0,.09-.07,0-.06.06-.05.06-.1.06,0,0,0,0-.05,0-.07,0l-.07,0a.05.05,0,0,1,0,.05s0,0-.12,0C149.67,422.92,149.66,422.91,149.65,422.9Zm.3-.66a.47.47,0,0,0-.15.16s0,0-.05,0-.08,0-.07.06,0,0-.07.08l0,0s0,0-.06.1,0,0,0,0-.07,0-.09.09,0,0,0,0l-.16,0h0s0,0,.1-.06.15-.11.12-.18l.08-.06s.06,0,.08,0v0c0-.07.1-.08.14-.14s0,0,.06,0,0,0,.06-.07S150,422.22,150,422.24Zm.66.19c-.05,0-.09.07-.1.07s-.06,0-.07.08,0,0-.08.05,0,0-.13.13,0,0,0,.09-.12,0-.12.13,0,0-.2,0c0,0,0,0,0-.05a.05.05,0,0,0,0-.06l0,0c.06,0,0-.05,0-.05s0-.06.08-.08l.08-.06c0-.1.13-.08.13-.14s0,0,.07-.09,0,0,0,0,.05-.06.08-.07a.05.05,0,0,0,0,0,.27.27,0,0,0,.12,0c.15,0,0,0,0,0a.08.08,0,0,1-.07.05v0A.07.07,0,0,1,150.61,422.43Zm-1.61-.09c0,.06,0,0-.07.05s0,0,0,.05,0,0,0,0,0,0-.08,0-.11.13-.22.08.07,0,.08-.13l.06,0c0-.06.09,0,.16-.12s.06-.05,0-.1l.09-.06c.06,0,0-.07,0-.09s.05-.12.23,0a.05.05,0,0,0,0,0s0,0-.05.07-.15.09-.16.15S149,422.29,149,422.34Zm-.6.16s0,0,0-.05,0,0,0-.05h0c-.06,0,0,.05-.06.07s0,0-.06,0-.08,0-.06-.05l0,0c.05,0,0-.05,0-.09.19-.09.11-.12.19-.12s0-.05.11-.12,0,0,0,0,0,0,.06,0v0s0,0,0-.06.06,0,.09-.08.1,0,.07.08l0,0v0l0,.05s0,0,0,0-.19.13-.19.16l-.08.05s0,.05,0,.08,0,0,0,.07a.07.07,0,0,0,.06,0l0,0v-.05a.09.09,0,0,0,.06,0l0,0s0,0,0-.06.07,0,0-.07.09,0,.1-.09h0s0-.06,0-.06a.09.09,0,0,0,.09-.06c.24.12.12,0,0,.15s0,.05-.05.06l-.09.07c-.07,0,0,.07-.08.05s0,0,0,.06,0,.06-.06.07l0,0s0,0,0,.07-.1,0-.09.07h0C148.5,422.57,148.56,422.6,148.4,422.5Zm.18-.75,0,0,.12.06-.09,0s0,0,0,.06h0s0,0,0,0-.06,0-.07.05-.07,0-.08.11l0,0s0,0,0,0h-.06s0,0,0,0,0,0,0,.05l0,0c0,.05-.05,0-.07.09s0,0-.15,0l0,0c0-.05,0-.05.07-.07s0,0,.12-.13a.5.5,0,0,1,.11-.1s0,0,0-.06,0,0,.09-.11,0,0,.07,0S148.55,421.76,148.58,421.75ZM148,422l-.06,0,0,0,0,0c-.08.07-.1.07-.09.1l0,0c-.1-.08-.08-.06-.07-.09l0,0s0,0,.06-.05.1,0,.05-.09.06-.1.12-.1,0-.07.08-.06.09-.08.13-.12,0-.06.06-.08l.09.05s0,0,0,.07a.21.21,0,0,1-.12.1s0,0,0,.05h0C148,422,147.93,422,148,422Zm-.43-.43s0,0-.1.08v0c-.09.09-.07,0-.1.07s0,0,0,0l0,0c-.09-.14,0,0,0-.12s0,0,.09,0a.12.12,0,0,1,.06-.08.46.46,0,0,1,.1-.1c.07,0,0,0,.09-.07v0s0,0,0,0,.06,0,.1-.07,0,0,0,0h0s0,0,0,0,0-.06,0,.06,0,0,0,.06-.05,0-.06.07l-.05,0s0,.06,0,.08-.06,0-.1.07S147.63,421.49,147.59,421.54Zm-.49-.06s0,0-.08-.1a.31.31,0,0,1,.08-.1s.05,0,.05,0h0s0,0,.06,0,.05-.06.07-.08.1-.12.11-.12h0s0,0,0-.06a.18.18,0,0,1,.09-.1c.07.12.08.05.07.14s-.06,0-.08.06-.12.07-.14.14l0,0s0,0,0,0,0,0,0,0a.1.1,0,0,1,0,0l0,0c0,.05-.08,0-.07.09S147.11,421.47,147.1,421.48Zm-.19-.29s.06,0,.07-.06.06,0,.06,0a.11.11,0,0,1,.08-.07s0,0,0,0l.14-.1c0-.09.06,0,.11-.16.06,0,.05,0,0,0l.07-.07,0,0a.77.77,0,0,0,0,.15s0,.05-.07.05v0a1,1,0,0,1-.11.1c0,.07-.15.05-.15.17a.13.13,0,0,0-.09.1c-.06,0-.05,0,0,0S147,421.37,146.91,421.19Zm-.16-.68h0s0,0,.05-.05,0-.07.08-.08l0,0s0,0,.05-.06,0,0,0-.05,0,0,.08-.07h0s0,0,0-.05.05,0,.06-.05,0,0,.09-.07,0,0,0-.05,0,0,0,0l0,0a.49.49,0,0,0,0,.17s-.06,0-.08.05-.12.12-.17.15,0,0,0,0,0,.07-.06.07l0,.05s0,0,0,.06a.15.15,0,0,0-.12,0s0,0,0,0,0,0,0,.09h0a.19.19,0,0,0-.09,0s0,0,0-.09,0,0,0,0S146.76,420.55,146.75,420.51Zm0,.45a.33.33,0,0,1,0-.14l0-.05c.06,0,.14-.16.21-.19a.28.28,0,0,0,.09-.1s0-.06.07-.09,0,0,.08,0,0-.1.18-.22l0,.13s0,0,0,.07h0s-.06,0-.09,0l0,0s-.05,0-.08,0v0c-.08,0,0,.08-.13.12s-.06,0-.1.06l0,.05h0c-.08,0,0,.09-.08.09s-.07.08-.12.09S146.77,421,146.75,421Zm0,.07s.05,0,.06,0,0,0,.1-.1.09-.08.1-.08,0-.05.07-.07,0-.05,0-.05,0,0,0,0,.09-.05.08-.11,0,0,0,0l.07,0c0-.06,0,0,.05,0s0,0,0,0h0c.05.15,0,.12,0,.18s0,0-.11.07l-.05,0,0,0s0,0,0,0,0,0,0,0a.2.2,0,0,1-.08.08s-.05,0,0,0,0,.06,0,.06-.1.09-.16.12,0,.08-.07.09,0,0,0,0A.81.81,0,0,1,146.79,421Zm2.54-2.54s.13-.08.12-.09a.06.06,0,0,1,0,0c0-.06.05-.05.08-.05s0-.06.09-.11,0-.05,0-.07.06-.06.11-.07,0,0,0-.05,0,0,.06-.08l.16,0c-.05.06,0,.08-.09.09l-.05.07s0,0,0,.07l-.05.07a.08.08,0,0,0-.08,0s0,0,0,.05h0c-.06.06-.05.09-.07.1s0,0-.07,0-.1,0-.12.11,0,0-.17,0a.18.18,0,0,0,.09-.06Zm.93-.47s-.07.05-.1.07,0,.05,0,.05,0,0-.06.07-.07,0-.06,0,0,0,0,0l0,0c-.07.13-.06.05-.12.13s-.05,0-.07.06h0c0,.08,0,0-.09.12a.3.3,0,0,0-.16,0l.06-.06a.07.07,0,0,0,.06,0s0-.07,0-.07h0s0,0,0-.05,0,0,.05,0v0l.05,0s.09-.06.09-.07,0,0,.06,0,0,0,0,0l.15-.12C150.18,418,150.09,418,150.26,418Zm.39.77s0,0-.05,0,0,0,0,0v0c-.1.05-.08,0-.11.1s-.15.06-.12.1-.06.07-.09.09,0,.06-.09.09a.06.06,0,0,0,0,.06l-.07,0c-.06.08-.1,0-.11.09s-.09.07-.1.12,0,0-.05.05-.08.07-.11.07,0,0,0,.07,0,0,0,0,0,0,0,.06,0,0-.05.06h-.05c0,.05,0,0,0,.05a0,0,0,0,0,0,0c0-.27.15-.28.3-.45a4.19,4.19,0,0,0,.31-.32c0-.05.11-.12.11-.16a.27.27,0,0,1,.12-.07,1,1,0,0,0,.27-.23c.14-.19.2-.15.37-.26,0,0,0,.06-.05.06s0,0-.08,0a0,0,0,0,0,0,0s0,0-.09.09,0,.05-.05.07h0S150.63,418.78,150.65,418.79Zm.47-.51,0,0S151.15,418.28,151.12,418.28Zm-.77,1.73c-.22.25-.2.3-.36.33,0-.07.08-.06.12-.11l.06-.05.06,0s0,0,.06-.05,0-.07.06-.08a.13.13,0,0,1,.05-.07A.18.18,0,0,1,150.35,420Zm.46-.51s0,0,.07,0a.23.23,0,0,1,.07-.07c-.09.16-.08.16-.22.2l.06-.06s0,0,.06,0S150.82,419.52,150.81,419.5Zm.17-.16s0,0,0,0Zm.72.41s0,0,.1-.06,0,0,0,0,0,0,.05,0,0,0,0-.08,0,0,0-.05h0a.5.5,0,0,0,.07-.08l0,.12c0,.05,0,.08,0,.08s0,0,0,0-.08.08-.13.11,0,0-.05.05,0,0,0,0-.08.08-.11.13,0,.06-.08.1l-.07,0c-.05,0,0,0,0,.05a.82.82,0,0,0,0-.16c.07,0,.07-.1.12-.1l0,0s.05,0,.06-.06,0,0,.05,0S151.69,419.77,151.7,419.75Zm-.17.48v0a.32.32,0,0,0,.1-.1s0,0,0-.07.05,0,.09,0,0-.05,0-.08.07,0,.08-.05,0,0,0,0,0,0,0,0l0,0s0,0,.06-.06h0s0-.05,0-.07a.58.58,0,0,1,0,.11.07.07,0,0,0,0,.07l-.1.1c-.05.05-.12.08-.15.13s0,0-.05,0v0a.13.13,0,0,0-.07.06s-.05.05-.07.08,0,0-.09.07a.6.6,0,0,1-.08-.08Zm.17.09s0,0,0,0,.06,0,.1-.09,0,0,.1-.1,0,0,.1-.07a.06.06,0,0,1,0,0s.16-.11.12-.15,0,0,.09.12,0,0,0,0-.07,0-.08.08h0c-.09.14-.07.05-.08.14s0,0-.05,0,0,0,0,0l-.08.09s0,0-.06.05,0,0-.12,0A.19.19,0,0,0,151.7,420.32Zm.16.12s0,0,.06-.08.1,0,.09-.11l.05,0s.05.05.14-.16h.05c.06.13.05.11,0,.14s-.08,0-.09,0a.06.06,0,0,1-.06,0s0,0,0,.07,0,0-.07.06a.41.41,0,0,1-.17,0Zm.41-.14h0Zm-.37-.86h0s0,0-.1.07-.06.05-.08.12-.08,0-.11.1,0,0,0,.06,0,0-.08,0l0,.05c-.05.05,0,0-.09.05a.28.28,0,0,0,0-.09l0,0s0-.05.05-.08l0,0a.08.08,0,0,1,0,0s0,0,0-.05.09,0,.1-.08l0,0,0,0s0,0,0,0l0,0s0,0,0,0,0,0,0-.05.05,0,.08-.06l.08.08S151.93,419.43,151.9,419.44Zm-.1-.18-.09.09c0,.06-.08,0-.05.09a.38.38,0,0,1-.1,0l0,0-.06,0s-.06,0-.1.08,0,.14-.13.15-.07,0-.08-.1.08,0,.09-.05,0,0,0-.05,0-.05.06-.06a.06.06,0,0,0,0,0s.07,0,.08-.05a1.24,1.24,0,0,0,.14-.18l0,0h0c.06,0,.05,0,.06-.08C151.86,419.27,151.85,419.2,151.8,419.26Zm-.67.24s0,0,0,0l.05-.06s.19-.17.21-.2.16-.05.25-.1,0,0-.09.1h0s0,0,0,.06-.05,0-.06.05-.09.08-.11.11h0c-.06,0-.08.07-.11.11v0c0,.06,0,0-.08.05l0-.11Zm0-.31,0,0s0,0,.05-.05,0,0,0,0C151.1,419.24,151.05,419.29,151.15,419.19Zm2.29-.64s.07,0,.08,0,0-.05,0-.09l.06,0,.11-.11c0-.07.09-.05.1-.11a.43.43,0,0,1,.09-.1l0,0s0-.05,0-.05.08,0,.08.07-.07.06-.07.11l0,0-.09,0s0,0,0,.06,0,0,0,0,0,.06-.06.1l0,0s-.08.06-.12.09a0,0,0,0,1,0,0c-.07,0,0,0-.11.11l-.15-.05h0a.13.13,0,0,0,.07-.05Zm.81-.34s-.07.06-.1.07,0,0-.05.07l0,0a0,0,0,0,1,0,0c-.06,0,0,.08-.09.09s0,0-.09.08,0,.08-.1.11,0,0-.05.05h0a.08.08,0,0,1,0,.05c-.1-.07-.12-.05-.07-.09s.08,0,.08-.11.06,0,.07,0,.07-.07.07-.08a.08.08,0,0,1,.05-.05s0,0,0,0,0,0,0,0h0c0-.08.1-.08.12-.11s.07-.05.07-.09v0Zm.12.11,0,0c0,.1,0,.05,0,.09s-.06,0-.07.05-.19.15-.19.2h0s0,0,0,0,0,0-.1.09,0,0-.08.09c-.09-.07-.08-.06,0-.08a0,0,0,0,1,0,0s.08,0,.11-.12,0,0,0,0,0,0,.06,0,0-.07,0-.11.1-.05.15-.12.08,0,.08-.1S154.29,418.26,154.37,418.32Zm.15.14s0,0,0,.05-.16.18-.2.2,0,.06-.09.05,0,0,0,.06-.07,0,0,.1h-.06c-.05.11-.09.07-.1.1s0,0-.07-.06,0,0,0,0,0,0,.15-.16c0,0,0,0,0,0a.09.09,0,0,0,.06-.06c.05,0,.08,0,.09,0a.14.14,0,0,1,.07-.08.11.11,0,0,1,.09-.05c0-.05,0-.05,0-.09Zm-.2.63s0,0,.08-.06,0,0,0,0,0-.06,0-.1h0s0,0,0,0,.07,0,.08,0a.05.05,0,0,1,.05,0s0-.06,0-.06.06,0,.08,0,0,0,0,0,0,.06,0,.11,0,0,0,0a.11.11,0,0,1-.07.06c0,.05,0,0-.07,0a.16.16,0,0,0,0,.07,0,0,0,0,1,0,0s-.06.06-.1.07-.05.1-.11.13,0,0,0,0,0,0,0,0l0,0s0,0,0,.05,0,0-.08-.09.08-.06.09-.1S154.32,419.12,154.32,419.09Zm.73.18c0,.06,0,.05,0,.06s0,.08-.05.09a.29.29,0,0,1-.15.11v.05a.12.12,0,0,1-.1,0s0,.07-.09.08,0,0,0,.05-.05,0-.08,0,0,.06,0,.08,0,0,0,.05-.08,0-.07.07l-.08,0c0,.07,0,0,0-.12a.16.16,0,0,0,.07-.07s0,0,.09-.06,0-.05,0-.08l.08,0a.06.06,0,0,1,0-.06s0,0,0-.05a.09.09,0,0,0,.09-.05c-.05-.07.09,0,.12-.13h0s.06-.06.09-.09S155,419.21,155.05,419.27Zm-.05-.18a.31.31,0,0,0-.05.1l0,0s0,.05-.06.08,0,0-.14.15,0,0-.05,0-.06.06-.08.08,0,0-.06.07v0a.08.08,0,0,0-.07,0s0,0-.08.08,0-.08,0-.15,0,0,0,0,0,0,.09-.07,0-.06,0-.06.07,0,.07,0,0,0,.07-.08,0,0,0-.05,0,0,0,0,0-.07,0-.05,0,0,.07,0h0s.09-.09.11-.14S155,419,155,419.09Zm-.12-.11,0,0c-.1,0,0,.14-.17.17s-.05.05-.15.12-.06,0-.06.06,0,0,0,0,0,0-.05,0,0,0,0,0,0,.06-.07.07l-.05-.12,0,0s0,0,0-.06.08,0,.1-.06,0,0,0,0,.05,0,.07,0,.13-.06.15-.14l0,0h0c.06,0,0,0,.08,0s0-.09.14-.13,0-.05.08.06S154.87,418.92,154.88,419Zm-.21-.4c.05,0-.08.12-.11.14s0,0,0,0a.21.21,0,0,0-.1.09s0,0-.05.06-.07,0-.08.05a.12.12,0,0,1-.08.06s0,.05,0,.07,0,0-.1.09c-.08-.11-.06-.07,0-.13s0,0,.07-.05.08,0,.07-.06,0-.06.1-.08,0,0,.07-.07v0s.06,0,.05-.08,0,0,0,0l0-.05s0,0,0,0,0-.07.07-.08S154.58,418.53,154.67,418.58Zm-.74-.61,0,0s-.06,0-.07.05l0,0s0,0,0,.07a.2.2,0,0,0-.09.05c-.05.05,0,.06-.09.1s0,0,0,0h0c-.05,0,0,0-.05.07l-.12.12s0,0-.11.12l-.17,0s0,0,0,0,0,0,.06,0l.06,0c.07,0,0-.09.1-.11s0-.05,0,0a.1.1,0,0,0,0-.09h.06c.17-.24.15-.12.21-.22a.87.87,0,0,1,.09-.11Zm-.23-.05s0,0,0,.05,0,0,0,0-.06,0-.07.08-.09.09-.13.11a.27.27,0,0,0-.07.08c-.08,0,0,0-.07.07s0,0-.05.05-.06,0-.07.1h-.05s0,.06-.08.06,0,0,0,.07h-.16l.06,0s.05,0,.08-.07,0-.06,0-.09h0s.06-.09.11-.1,0,0,0,0,.07-.05.11-.08,0,0,.07-.07v0c.14,0,.1-.06.16-.14S153.52,417.91,153.7,417.92Zm-.21,0-.11.08s0,0,0,0,0,0-.07,0l0,.05s-.05,0-.06.05l0,0c-.07.07-.05.07-.11.09s-.06.09-.13.11,0,0-.07.06,0,0,0,.06l-.11.11s0,0,0,0h-.17s0-.08.09-.08a.43.43,0,0,1,.16-.17c0-.11,0,0,.11-.12s.1-.06.11-.11,0,0,0-.08h0s0,0,0,0h0v0s0,0,.07,0,0,0,0-.08Zm-.5-.07s0,0,0,0,0,0-.05,0v0h0c-.06,0,0,.05-.09.08s0,0,0,0h-.06c-.11.18-.11.07-.13.13s0,0,0,.05a.23.23,0,0,1-.11.11c0,.05-.1.13-.11.14s0,0-.06,0,0,.06,0,.1,0,0,0,0,.05,0,.06,0l.06,0,.05-.05s.07-.06.08-.1.05,0,.13-.12v0s0,0,0-.07.08,0,.1,0a.35.35,0,0,1,.05-.08h0c.06,0,0-.06.07-.08s0,0,0-.06h0a0,0,0,0,0,.06,0s0,0,0,0,.11,0,.1.06-.15.06-.13.11,0,0,0,.06h0s0,0-.14.09l0,.07s-.07.06-.12.07,0,.05,0,.06a.08.08,0,0,0-.06,0s0,.05,0,.06a1.4,1.4,0,0,1-.1.16l-.08,0-.17,0s0,0,0,0,0-.05-.08-.05-.06.05-.06.07,0,0,0,0h0s0,0-.33.17a0,0,0,0,1,0,0c.07-.05.06,0,.06-.08l0,0h0c.06,0,0,0,.08-.08s.13-.13.16-.18.09-.06.13-.13,0,0,0,0,.06,0,.05-.06l.09-.06s0,0,0-.05l0,0c.1-.1.14-.1.14-.1s.08-.09.09-.1,0,0,0,0,.06,0,.08-.06l0,0Zm-.36,0h.1a.46.46,0,0,0-.14.09.05.05,0,0,1,0,.05s0,0,0,.05,0,.06-.07.05l0,0c0,.06-.1.08-.11.11s-.09.05-.09.13a.09.09,0,0,0-.06,0s0,0,0,0,0,.05,0,.05l-.06,0s0,0,0,0,0,.05,0,.06a.17.17,0,0,1-.1.07c0,.05,0,0-.06.07s0,0,0,.06-.11.06-.15.11,0,0,0,0-.07,0-.1,0,0,0,0,0a.75.75,0,0,0-.2.1c0-.07,0,0,.13-.16v0c.06-.08.11,0,.11-.1s.09,0,.09-.09.1-.05.11-.1,0-.05.13-.1,0,0,.07-.08,0,0,0,0,.07-.09.13-.1v0c.08,0,.08-.08.09-.09s0,0,.06-.06,0,0,0-.06.1,0,.1-.05h0c0-.05.09,0,.07-.05h0s0,0,.05,0,0,0,0-.06S152.48,417.82,152.63,417.81Zm-.55.09,0,0s0,0,.09,0,0,0,.13-.06.09,0,.07,0,0,0-.05,0a.67.67,0,0,1-.06.12s0,0-.09,0-.07.06-.1.1,0,0,0,.05,0,0,0,.07,0,0-.08,0-.06.08-.09.1-.05.08-.13.14-.12.14-.15.15,0,0-.05.05l0,0c-.08.06,0,.08-.09.07s0,.05,0,.06,0,0-.13.14-.06,0-.09.09a.1.1,0,0,1-.09.06s0,.07-.07.09v0c0,.05-.06.05-.1.07l0,0s0,.05-.05.07l-.05,0c0,.1-.18.11-.15.19s-.12.1-.15.1,0,0-.05.1l-.07,0a.13.13,0,0,1-.06.07s-.06.06-.09.09,0,.11-.07.11-.08.08-.12.08,0,.05-.07.05l0,0a0,0,0,0,0,0,0h-.11s0,0,0-.05,0,0,0,0,0,0,0-.08,0,0,0,0,.05,0,.05-.06.08,0,.08-.08l0,0s0,0,0,0,.07,0,.06-.08a.26.26,0,0,0,.11-.07s.06,0,.06-.08l.08-.06s0-.05.05-.06l0-.09c.05,0,.07,0,.09,0s0-.06,0-.11c-.2.07,0,0-.22.15,0,0-.09,0-.08,0v0h0c-.1.06-.08.12-.15.17s0,0,0,.06h0L150,420s0,0-.05.05-.06.09-.12.11,0,.07-.11.1,0,.06-.09.1a.2.2,0,0,1-.09-.06h0s.07-.05.06-.11,0,0,.06-.06h0c.06,0,0-.06.06-.08a.15.15,0,0,0,0-.07s.06,0,.06-.06l.06,0s0,0,0,0,.08,0,.08-.07l.09-.08,0,0s0-.05,0-.08a.1.1,0,0,0,.07-.07c.16,0,0-.06.13-.07s0,0,.06-.06v0s.08,0,.09-.09h0s0,0,0,0,0,0,.07,0a.05.05,0,0,0,0,0s.08-.07.14-.12l0-.06s.06,0,.07-.05.08-.07.13-.11,0,0,0-.06.08,0,0,0,0-.06.05-.08.09,0,.09-.07h0l.06-.05s0,0,0,0,0,0,0,0,0-.09.1-.1,0,0,.06-.06,0,0,.05-.06,0,0,.06-.07,0,0,.09-.06,0,0,0-.09h.05Zm-.43.13s0,0-.15.14,0,0,0,.05l0,0-.05.05c0,.06-.06,0-.07.06a.08.08,0,0,1-.06.09s-.05,0-.07.06-.05,0-.11.08,0,0,0,0,0,0,0,.05c-.14,0-.06,0-.12.08l0,0s0,0-.06.06,0,0-.06.06,0,0-.05,0,0,0,0,0-.1,0-.1.08-.11.07-.11.11,0,0-.05.06,0,0-.05,0,0,.05-.08.07v0a.14.14,0,0,0-.08.07s0,0-.06,0a.09.09,0,0,0-.05.08c-.06,0-.07,0-.09.06s-.11.09-.12.11a.11.11,0,0,1-.09,0s0,.07-.05.09a.24.24,0,0,1-.08.06v0c-.06,0,0,0,0,.05s-.06,0-.07.05,0,0,0,0-.05,0,0,.07,0,0-.06,0a.27.27,0,0,1,0-.12v0l0,0c0-.05,0,0,0,0l0,0s0,0,0-.05,0,0,0,0,0,0,0,0,0,0,0,0,0,0,.06-.06.06-.09.1-.08,0-.05,0-.06l.08-.06s0,0,0-.06.08,0,.08-.09l0,0s0,0,0,0l0-.05s0-.05,0-.05,0,0,0,0,0,0,0,0,0,0,0-.06,0-.06.07-.06,0,0,0,0,0,0,.05-.05v0s.1,0,.07-.08h0s0,0,.11-.11,0,0,.07-.09h.05s0,0,.06,0,0,0,0-.06,0,0,.08-.06l0,0,.06,0c.11-.05.07-.11.13-.12s.06,0,.06-.08,0,0,.11-.08S151.23,418.14,151.65,418Zm-.79.23a0,0,0,0,1,0,.05.38.38,0,0,0-.12.09c-.3.14-.26.23-.39.34a.48.48,0,0,1-.16.09l0,0,.11-.11c.06,0,0,0,.09-.07a.31.31,0,0,1,.1-.1s0,0,.11-.14.06,0,.07,0a.08.08,0,0,1,.05-.05C150.74,418.22,150.67,418.23,150.86,418.26Zm-.46-.11s0,0-.05.07,0,0,0,0a.13.13,0,0,1-.07.09c-.06,0-.06.07-.1.08s0,0,0,.05l-.07.08,0,0s.06,0,.06.05.1-.07.11-.11.08,0,.08-.06l.07,0s0-.09.07-.11,0,0,.06,0,0-.09.07-.1l0,0c.15.09.18.07,0,.11,0,0,0,.05,0,.05h0a.15.15,0,0,1-.05.07c0,.05,0,0-.06.05a.11.11,0,0,1-.09.07s0,.05,0,.06,0,0,0,.05-.08,0-.07.06,0,0,0,0,0,0-.06.06,0,0-.18,0l0,0h0l0,0s.05,0,.06-.05-.06,0-.09,0a.32.32,0,0,1-.1.1c0,.05,0,0-.13,0s0,0,0,0h0s0,0,.05,0h0s0,0,0,0h0c.1-.09.06,0,.09-.11s.06,0,.07-.06l0,0c.08,0,.09-.11.15-.14l0,0c.07-.08,0,0,.09-.11S150.43,418.09,150.4,418.15Zm-.61-.24s0,0,0,0-.05,0-.09.05,0,0,0,0,0,.06-.07.1l-.06,0-.07.08a.27.27,0,0,1-.08.07s-.08,0-.08.06,0,0,0,.07-.11.07-.11.11l-.22,0s0,0,.06-.06.05,0,.06,0,.05,0,.06-.08h0c0-.08,0-.08.05-.08s0,0,0-.06.1,0,.11-.07h0c0-.06,0-.06.08-.07s0,0,0,0l0,0s0-.05.06-.07,0,0,0,0,0,0,0,0S149.65,417.88,149.79,417.91Zm-1.23-.13s0,0,0,.06-.06,0-.08.08l0,0s0,0,0,0h0s0,0,0,0l-.08,0s0,0-.06.05l0,0,0,.05s0,.07-.05.07-.06.08-.36.31c0,0,0,0-.1.16s0,0-.06,0,0,.05-.12.09a.07.07,0,0,0,0,.06h0s0,0,0,0a.18.18,0,0,1,.07-.05.17.17,0,0,0,.06-.11.37.37,0,0,0,.14-.09c.06-.05.08-.12.13-.13s0,0,.05-.07,0-.05.1-.08,0-.06,0-.07,0,0,.07-.08,0,0,0,0a.59.59,0,0,0,.06-.08.1.1,0,0,0,.07,0c0-.06,0,0,.11-.12s0,0,0-.07.06-.05.1-.05.06,0,.05-.05l.19,0v0c-.05,0,0,0,0,0s-.1,0-.09.09-.09,0-.1.08,0,0,0,0a.1.1,0,0,0-.05.06s0,0-.06.06,0,0,0,0c-.14.1-.1.05-.15.11s0,0,.11,0,0-.08.15-.15,0,0,.1-.07,0-.05,0-.06.07,0,.07-.08,0,0,.09-.08.07,0,0-.06v0l.07,0c.1,0,.09,0,.07.05a.09.09,0,0,1-.07.06l-.06,0s0,.06,0,.07,0,.08-.08.09,0,.05-.07.06v.05c-.05.06,0,0-.08.05s0,0,0,0,.09,0,.11-.07l0,0s0,0,0,0,0,0,.09-.07,0,0,0,0,0,0,.06-.09l.11-.1.15,0a.22.22,0,0,0-.08.13c.06,0,.11,0,.11-.07s0,0,0,0,.17,0,.12,0v0s0,0-.06,0,0,0-.14.17,0,0,0,0-.05.05-.06.06,0,.05-.05,0-.09.06-.09.09a0,0,0,0,1,0,0s0,0,0,0,0,0-.08,0v0s0,0,0,.06a.1.1,0,0,0-.05,0l0,0s0,0-.1,0-.07,0-.05,0v-.05l.08,0a.08.08,0,0,1,0-.05v0s0,0,.07-.06.07,0,.05-.07a.76.76,0,0,0,.15-.11s0,0,.06-.07h0c0-.06,0,0,0-.07s0,0,0-.06-.09,0-.09.09l-.09,0s0,0,0,.06,0,.07,0,.07-.05,0-.13.07,0,.05,0,.07,0,.07-.1.11,0,0,0,0,0,0,0,.05l0,0c-.15,0-.31.11-.19,0v-.05c.08,0,.13,0,.09-.08s.07,0,.07-.08c.19-.09.05,0,.14-.11a.08.08,0,0,0-.09,0,.12.12,0,0,0-.06.09l-.07,0c-.06,0,0,.09-.11.12s-.05,0,0,.05,0,0-.05,0a.07.07,0,0,0,0,.08c-.06,0-.1.08-.15.12a0,0,0,0,0,0,0,1.58,1.58,0,0,0-.3.27c-.08.09-.18.14-.24.25s0,0,0,0,0,0-.06.06v0c-.08,0-.05,0-.11.1a0,0,0,0,0,0,.07s0-.06.1-.07,0,.11,0,.17,0,.05,0,.11-.09.06-.14.08v.05a.34.34,0,0,0-.11.07l0,0h0s0,0,0,0l0,0c-.05.07-.05.06-.06.07l-.05.05c-.08,0-.06.07-.1.09a.24.24,0,0,0-.09.13s-.08,0-.09.08a.34.34,0,0,1-.07-.11s.1,0,.07-.06a.09.09,0,0,0,0-.07h.05s0,0,0,0,0-.07.07-.07l0,0c.06-.09,0-.07.14-.11s0,0,.09-.1l0-.07s0,0,0,0,0,0,.18-.14,0-.09-.07-.09,0,0,0,0-.11.12-.13.13h0c-.06.19-.18.15-.2.23l0,0s-.05.05-.08.07,0,.06-.09.1,0,.09-.13.11c0-.21,0-.12.05-.18l0,0s0-.08.08-.11a.12.12,0,0,0,.07-.07h0s0,0,.06,0a0,0,0,0,0,0,0c0-.09.11-.06.11-.15s.07,0,.09-.09.09-.11.12-.12l.06,0c0-.05,0-.09.08-.1l0,0v0c.08,0,.07,0,.05-.06s.07-.08.11-.1,0,0,0,0a.12.12,0,0,0,.06-.08s.07,0,.12-.06,0-.06.08-.09,0,0,0-.06,0,0,.07-.06v0s.09,0,.09-.06,0,0,0-.07h0s0,0,0,0,0,0,0-.06.07-.05.09-.08,0,0,0,0a.2.2,0,0,0,0-.08s-.09,0-.13,0,0,0,0,0-.06.09-.05.13h0s0,0-.07.05,0,0-.05.05,0,0,0,0,0,0,0,0v0s0,0-.07.07,0,0,0,0v0a.26.26,0,0,0-.14.09s0,0,0,0a.1.1,0,0,0,0,0h0s0,0,0,0,0,0,0,0,0,.05,0,0a0,0,0,0,0,0,0s0,0,0,0l-.11.06s0,0,0,0-.06,0-.09.06-.05.07-.1.11,0,0,0,0-.06,0-.09.06l0,.06c0,.07-.1,0-.12.12s0,0,0,0,0,.08-.07.1,0,.07-.05.07-.05,0-.13.12,0-.13.06-.22a.32.32,0,0,0,.1-.1c.09-.11.1-.1.11-.14l.06-.06h0a.68.68,0,0,1,.12-.12v0c.09,0,0,0,.17-.15s0,0,0,0,0-.08.12-.08,0,0,0-.05a.15.15,0,0,0,.06-.09s0,0,0,0l-.11.08s0,0,0,.06,0,.05-.05.07-.12.13-.18.17,0,0,0,0-.05.09-.1.13l-.11.08s0,.06-.07.07,0,0-.07.07,0,0,0,0,0-.13.05-.14l0,0s.09,0,.08-.09.07,0,.08-.05,0-.06.07-.07a.32.32,0,0,1,.06-.07h0c0-.07.08-.05.13-.12s0,0,0-.05.06,0,.07,0v0s.05-.05.09-.06l.07-.09v0a.1.1,0,0,1,0,0c.05,0,.05-.05.06-.07a.15.15,0,0,0,.11,0v-.05s.05,0,.08-.08.06,0,0-.08,0,0,.05,0l0,0c0-.06.09-.09.12-.12s.06,0,.07-.1.06,0,.06-.07.09,0,.1-.06.07-.1.1-.11l0,0Zm-.44.15s0,0,0,0a.61.61,0,0,0-.13.14.06.06,0,0,1-.06,0c-.07,0,0,.08-.07.11s-.06.05-.1.06,0,.06,0,.09,0,0-.11.07,0,0,0,.05-.1,0-.09.08a.09.09,0,0,0-.05.08c0,.07-.08,0-.09.06s-.07.06-.13.13-.14.11-.14.14,0,0-.07.09,0,0-.06.07l0,0c-.06,0-.09.06-.13.08s0,0-.05.06l-.08.08c0-.07,0-.13,0-.19s0,0,0-.07l.06,0s0,0,0,0l.05-.06c0-.06.1,0,.1-.11s.05,0,.08,0a.18.18,0,0,0,0-.07s0,0,.09-.07.06,0,0-.06.06,0,0-.07c.12-.07.13-.07.13-.09s0,0,0,0,0,0,.08,0l0,0a.07.07,0,0,1,.05,0,.11.11,0,0,0,.09-.09h0c0-.07.09,0,.09-.08s0,0,.06-.06,0-.1.08-.11A.85.85,0,0,0,148.12,417.93Zm-.65.36c.11-.09.14-.22.27-.25h0l-.05,0s-.1.07-.09.13a0,0,0,0,1,0,0s0,0-.07,0h0c-.05,0-.06,0-.05.07a.14.14,0,0,0-.08,0s-.12,0-.13.13,0,0-.06,0,0,.05-.07.08-.06,0,0,.08-.09,0-.13.09-.08.05-.06.1,0,0,0-.11.07-.16.19-.23S147.19,418.5,147.47,418.29Zm-.33,3.24c.05-.08.12-.07.14-.14l0,0s0,0,0,0,0-.1.07-.1,0,0,0,0,0-.08.1-.11,0-.08.09-.08,0,0,.06-.06l.1.09c-.07.06-.05.06-.13.1s0,0,0,0a.1.1,0,0,0,0,0s0,0-.05.07-.08,0-.09.11l-.06,0s-.07,0-.06.06-.08.05-.1.06.06,0,0,.06Zm.25.29.07,0s0-.08.06-.09.08-.08.11-.09,0-.06.09-.1,0,0,.1-.09v0s0,0,0,0,0,0,.09-.08a.32.32,0,0,0,.08.1s0,0,0,0a0,0,0,0,1,0,0s0,0,0,0h0a.06.06,0,0,1,0,.05s0,0-.06,0,0,0-.06.05l0,0a0,0,0,0,0,.05,0,.13.13,0,0,1,.08-.07c.06,0,0-.05.06-.06s0-.05.1-.11.13.08.05.13,0,0,0,0-.08.08-.11.11-.11,0-.09.09a.08.08,0,0,1-.05,0s0,0-.1.07,0,0-.05.07,0,0,0,.08,0,0-.14-.09c.05,0,0,0,.06-.06s.05,0,.06,0l0,0c.05,0,0,0,.08-.07s0-.05,0-.07-.05,0-.06,0l0,0s-.06,0-.07.08l-.05,0s0,0,0,.05,0,0,0,0l0,0Zm.47.41s0-.05,0-.05,0-.05,0-.06c.15-.15.1-.06.14-.14s0-.08.1-.07.06-.08.08-.12,0,0,.07-.06,0,0,.07-.07,0,0,.05,0l.09,0s0,.06,0,0a.39.39,0,0,1-.11.09c-.08.05,0,.05-.1.11s0,0,0,0,0,0,0,0,0,0-.08,0,0,0,0,0,0,0,0,.09,0,0-.07,0,0,0,0,0,0,0,0,.05,0,0-.06,0Zm.93.43s0,0,0,0h0s.06,0,.08-.05.06-.07.07-.09,0-.05.06-.06,0,0,0,0,.1-.11.17-.13l0,0a.16.16,0,0,1,.09-.05c.06,0,0,0,.06-.07s0,0,.16,0l-.05.05c0,.08-.07,0-.07.09s-.07,0-.13.13l0,.05s-.06,0-.06.06-.06,0-.06.07,0,0-.06,0-.06.1-.13.1h0S148.91,422.7,148.79,422.66Zm.18.08s.07,0,.1-.05,0,0,.09-.09v0c.05,0,.06,0,0-.06s.1,0,.11-.08a1.31,1.31,0,0,1,.11-.12s.1,0,.09-.09,0,0,.06,0,0,0,0,0,.16,0,.14.05l0,0s0,0,0,0,0,0,0,0,0,0-.11.12-.05,0,0,0l0,.06a.1.1,0,0,0-.1,0c0,.07-.08.07-.11.12s0,0-.05.06h0c-.05,0,0,0-.06.07s0,0,0,.05S149.23,422.88,149,422.74Zm.43.15a.27.27,0,0,1,.08-.11s0,0,.05,0,0,0,0-.07.05,0,.07,0l.06,0,.06-.11c.06,0,0,0,.07,0s0,0,0-.06.06,0,.11-.08.05,0,.06-.07,0,0,0,0,0,0,.15,0,0,0,0,0,0,0,0,0l-.06.07h0c-.05.08,0,0-.08.08s0,0-.06,0,0,.07-.07.12-.09,0-.09.06-.1,0-.07.08l0,0s0,0-.05,0l0,0s0,0,0,0Zm1.17.22c0-.06,0-.05.12-.08v0s0-.05.07-.06.05-.07.09-.09.16-.18.23-.26h0s.1-.07.09-.08,0-.05,0-.06,0,0,0,0h0s0,0,.06,0,0,0,0,0h0a.09.09,0,0,1,0-.05c.19,0,.22-.08.23,0s-.07,0-.1,0h0l0,.08-.09.05c0,.06,0,0-.08.06l0,0s0,0,0,0a1.25,1.25,0,0,0-.12.14l-.09,0s0,0,0,0,0,0-.2.2c0,0,0,0-.11.12Zm.57,0a.12.12,0,0,1,.07-.05s0-.06,0-.07,0,0-.09.08.05.05-.24.06v0c.08-.06.06-.06.11-.06l0-.07a.11.11,0,0,0,.08-.1h0s0,0,0,0,0,0,0,0,0,0,.1-.06,0-.07.06-.09a0,0,0,0,1,0-.05l0-.07c.05,0,.1,0,.11-.09s0,0,0,0l.06-.06a1.15,1.15,0,0,1,.09-.12c0-.05,0,0,.24-.09,0,0,0,0,0,0s-.06,0-.09.06,0,0,0,0-.16.16-.17.18l-.06.08h0s0,0,0,0,0,0,0,0,0,0,0,.05-.06.06-.08.06l0,0s0,.06,0,.1l-.06,0s-.05,0-.08.07l0,0s-.07,0-.09,0,0,.05.1,0l0,0v0s0-.05.09-.06v0c.1-.06.1-.06.12-.09l0,0c.05,0,0,0,.08-.1s.07-.11.13-.11,0,0,.07,0,0-.07.07-.08v0c.12,0,.07-.11.12-.12s.08-.06.1-.1l.2,0c0,.06-.06,0,0,.07h0s0,0,0,0,0,0,0,.07,0,0,0,0l0,0s0,.05-.05.06l0,0s0,0,0,.05,0,0,0,.05,0,0-.06,0l-.06.06,0,.06h0c0,.06-.08,0-.11.11s0,0,0,0,0,0,0,0,0,0-.08.08,0,0,0,.08a0,0,0,0,0,0,.05.14.14,0,0,0-.08.05s-.06,0-.08.07Zm.35,0c0-.05.06,0,.06-.06s.08-.1.11-.13.06,0,.07-.05,0,0,.05-.06a.21.21,0,0,0,0-.06l.09-.06c.05,0,0,0,.05-.06s0-.07.09-.1,0,0,.07-.09l.08-.08.05-.05,0,0s0,0,0-.06.09,0,.12-.14l.07-.05a1,1,0,0,0,.23,0c-.05,0,0,0-.05,0s-.07,0-.07.05l0,0c-.06,0-.08.06-.12.1a.14.14,0,0,1-.08.07s0,.05,0,.06h0s0,0,0,0,0,0-.06.05,0,0-.08.06,0,0-.05.06,0,.06-.07.07,0,.12-.13.12,0,0,0,0,0,0,0,0h0s0,0-.07.05a0,0,0,0,1,0,0c-.09,0-.12.12-.14.15Zm.26,0,.06-.06c.14-.13.09-.1.1-.13s.07,0,.09-.06l0,0,.06,0,0-.05s.05,0,.07-.06,0,0,0-.06l.14-.11h0s0-.07.08-.1,0,0,.15-.13,0,0,0,0,.06,0,.07-.05,0,0,0,0,.05,0,.07-.06,0,0,0,0,.06,0,0-.06,0,0,.05,0,0,0,0-.06,0,0,0,0,0,0,.07,0a.11.11,0,0,0,0-.08c.14,0,.07-.08.12-.1s0,0,.1-.07h0l.06,0a3.23,3.23,0,0,0,.28-.18,2.25,2.25,0,0,0,.21-.24,3.16,3.16,0,0,0,.18-.27c.09-.12.16-.1.25-.3,0,0,0,0,0-.05h0s0,0,0,0,0-.05.08-.06a.06.06,0,0,0,0-.05s.05,0,.05,0a.49.49,0,0,1,.11-.15s0,0,.09,0h0l.12-.12s0-.07.07-.1,0,0,0-.05.11-.06.12-.09.09-.07.1-.1l0,0h0c0,.11,0,.09,0,.1s0,0,0,0,0,0-.07,0a.21.21,0,0,1,0,.06c-.05.05,0,.1-.07.07s0,0-.05.05,0,0-.09.09l0,0a.18.18,0,0,1-.1.09.05.05,0,0,0,0,0,.09.09,0,0,0,0,.09s-.06,0-.07,0-.05,0-.05.07v0s0,.05-.06.07,0,0-.05,0-.06.1-.15.15h0s-.11.07-.13.14h0s-.05,0-.08.06a.06.06,0,0,0,0,.06s-.06,0-.08.08,0,0-.06,0-.06.05-.07.07,0,0,0,.07-.07.07-.11.11h0s-.05,0,0,.07-.1,0-.09.09h0c-.1,0-.12.12-.22.18s0,0,0,.08h0c-.05.07,0,.05-.12.08s0,.09,0,.09,0,.05-.07.07-.09.11-.16.14,0,0-.06,0v0c0,.05-.06.07-.07.09s0,0,0,.05,0,0-.09.06,0,.08-.08.09,0,0,0,0,0,0-.07,0,0,0-.06.06l0,0h0s0,0-.06,0l0,0c0,.05,0,0-.07,0s0,0-.06,0v0c-.06,0-.08,0-.08.09v0C152,422.9,152,423.05,151.75,423.05Zm.35-.07h0c.21-.09,0-.08.23-.18,0,0,0-.05,0-.07h0a.06.06,0,0,0,.06,0c0-.05.07-.07.1-.11s0,0,0-.06,0-.06.06-.06,0,0,.06-.05,0,0,0,0l.06,0s0-.07.08-.07,0,0,0,0,.07-.1.13-.11h0c0-.05,0-.05.06-.08s0,0,.05-.06,0,0,0,0,0,0,0,0l0-.05s0-.05.05-.06,0,0,.06-.05,0-.07.05-.07a.57.57,0,0,0,.13-.08l0,0,.08,0c0-.06,0,0,0-.07s0,0,0,0l.06-.05c.06,0,0,0,0-.07s0,0,.06,0,0,0,0-.07l0,0s0-.07.06-.08,0,0,.08,0l0,0s0-.05,0-.08l.11-.07s0,0,0-.08l.08-.06a.05.05,0,0,1,.06,0s.12-.1.12-.14.14-.05.13-.13.06,0,.06-.05l0,0s0-.05.06-.05,0-.08.08-.08l.09-.08s0,0,0,0h0s.11-.09.11-.1,0,0,.08-.07h0s.05-.06.08-.08,0,0,0,.14-.08,0-.11.11,0,0,0,.06-.07,0-.1.08-.09,0-.1.1,0,0-.08.08v0a.3.3,0,0,0-.1.07s0,.05-.06.1h0s0,0-.08.06-.05.1-.1.1,0,.05,0,.06h0c0,.05-.05.07-.08.1s-.1.06-.1.1,0,0-.07,0a.3.3,0,0,1-.06.11s0,0-.06,0,0,0-.1.08,0,0,0,.05,0,0,0,.06h0c-.05,0,0,0-.15,0,0,0,0,0,0,0s0,0,0,0,0,0,0,0,0,0,0,.05a.38.38,0,0,0-.13.09c0,.05,0,0,0,.05s0,0-.08.08-.12.12-.13.12-.12.17-.17.18-.07.07-.09.07,0,.05-.06.07-.11.15-.13.15-.07,0-.12.09-.08.06-.08.1-.06,0-.09.07a.19.19,0,0,1-.06.07v0C152.24,422.87,152.19,423,152.1,423Zm1.47-.63a.5.5,0,0,1,.07-.08h0c.08-.06,0-.05.1-.06v0s.05,0,.07-.06,0,0,0-.05.08-.11.14-.08.08-.08.09-.11a.05.05,0,0,1,0-.05s0,0,0,0l0,0,0,0s0,0,.06-.06,0,0,0-.05l0,0s0-.07.05-.05,0,0,.06,0v-.06c.07,0,.07,0,.07,0s0,0,.08-.08l.05-.06s0-.07.08-.07l.05,0s0,0,0,0l.08,0c.07,0,.07-.07.1-.09s0,.11,0,.15-.18.11-.25.2a3.6,3.6,0,0,1-.38.48,2.94,2.94,0,0,1-.24.25h0C153.69,422.34,153.78,422.25,153.57,422.35Z"/></g></g></svg>