<svg xmlns="http://www.w3.org/2000/svg" xmlns:xlink="http://www.w3.org/1999/xlink" viewBox="0 0 940.47 683.46"><defs><style>.cls-1,.cls-28,.cls-3,.cls-30,.cls-31,.cls-35,.cls-36,.cls-40,.cls-47,.cls-5,.cls-51,.cls-52,.cls-53,.cls-56,.cls-67,.cls-68{mix-blend-mode:multiply;}.cls-1{fill:url(#linear-gradient);}.cls-2,.cls-6{mask:url(#mask);}.cls-2{filter:url(#luminosity-noclip-5);}.cls-3{fill:url(#linear-gradient-2);}.cls-4,.cls-7{mask:url(#mask-2);}.cls-4{filter:url(#luminosity-noclip-6);}.cls-5{fill:url(#linear-gradient-3);}.cls-8{fill:none;}.cls-9{isolation:isolate;}.cls-10{clip-path:url(#clip-path);}.cls-11{fill:#afd9c9;}.cls-12{fill:#9bd1be;}.cls-13{fill:#40b093;}.cls-14{fill:#7bc5b3;}.cls-15{fill:#065e80;}.cls-16{fill:#6ebda4;}.cls-17{fill:#e6a44d;}.cls-18{fill:#ca8e45;}.cls-19{fill:#7c4948;}.cls-20{fill:#878f93;}.cls-21{fill:#db9c72;}.cls-22{fill:#8acad9;}.cls-23{fill:#79c5b3;}.cls-24{fill:#4367af;}.cls-25{fill:#7fc3ac;}.cls-26{fill:#343a67;}.cls-27{fill:#f39e7e;}.cls-28,.cls-53{opacity:0.72;}.cls-28{fill:url(#linear-gradient-7);}.cls-29{fill:#194656;}.cls-30{fill:url(#linear-gradient-8);}.cls-31{fill:#cbc5e3;}.cls-31,.cls-68{opacity:0.58;}.cls-32{fill:#e84536;}.cls-33{fill:#e289a9;}.cls-34{fill:#fcc148;}.cls-35{fill:#e1ddef;opacity:0.51;}.cls-36{fill:url(#linear-gradient-9);}.cls-37{fill:#ed6d54;}.cls-38{fill:#010101;}.cls-39{fill:#ec6357;}.cls-40{fill:url(#Dégradé_sans_nom_2);}.cls-41{fill:#1d4e61;}.cls-42{fill:#fcc14a;}.cls-43{fill:#ec785a;}.cls-44{fill:#266881;}.cls-45{fill:#faf9dd;}.cls-46{mask:url(#mask-5);}.cls-47{fill:url(#linear-gradient-10);}.cls-48{mask:url(#mask-6);}.cls-49,.cls-55{opacity:0.29;}.cls-49{fill:url(#linear-gradient-11);}.cls-50{fill:#e8a68f;}.cls-51{fill:url(#linear-gradient-12);}.cls-52{fill:url(#linear-gradient-13);}.cls-53{fill:url(#linear-gradient-14);}.cls-54{mask:url(#mask-7);}.cls-55{fill:url(#linear-gradient-15);}.cls-56{fill:#c3b9dc;}.cls-57{fill:#379b9f;}.cls-58{fill:#fff;}.cls-59{fill:#fed07b;}.cls-60{fill:#e6e4cd;}.cls-61{fill:#e8a48c;}.cls-62{fill:#4f5ca6;}.cls-63{fill:#4e859a;}.cls-64{fill:#30518b;}.cls-65{fill:#a0d5e0;}.cls-66{fill:#c4dee8;}.cls-67{fill:url(#Dégradé_sans_nom_2-2);}.cls-68{fill:#bbc8e8;}.cls-69{fill:#e85f5b;}.cls-70{fill:#a5d6e2;}.cls-71{fill:#f2949e;}.cls-72{filter:url(#luminosity-noclip-2);}.cls-73{filter:url(#luminosity-noclip);}</style><linearGradient id="linear-gradient" x1="537.88" y1="352.03" x2="537.88" y2="384.73" gradientUnits="userSpaceOnUse"><stop offset="0" stop-color="#fff"/><stop offset="1" stop-color="#010101"/></linearGradient><filter id="luminosity-noclip" x="510.94" y="-8535.41" width="46.32" height="32766" filterUnits="userSpaceOnUse" color-interpolation-filters="sRGB"><feFlood flood-color="#fff" result="bg"/><feBlend in="SourceGraphic" in2="bg"/></filter><mask id="mask" x="510.94" y="-8535.41" width="46.32" height="32766" maskUnits="userSpaceOnUse"><g class="cls-73"/></mask><linearGradient id="linear-gradient-2" x1="549.95" y1="313.55" x2="541.62" y2="343.88" gradientUnits="userSpaceOnUse"><stop offset="0" stop-color="#fff"/><stop offset="1"/></linearGradient><filter id="luminosity-noclip-2" x="519.64" y="-8535.41" width="30.21" height="32766" filterUnits="userSpaceOnUse" color-interpolation-filters="sRGB"><feFlood flood-color="#fff" result="bg"/><feBlend in="SourceGraphic" in2="bg"/></filter><mask id="mask-2" x="519.64" y="-8535.41" width="30.21" height="32766" maskUnits="userSpaceOnUse"><g class="cls-72"/></mask><linearGradient id="linear-gradient-3" x1="530.94" y1="340.63" x2="534.35" y2="349.8" xlink:href="#linear-gradient-2"/><clipPath id="clip-path"><rect class="cls-8" y="-10.58" width="958.52" height="693.09"/></clipPath><linearGradient id="linear-gradient-7" x1="775.45" y1="424.46" x2="770.21" y2="483.37" gradientUnits="userSpaceOnUse"><stop offset="0" stop-color="#efc2a8"/><stop offset="1" stop-color="#fff"/></linearGradient><linearGradient id="linear-gradient-8" x1="7875.92" y1="-348.86" x2="7870.07" y2="-283.07" gradientTransform="matrix(-1.04, 0.17, 0.16, 0.99, 8909.96, -743.67)" xlink:href="#linear-gradient-7"/><linearGradient id="linear-gradient-9" x1="602.04" y1="869.25" x2="595.53" y2="942.43" gradientTransform="matrix(0.99, 0.17, -0.17, 0.99, -8.5, -645.03)" xlink:href="#linear-gradient-7"/><linearGradient id="Dégradé_sans_nom_2" x1="457.89" y1="311.58" x2="466.94" y2="311.58" gradientUnits="userSpaceOnUse"><stop offset="0" stop-color="#efc2a8"/><stop offset="0.2" stop-color="#f3cfb9"/><stop offset="1" stop-color="#fff"/></linearGradient><mask id="mask-5" x="510.94" y="298.77" width="49.97" height="120.7" maskUnits="userSpaceOnUse"><rect class="cls-1" x="514.85" y="298.77" width="46.06" height="86.36"/></mask><linearGradient id="linear-gradient-10" x1="537.05" y1="359.7" x2="528.26" y2="360.16" xlink:href="#linear-gradient-7"/><filter id="luminosity-noclip-5" x="510.94" y="299.79" width="46.32" height="119.68" filterUnits="userSpaceOnUse" color-interpolation-filters="sRGB"><feFlood flood-color="#fff" result="bg"/><feBlend in="SourceGraphic" in2="bg"/></filter><mask id="mask-6" x="510.94" y="299.79" width="46.32" height="119.68" maskUnits="userSpaceOnUse"><g class="cls-2"><path class="cls-3" d="M544,419.47l2.16-52.07c2.88-1.85,9.92-11.62,11.06-15.78l-10-4.63s12.44-16.55,5.86-21.69c-5-3.91-13.7,3.87-17.6,7.84a1.18,1.18,0,0,1-2-.82c0-3.41,0-9.19.5-14.32.77-8.64,3.08-17.69-1.23-18.2-2.63-.31-4.4,7.07-6.24,16.7-2.18,11.39-4,25.84-5.07,34.09-.8,6-8.78,52.89-10.49,62.92C517.93,413.87,541.52,419.37,544,419.47Z"/></g></mask><linearGradient id="linear-gradient-11" x1="549.95" y1="313.55" x2="541.62" y2="343.88" gradientUnits="userSpaceOnUse"><stop offset="0" stop-color="#fff"/><stop offset="1" stop-color="#f6d1ba"/></linearGradient><linearGradient id="linear-gradient-12" x1="548.43" y1="351.1" x2="552.21" y2="355.95" xlink:href="#linear-gradient-7"/><linearGradient id="linear-gradient-13" x1="546.22" y1="344.8" x2="549.92" y2="350.05" xlink:href="#linear-gradient-7"/><linearGradient id="linear-gradient-14" x1="535.25" y1="341.53" x2="547.67" y2="336.67" xlink:href="#linear-gradient-7"/><filter id="luminosity-noclip-6" x="519.64" y="336.87" width="30.21" height="25.39" filterUnits="userSpaceOnUse" color-interpolation-filters="sRGB"><feFlood flood-color="#fff" result="bg"/><feBlend in="SourceGraphic" in2="bg"/></filter><mask id="mask-7" x="519.64" y="336.87" width="30.21" height="25.39" maskUnits="userSpaceOnUse"><g class="cls-4"><path class="cls-5" d="M548.89,341.81c2-2.2,1.23-4.76-6-4.94s-16.39,6.53-16.39,6.53c-1.43.71-2.91,1.36-4.34,1.92q-.25,1.94-.48,3.6c-.45,3.31-1.17,8-2,13.34H520c15-.53,19.8-18.75,19.8-18.75S547.55,343.26,548.89,341.81Z"/></g></mask><linearGradient id="linear-gradient-15" x1="530.94" y1="340.63" x2="534.35" y2="349.8" xlink:href="#linear-gradient-11"/><linearGradient id="Dégradé_sans_nom_2-2" x1="608.44" y1="268.86" x2="619.14" y2="268.86" xlink:href="#Dégradé_sans_nom_2"/></defs><title>accueil-appli</title><g class="cls-9"><g id="Calque_6" data-name="Calque 6"><g class="cls-10"><path class="cls-11" d="M793,476a101.85,101.85,0,0,1,24.21-51.6c21.19-23.66,40.21-30,44.09-25.51s-62.57,87.39-62.57,87.39Z"/><path class="cls-12" d="M812.16,476.74s16.37-26.29,48.74-39.63,54.27-10.5,56-4.21-104,56.78-104,56.78Z"/><path class="cls-13" d="M567,697.31c-14.92-7.17,11-13.46,17.55-31.39,3-8.21-3.11-20.74.92-31.54,3.32-8.87,16.58-15.58,20.48-25.74,3.5-9.13-2.39-21.66,1.5-31.53,3.65-9.27,17-15.75,21-25.42,3.8-9.36-1.82-22,2.18-31.5s17.51-15.63,21.61-25-1.08-22.25,3.15-31.44c4.39-9.54,18.16-15.32,22.57-24.3,4.71-9.61.17-22.6,4.83-31.27,5.21-9.73,19.41-14.63,24.44-22.79,6.19-10,4.6-22.91,9.16-30.49,7.38-12.24,16.44-17,29.24-17,11.87,0,22.34,4.57,29.75,17.23,4.44,7.59,3.3,20.42,9.28,30.51,4.86,8.2,18.94,13.29,23.94,23.06,4.47,8.72-.34,21.61,4.16,31.25,4.22,9,17.86,15,22,24.56,4,9.22-1.47,21.87,2.47,31.38s17.3,15.79,21.06,25.25-2.1,22,1.5,31.43c3.71,9.7,17,16.37,20.41,25.67,3.67,9.89-2.5,22.3.81,31.45,3.67,10.19,16.78,17.09,19.9,26,3.8,10.83-2.57,23.22.24,31.45,6.13,18,31.85,24.57,16.89,31.56-11.8,5.51-15.66-8.6-29-8.65s-13.37,9-26.68,9-13.28-9.12-26.59-9.17-13.37,9-26.68,9-13.27-9.12-26.59-9.17-13.36,9-26.68,9-13.27-9.12-26.59-9.17-13.36,9-26.68,9S689.3,689.25,676,689.2s-13.37,9-26.69,9S636,689,622.7,689s-12.52,6.07-25.48,8.84C582.36,701,578.71,702.94,567,697.31Z"/><path class="cls-14" d="M776.74,423.87c1.63,19.86-6.9,22.13-6.86,33.95-.2,13.85,7.38,14.95,12.24,27.22,9.66,24.1-3.51,38-3.81,46.89.39,13.05,5.4,11.1,11.23,24,10.86,23.72-1.52,45.18-2.19,47.21-4.13,12,10.12,15.13,14,37.52a59,59,0,0,1-.65,25c-3.7,13-6.07,11.57-5.18,18.41,1.62,12.48-6.06,23.93-17.16,25.57s-21.42-7.14-23-19.62c-2.79-21.45,9.9-37.87,10.2-39.16,2-12-9.8-15.62-10.52-37.28-2.24-27.28,14.19-30.59,10.16-45.29-1-3.65-4.9-8.05-7.56-15.21a50.3,50.3,0,0,1-2.88-15.57c-1.07-25,14.41-26.92,10-44.83-2-7.67-12.36-15.65-10-36.45,1.65-16,10-17.22,10.46-31.75,0-.06.16-6.91,6-6.6A6.21,6.21,0,0,1,776.74,423.87Z"/><path class="cls-15" d="M775.34,685.79h0a.48.48,0,0,1-.48-.48c-.55-9.46,2-14.41,4.4-19.2s4.82-9.49,4.29-18.64-3.4-13.46-6.43-18-6-9.12-6.6-18.57,2-14.41,4.41-19.2,4.82-9.48,4.28-18.63-3.39-13.46-6.42-18-6-9.11-6.6-18.57,2-14.4,4.4-19.19,4.82-9.49,4.29-18.64-3.4-13.45-6.42-18-6.06-9.12-6.61-18.57,2-14.4,4.41-19.19,4.82-9.49,4.28-18.63a.5.5,0,0,1,.43-.54h0a.49.49,0,0,1,.48.48c.55,9.46-2,14.41-4.4,19.2s-4.83,9.48-4.29,18.63,3.39,13.46,6.42,18,6.05,9.11,6.6,18.56-2,14.41-4.4,19.2-4.82,9.48-4.29,18.63,3.4,13.46,6.42,18,6.06,9.11,6.61,18.57-2,14.41-4.41,19.2-4.82,9.48-4.28,18.63,3.39,13.46,6.42,18,6,9.11,6.6,18.57-2,14.41-4.4,19.2-4.82,9.48-4.29,18.63A.49.49,0,0,1,775.34,685.79Z"/><path class="cls-16" d="M733.1,668.49a21.32,21.32,0,0,0,5.42,14.23h65.13a22.49,22.49,0,0,0-9.1-35.6c0-.54.06-1.1.06-1.65a22.67,22.67,0,1,0-45.34,0c0,.74,0,1.48.1,2.2A21.47,21.47,0,0,0,733.1,668.49Z"/><path class="cls-17" d="M715.4,592.38c-9.66,11.87-16.62,9.81-23.62,23-2.07,3.89-6.68,12.63-4.46,23.23a32.3,32.3,0,0,0,4.48,10.86c.76-1.5,6.6-13,11.28-16.56a6.08,6.08,0,0,1,3.21-1.4c2.64-.23,4.78,1.71,5.56,2.39,7,6,13.57,4,16.89,9.47,3.83,6.3-.71,15.94-4.15,20.68a28,28,0,0,1-14.34,10,53.81,53.81,0,0,0,24.17,9.29c3.41.39,27.64,2.88,37.82-11.79,4.64-6.69,5.09-15.13,5.29-18.84.49-9.19-2.3-11.79-1.09-18.69,1.43-8.11,6.46-11.23,11.6-18.07,1.21-1.61,14.66-20,11.34-37.29-3.74-19.49-28-33.78-48.14-32.64-3.82.22-7.75.44-12.14,2.74C724.3,556.52,730.2,574.2,715.4,592.38Z"/><path class="cls-18" d="M793.78,585.33c-5.76-15.76-19.27-26.77-34.59-28.1-15-1.3-25.86,7.14-28.48,9.29l.86-1.88c2.75-2.22,13.36-10.26,27.91-9.1,15.33,1.22,28.93,12.15,34.86,27.91C794.16,584.08,794,584.7,793.78,585.33Z"/><path class="cls-18" d="M750.63,594.3c9.62,2.45,17.26,13,14.21,22.72-2.73,8.75-12.88,13.18-21.24,11.55-10.43-2-18.66-13.58-15.21-23.56C731.35,596.42,741.91,592.08,750.63,594.3Z"/><path class="cls-19" d="M749.12,600.54c6.09,1.55,10.92,8.2,9,14.37-1.73,5.54-8.15,8.34-13.44,7.31-6.59-1.28-11.8-8.59-9.62-14.9C736.92,601.88,743.6,599.13,749.12,600.54Z"/><path class="cls-18" d="M746,670.79l3.38-9.67L730,651.8a30.63,30.63,0,0,1-1.41,4.9,30.2,30.2,0,0,1-2.6,5.28Z"/><path class="cls-19" d="M813.4,417.59a7.5,7.5,0,0,0-8.79,3.64,10.77,10.77,0,0,0-4.78-.65c-6.12.6-11.51,6.87-13.9,15.67a12,12,0,0,1-1.36-2.08,2.25,2.25,0,0,0,.23-2.31,2.29,2.29,0,1,0-1.7,3.22,13.39,13.39,0,0,0,2.36,3.1l-2.82,11.91a11.19,11.19,0,0,1-2.52-3.2,2.25,2.25,0,0,0,.23-2.31,2.29,2.29,0,1,0-4.13,2,2.27,2.27,0,0,0,2.43,1.23,13,13,0,0,0,3.53,4.22q-1.33,5.67-2.68,11.33a11.26,11.26,0,0,1-3-3.68,2.25,2.25,0,0,0,.23-2.31,2.29,2.29,0,1,0-4.13,2,2.25,2.25,0,0,0,2.43,1.23,13.68,13.68,0,0,0,1.56,2.33,14.37,14.37,0,0,0,2.46,2.34h0c-.42,1.76-.83,3.53-1.25,5.3l2.76,1.19.06,0-41.19,123,20.21,6.9,41.43-123,0,0,1.42.49c1-1.74,2-3.49,3-5.24v.31a13,13,0,0,0,5.44-1.11,2.27,2.27,0,1,0,.68-3.57,2.25,2.25,0,0,0-1.26,2,11.24,11.24,0,0,1-4,.93l5.74-10a12.74,12.74,0,0,0,5.4-1.1,2.3,2.3,0,1,0-.58-1.62,11.44,11.44,0,0,1-3.77.91l4.35-7.56c.6-.92,1.16-1.84,1.69-2.75a13.15,13.15,0,0,0,4.67-1,2.26,2.26,0,0,0,2.66.55,2.29,2.29,0,1,0-2-4.13,2.26,2.26,0,0,0-1.26,2,11.43,11.43,0,0,1-3.05.85c5.23-9.63,6.38-17.75,3-20.93a6.74,6.74,0,0,0-4.86-1.58A7.5,7.5,0,0,0,813.4,417.59Zm-.73,21.82-12.23,35-4.91-1.71,11.37-35.27c.9-2.9,3.46-4.12,4.77-3.57S813.81,436.83,812.67,439.41Zm-10.92-3.82-12.24,35-4.91-1.72L796,433.56c.91-2.89,3.47-4.11,4.78-3.56S802.89,433,801.75,435.59Z"/><path class="cls-20" d="M762.27,593.88l.48-1.42-20.17-7.06-.48,1.42Z"/><path class="cls-20" d="M765,585.85c.15-.46.3-.92.46-1.38l-20.18-7.1c-.15.47-.31,1-.47,1.42Z"/><path class="cls-20" d="M767.86,577.29l.48-1.42-20.2-7.08-.5,1.47Z"/><path class="cls-20" d="M770.84,568.46c.15-.47.31-.94.47-1.41L751.09,560c-.15.47-.31.94-.47,1.42Z"/><path class="cls-20" d="M753.31,553.35l20.23,7.08L774,559l-20.24-7.08C753.62,552.4,753.47,552.88,753.31,553.35Z"/><path class="cls-20" d="M776.43,551.86c.15-.47.31-.94.47-1.41l-20.25-7.09c-.16.47-.31.95-.47,1.42Z"/><path class="cls-20" d="M759.1,536l20.28,7.09.47-1.41-20.26-7.09C759.42,535.07,759.26,535.54,759.1,536Z"/><path class="cls-20" d="M782.08,535.08l.48-1.42-20.28-7.09L761.8,528Z"/><path class="cls-20" d="M785,526.51l.48-1.41L765.15,518l-.48,1.42Z"/><path class="cls-20" d="M783.35,516.07a1.82,1.82,0,0,1,.83-.33,1.8,1.8,0,0,1,.52,0,16.07,16.07,0,0,1-3.52-1.6,14.52,14.52,0,0,1-1.26-.85l-11.82-4.13c-.15.47-.31.94-.47,1.41Z"/><path class="cls-20" d="M776.65,504.76a4.2,4.2,0,0,1,.57-.47,4.41,4.41,0,0,1,.94-.48l-7.37-2.68c-.15.47-.31.94-.47,1.41Z"/><path class="cls-20" d="M785.82,498.39c.6,0,1.24-.11,1.91-.22.46-.07.89-.14,1.31-.23l-15.37-5.4-.48,1.44Z"/><path class="cls-20" d="M796.12,493.35l.49-1.41-20.35-7.13-.48,1.42Z"/><path class="cls-20" d="M779.12,476.26c-.16.47-.32.94-.47,1.41L799,484.79l.48-1.42Z"/><path class="cls-21" d="M720.06,609.3c-.75,1.2-1.46,2.28-2.17,3.31a.7.7,0,0,1-.7.38.52.52,0,0,1-.42-.36.54.54,0,0,1,.13-.58l.18-.18.24,0c.67-1,1.33-2,2-3.08Zm-2.94,3.45.14-.4.23.32a.27.27,0,0,0,.09-.31.3.3,0,0,0-.25-.21Z"/><path class="cls-22" d="M177.43,530.54a86.51,86.51,0,0,0-39.89-27.37c-25.68-8.22-42.32-4.66-43.24.27s83.35,37.09,83.35,37.09Z"/><path class="cls-11" d="M71.59,410.91c6.69-22.88,71.08-7.59,91.93,35.31s37.53,129.9,37.53,129.9l-12.36,1.72s-23.29-118.14-50-129.31S64.6,434.78,71.59,410.91Z"/><path class="cls-13" d="M447,577.94a52.69,52.69,0,0,0-24.88-44.79,23.18,23.18,0,0,1-10.57-24.39,39.82,39.82,0,0,0,.86-8.23,39.43,39.43,0,0,0-30.82-38.48,9.47,9.47,0,0,1-7.37-10.15,27.75,27.75,0,0,0,.06-5.81c-1.42-10.9-7.56-16.84-16.42-21.7a11.32,11.32,0,0,1-5.49-12.79,34.66,34.66,0,0,0,1.06-7.76c.54-20.08-10.28-28.36-17.8-32.09a14.31,14.31,0,0,1-7.42-9.12A24.11,24.11,0,0,0,281,366.32l0,.27a7.37,7.37,0,0,1-7.74,6.66,30.77,30.77,0,0,0-3.95.07,30.15,30.15,0,0,0-27.48,27.81,30.93,30.93,0,0,0,.29,6.83,12.84,12.84,0,0,1-5.8,12.9,44.4,44.4,0,0,0-18,22.4,11.9,11.9,0,0,1-8,7.38,39.17,39.17,0,0,0-26.14,51.44,13,13,0,0,1-7.23,16.63,48.48,48.48,0,0,0-24.25,67.38,25.27,25.27,0,0,1-5.19,30.59,59.65,59.65,0,0,0-19.74,44.42v21.81H452V661.1c0-8.84-5.58-17.22-12.18-24.77a24.11,24.11,0,0,1-1.64-29.25A52.46,52.46,0,0,0,447,577.94Z"/><path class="cls-14" d="M462,667.2a23.27,23.27,0,0,0,5.91,15.52h71A24.52,24.52,0,0,0,529,643.9c0-.59.06-1.2.06-1.8a24.72,24.72,0,1,0-49.44,0,23.81,23.81,0,0,0,.12,2.4A23.4,23.4,0,0,0,462,667.2Z"/><path class="cls-23" d="M289.23,429.12c-.66,19.91-9.4,21.18-10.71,32.93-1.79,13.74,5.61,15.7,9,28.45,6.83,25-7.84,37.3-9.16,46.14-1.11,13,4.09,11.65,8.4,25.15,8.07,24.8-6.7,44.7-7.59,46.65-5.48,11.45,8.32,16.19,9.6,38.86a59,59,0,0,1-3.51,24.81c-5.17,12.5-7.36,10.8-7.26,17.69.18,12.59-8.77,23.08-20,23.44s-20.46-9.55-20.64-22.14c-.31-21.62,14.18-36.48,14.63-37.73,3.4-11.73-8-16.64-6.18-38.24.91-27.36,17.6-28.76,15.29-43.83-.57-3.74-4-8.55-5.77-16a50.29,50.29,0,0,1-1.08-15.79c1.81-25,17.41-25.09,15.12-43.38-1.09-7.85-10.48-17-5.72-37.36,3.48-15.75,11.93-16,14-30.34,0-.05.95-6.85,6.67-5.87A6.22,6.22,0,0,1,289.23,429.12Z"/><path class="cls-24" d="M257.8,689.15h0a.5.5,0,0,1-.43-.54c.54-9.45,3.61-14.09,6.58-18.57s5.88-8.86,6.4-18-1.83-13.76-4.32-18.64-5-9.74-4.43-19.2,3.61-14.09,6.58-18.57,5.88-8.86,6.4-18-1.83-13.76-4.32-18.64-5-9.75-4.43-19.2,3.61-14.09,6.58-18.57,5.87-8.86,6.39-18-1.82-13.75-4.31-18.63-5-9.75-4.43-19.2,3.61-14.09,6.57-18.57,5.88-8.86,6.4-18a.48.48,0,0,1,.48-.48h0a.49.49,0,0,1,.43.53c-.54,9.45-3.61,14.09-6.58,18.57s-5.88,8.86-6.39,18,1.82,13.76,4.31,18.64,5,9.74,4.43,19.2-3.61,14.08-6.58,18.56-5.87,8.87-6.39,18,1.82,13.76,4.31,18.64,5,9.74,4.43,19.2-3.61,14.08-6.58,18.56-5.87,8.87-6.39,18,1.83,13.76,4.31,18.64,5,9.75,4.43,19.2-3.6,14.09-6.57,18.57-5.88,8.87-6.4,18A.5.5,0,0,1,257.8,689.15Z"/><path class="cls-25" d="M155.65,673.5a13.83,13.83,0,0,0,3.49,9.18h42a14.48,14.48,0,0,0-5.86-22.94c0-.35,0-.71,0-1.07a14.61,14.61,0,0,0-29.21,0,13.24,13.24,0,0,0,.07,1.42A13.83,13.83,0,0,0,155.65,673.5Z"/><path class="cls-15" d="M288.28,594.62c-14.16-4.81-28,11.94-38.19,23.82-3.89,4.35-.46,7.14-1.76-43.17.53-.43,7.06-9.36,16.9-11.1,15.18-2.73,18.08-14.65,5.89-13.71-6.18.69-9.06,4.69-12,8.16-1.42,1.64-10.17,9.81-10.32,8.74-3.61-25.22,4-30.31,3.68-43.6-.06-11.8-5.66-16.8-10.21-7.84-6.83,13.7,2.23,22.26.65,48.63-16.6-15.5-15.94-19.87-24.75-22.5-9.37-2.55-12,2.47-5.29,9.19,9.37,9.37,14.56,1.88,29.73,20.55.09.12,0,18.09,0,30a108.93,108.93,0,0,0-13.13-11.46c-10.88-8.61-17.38-14.18-27.89-15.67-11.36-1.48-16.07,3-3.2,10.11,17.57,9.26,26,1,44.22,25.21V643c-16.28-15.29-15.77-19.66-24.49-22.26-9.38-2.56-12,2.47-5.29,9.18,9.6,9.6,14.45,1.76,29.73,20.56.08.11,0,21.24,0,32.08h5.67c.15-55.33-.23-52,.19-52.86,8.12-18.37,24.7-20.56,28.39-22.11,3-1.09,12.36-5.78,13.39-8.81A3.23,3.23,0,0,0,288.28,594.62Z"/><path class="cls-26" d="M724.53,596.59s10.21,76.56,14.18,133.09H673.49l-14.17-101L658.18,630l-9.83,99.71h-65L576,630.42Z"/><path class="cls-27" d="M759.74,424l11.91-3.83s9.64,17.3,12.76,36.58-2.27,26.51-7.23,28.5S759.74,424,759.74,424Z"/><path class="cls-28" d="M760.77,423.09l11.91-3.83s9.64,17.29,12.76,36.57-2.27,26.52-7.23,28.5S760.77,423.09,760.77,423.09Z"/><path class="cls-29" d="M612.84,234.17c-14,1.75-19.54,9-19.54,9s-29.46-21.88-19-41.71,28.59-11.38,39.67-3.21,12.45,7.1,27.62,6.22,25.47,10.21,25.47,25.67,12.25,31.7-8.75,51.83C633.67,305.66,612.84,234.17,612.84,234.17Z"/><path class="cls-27" d="M668,368.52c-2.81,4.36-6.16,8.82-10.6,11.87-7.07,1.19-14,2.66-20.64,3.65-6.49-1.21-12.19-4.13-18-8.15-10.43-7.22-19-16.7-27.38-26.44,22.2-11.84,27.71-8.32,28.55-17.94.92-10.64-11-64.33-11-64.33L656,259.89s10.8,53.16,13.76,61.83c1.79,5.24,8.83,7.9,18.69,10.4C682.92,344.82,675.52,356.81,668,368.52Z"/><path class="cls-30" d="M619.45,334.11a15.64,15.64,0,0,0,.43-2.6c.92-10.64-11-64.33-11-64.33L656,259.89s10.8,53.16,13.76,61.83a8.86,8.86,0,0,0,2.51,3.68Z"/><path class="cls-31" d="M623.45,314a32.31,32.31,0,0,1-5.41.5c-3.43-18.41-7-35.57-7-35.57l31.83-5C645,294.07,638.47,311.49,623.45,314Z"/><path class="cls-32" d="M549.39,442.51s-2.7-60.16,14.59-75.76,34.74-21.5,38.71-23.48,13.33-6,13.33-6,6.24,11.06,26.08,8.51,33.18-19.28,33.18-19.28,11.34,5.1,19.28,6.8,40.55,4.82,53.59,23.82,29.49,64.08,29.49,64.08-9.93,6.81-28.07,13.33S549.39,442.51,549.39,442.51Z"/><path class="cls-33" d="M641,352.06c10-.93,26.36-4.05,40.72-22.86-3.7-1.44-6.41-2.66-6.41-2.66S662,343.27,642.1,345.82,616,337.31,616,337.31s-2.65,1.13-5.72,2.48C618.05,351.27,631.23,353,641,352.06Z"/><path class="cls-34" d="M485.83,288.09C494.46,282.84,497.45,269,493,262c-3.29-5.21-11-6.7-11.51-11.92-1-10.08-14.39-19.74-26.11-16.25-15.1,4.5-20.9-2-27.45-11.51-7.05-10.21-10.8-20.36-35.17-20.36s-30.84-4-33.31-16-22.51-25-45-14.49S283.6,191.75,271,184.35s-25-17.58-39.17-7.09-8.63,36.7,7.1,39.17,4.62,19.74-1.55,30.22,2.47,29.61,23.45,26.22,24.36,3.08,29,14.5,21.59,13.88,30.84,9.25,20.05-7.71,30.54,1.54,13.57,14.5,28.37,11.1,17.17-.82,24.26,4.73,23.86,2.37,23.86,2.37Z"/><path class="cls-35" d="M450,302.87,453.13,291l-41.53-8.63c-20.56-13.57-25.91-11.11-41.13-9.87S360.19,256.83,345.8,249s-19.74,5.34-33.72,2.46-7.4-16-25.5-18.09c-17.09-1.94-21.35,10.41-45,5.9-1.45,2.62-3,5.15-4.28,7.36-6.16,10.49,2.47,29.61,23.45,26.22s24.36,3.08,29,14.5,21.59,13.88,30.84,9.25,20.05-7.71,30.54,1.54,13.57,14.5,28.37,11.1,16.76-1.64,23.85,3.91,23,4.52,23,4.52Z"/><path class="cls-27" d="M449.67,383.14c-.8-11.42,12.6-71.73,12.6-71.73l-47.88-7.55S402.12,363.59,399,372.92s-20.8,11.17-41.93,17.19a40.33,40.33,0,0,0-8.93,3.87c1.74,7.56,5,14.83,8.38,21.73,3.71,7.58,7.75,15,11.39,22.59,18.94,13.23,38.55,9.39,58.83,12.4,6.84,1,25.73-8.79,31.67-7.4,10.2-13,14.18-25.42,22.69-39.56C456.48,389.35,450.42,393.86,449.67,383.14Z"/><path class="cls-36" d="M450.06,385.93a16.89,16.89,0,0,1-.39-2.79c-.8-11.42,12.6-71.73,12.6-71.73l-47.88-7.55S402.12,363.59,399,372.92a9.87,9.87,0,0,1-2.6,4Z"/><path class="cls-31" d="M422.09,323.66c1.41,8.87,9,33.93,30.17,38.59,1.92-10.61,4.12-21.89,6-31.12Z"/><circle class="cls-27" cx="422.48" cy="294.8" r="16.64" transform="translate(-84.71 385.08) rotate(-45)"/><circle class="cls-37" cx="422.48" cy="294.8" r="8.77" transform="translate(-73.59 433.76) rotate(-50.56)"/><path class="cls-27" d="M481.53,315.9c-8,22-20.94,37.4-43.2,29.14-12.75-4.73-23.46-28.45-15.44-50.49s17.49-36.72,44.23-29.08C493,272.87,489.56,293.87,481.53,315.9Z"/><path class="cls-38" d="M450,298.21a1.37,1.37,0,1,1-.82-1.76A1.38,1.38,0,0,1,450,298.21Z"/><path class="cls-39" d="M481.43,315.62a7.29,7.29,0,1,0-7,12.31,7.08,7.08,0,0,0,1.76.27,56.25,56.25,0,0,0,5.19-12.43Z"/><path class="cls-39" d="M446.34,310.69a7.29,7.29,0,1,1-4.36-9.35A7.29,7.29,0,0,1,446.34,310.69Z"/><path class="cls-40" d="M461.56,304.23,464,316.54a2,2,0,0,1-2.49,2.31l-6.52-1.77Z"/><path class="cls-41" d="M417.3,305.69a1.4,1.4,0,1,1-.84-1.8A1.4,1.4,0,0,1,417.3,305.69Z"/><path class="cls-31" d="M406.28,290.6c12.34,7.72,21.46,4.63,28.25,2.16s8.94-19.43,18.5-20.66,10.54,6.34,20.72,5.55c11.87-.93,13.21,7.71,13.21,7.71s.67-10-15.06-19-34-12.18-45.7-3.54c-3.85,2.83-3.45,10.9-7.66,13.57C408.05,283.05,406.28,290.6,406.28,290.6Z"/><path class="cls-42" d="M409.7,281c12.33,7.71,17.27,10.18,24.05,7.71s8.95-19.43,18.51-20.66,10.16,6.52,20.36,7.09c10.89.62,13.57,6.17,13.57,6.17S493,269,477.24,260.07s-40.09-9.87-51.81-1.23S409.7,281,409.7,281Z"/><path class="cls-43" d="M503.85,683.47H291s30-124.61,60.87-186.71c30.22,7.51,75.15,9.46,105.28,1.24C457.18,498,501.8,614.79,503.85,683.47Z"/><path class="cls-44" d="M476.92,471.27C475.59,482.41,457.18,498,457.18,498c-30.13,8.22-75.06,6.27-105.28-1.24,0,0-3.5-27.14-10.08-42.35a45.73,45.73,0,0,0-12.13-24.27c-6.08-6.32-10.18-8-12.59-8.29a1.19,1.19,0,0,1-.8-1.94c3.73-4.52,11.31-13.41,18.33-18.66s17.17-10.5,22.49-12.16a1.32,1.32,0,0,1,1.7,1.13c.81,8.07,5.51,45.29,23.92,50.51,20.67,5.86,79-1.85,79-1.85S479,454,476.92,471.27Z"/><path class="cls-29" d="M317.1,421.85c2.41.28,6.51,2,12.59,8.29a45.76,45.76,0,0,1,12.13,24.27c.25.58.5,1.17.74,1.79,1.2-1.28,2.47-2.68,3.79-4.21,8.48-9.87,1.49-22.57-3.4-27.14a39.06,39.06,0,0,0-22.12-10.26c-1.8,2-3.36,3.9-4.53,5.32A1.19,1.19,0,0,0,317.1,421.85Z"/><path class="cls-31" d="M350.09,461.67c-2-9.15-4.21-16.23-4.21-16.23l-6.7-.53a39.83,39.83,0,0,1,2.64,9.5A121.55,121.55,0,0,1,348,475.07,45.83,45.83,0,0,0,350.09,461.67Z"/><path class="cls-45" d="M451.35,388.73c-6.57,4.73-15.29,7.28-25.43,7.28-11.32,0-24.85-5.41-31.8-17.33-.33.21-.68.43-1,.63,6.43,10.9,19,17.93,32.84,17.93,10.47,0,19.49-2.66,26.28-7.6A6.08,6.08,0,0,1,451.35,388.73Z"/><path class="cls-29" d="M368.86,439.65c10.64,10.64,25,10.8,47,9.41,17.92-1.13,42.07-4.19,50.47-5.3a51.46,51.46,0,0,0-4.67-4.88s-58.29,7.71-79,1.85c-18.41-5.22-23.11-42.45-23.92-50.51a1.32,1.32,0,0,0-1.7-1.13,49.74,49.74,0,0,0-5.25,2.08C354.77,408.06,358.92,429.71,368.86,439.65Z"/><path class="cls-27" d="M510.73,413.72s8.64-47.91,10.7-63.13c1.11-8.24,2.89-22.7,5.07-34.09,1.84-9.63,3.61-17,6.24-16.7,4.31.51,2,9.56,1.23,18.2-.46,5.13-.52,10.91-.5,14.32a1.18,1.18,0,0,0,2,.82c3.9-4,12.6-11.75,17.6-7.84,6.58,5.14-5.86,21.69-5.86,21.69l10,4.63c-1.19,4.69-8.75,14.35-11.06,15.78l-2,51.66Z"/><g class="cls-46"><path class="cls-47" d="M544,419.47l2.16-52.07c2.88-1.85,9.92-11.62,11.06-15.78l-10-4.63s12.44-16.55,5.86-21.69c-5-3.91-13.7,3.87-17.6,7.84a1.18,1.18,0,0,1-2-.82c0-3.41,0-9.19.5-14.32.77-8.64,3.08-17.69-1.23-18.2-2.63-.31-4.4,7.07-6.24,16.7-2.18,11.39-4,25.84-5.07,34.09-.8,6-8.78,52.89-10.49,62.92C517.93,413.87,541.52,419.37,544,419.47Z"/></g><g class="cls-48"><path class="cls-49" d="M544,419.47l2.16-52.07c2.88-1.85,9.92-11.62,11.06-15.78l-10-4.63s12.44-16.55,5.86-21.69c-5-3.91-13.7,3.87-17.6,7.84a1.18,1.18,0,0,1-2-.82c0-3.41,0-9.19.5-14.32.77-8.64,3.08-17.69-1.23-18.2-2.63-.31-4.4,7.07-6.24,16.7-2.18,11.39-4,25.84-5.07,34.09-.8,6-8.78,52.89-10.49,62.92C517.93,413.87,541.52,419.37,544,419.47Z"/></g><path class="cls-27" d="M556.38,342.78c3.09,1.74,4.63,6.17,1.75,9S543,362.1,541.06,360.77s-2-5.76.72-7.3S556.38,342.78,556.38,342.78Z"/><path class="cls-50" d="M544.3,358.1c-.81-.73-3.41.77-4.28,1.3a3.1,3.1,0,0,0,1,1.37c.62.42,2.25,0,4.28-.92A3.55,3.55,0,0,0,544.3,358.1Z"/><path class="cls-51" d="M556.38,342.78c3.09,1.74,4.63,6.17,1.75,9S543,362.1,541.06,360.77s-2-5.76.72-7.3S556.38,342.78,556.38,342.78Z"/><path class="cls-27" d="M552.37,335.89c2.78.51,5.55,1,6.27,4.32s-13.67,15.52-18,16.45-5.24-5.86-.51-9S552.37,335.89,552.37,335.89Z"/><path class="cls-50" d="M541.73,352.8c-.78-.83-4,1.19-4.6,1.61a2.81,2.81,0,0,0,3.52,2.25,10.14,10.14,0,0,0,2.5-1.09A4.76,4.76,0,0,0,541.73,352.8Z"/><path class="cls-52" d="M552.37,335.89c2.78.51,5.55,1,6.27,4.32s-13.67,15.52-18,16.45-5.24-5.86-.51-9S552.37,335.89,552.37,335.89Z"/><path class="cls-27" d="M553.59,325.79c4.44,4.93.53,11.43-6.05,17.5s-8.94,5.24-11,4.11,2.26-6,6.68-10.55S553.59,325.79,553.59,325.79Z"/><path class="cls-50" d="M544,346.22c-.4-.8-1.46-2.61-2.76-2.31s-3.75,3.19-4.19,3.75C538.55,348.41,540.39,348.73,544,346.22Z"/><path class="cls-53" d="M553.59,325.79c4.44,4.93.53,11.43-6.05,17.5s-8.94,5.24-11,4.11,2.26-6,6.68-10.55S553.59,325.79,553.59,325.79Z"/><path class="cls-27" d="M548.89,341.81c2-2.2,1.23-4.76-6-4.94s-16.39,6.53-16.39,6.53c-1.43.71-2.91,1.36-4.34,1.92q-.25,1.94-.48,3.6c-.45,3.31-1.17,8-2,13.34H520c15-.53,19.8-18.75,19.8-18.75S547.55,343.26,548.89,341.81Z"/><g class="cls-54"><path class="cls-55" d="M548.89,341.81c2-2.2,1.23-4.76-6-4.94s-16.39,6.53-16.39,6.53c-1.43.71-2.91,1.36-4.34,1.92q-.25,1.94-.48,3.6c-.45,3.31-1.17,8-2,13.34H520c15-.53,19.8-18.75,19.8-18.75S547.55,343.26,548.89,341.81Z"/></g><path class="cls-50" d="M549.25,338.47a6.94,6.94,0,0,0-3.91-1.42,1.8,1.8,0,0,0,1.33,2.28,5.82,5.82,0,0,0,2.46.16Z"/><path class="cls-56" d="M444.05,288.35c.68-.12,1.35-.21,2-.3a20.17,20.17,0,0,1,2.06-.05,16.46,16.46,0,0,1,4.11.65,14.07,14.07,0,0,1,3.76,1.82,9.92,9.92,0,0,1,2.9,3,.28.28,0,0,1-.1.39.29.29,0,0,1-.35-.05l0,0a13,13,0,0,0-3-2.4,16.86,16.86,0,0,0-3.53-1.56,17.93,17.93,0,0,0-1.89-.46c-.63-.15-1.28-.2-1.93-.29s-1.31-.08-2-.14-1.32,0-2,0h0a.28.28,0,0,1-.27-.29A.31.31,0,0,1,444.05,288.35Z"/><path class="cls-56" d="M471,298.09c.6-.12,1.22-.19,1.84-.28s1.24-.08,1.87-.07a17.46,17.46,0,0,1,3.73.46,13.2,13.2,0,0,1,3.53,1.37,8.84,8.84,0,0,1,2.9,2.48.28.28,0,0,1-.07.39.27.27,0,0,1-.35,0l0,0a12.2,12.2,0,0,0-2.95-1.87,18.33,18.33,0,0,0-3.32-1.14l-.86-.19-.87-.15c-.58-.12-1.18-.14-1.77-.23s-1.19-.07-1.79-.12-1.2,0-1.81-.05h0a.29.29,0,0,1-.27-.3A.28.28,0,0,1,471,298.09Z"/><path class="cls-37" d="M462.16,325.77c-.27,1.08-4.61,2.17-9.05.81s-7.36-4.44-7.05-5.75c.38-1.58,3.22,2.48,7.67,3.85S462.57,324.15,462.16,325.77Z"/><path class="cls-57" d="M724.58,391.55l-161.1,29.3-161.09-29.3a8.2,8.2,0,0,0-9.66,8.06V597.48a8.19,8.19,0,0,0,6.72,8.06l164,29.83h0l.22,0v-.08l163.81-29.79a8.19,8.19,0,0,0,6.73-8.06V399.61A8.2,8.2,0,0,0,724.58,391.55Z"/><polygon class="cls-58" points="563.53 625.93 403.4 597.11 403.4 404.28 563.45 433.39 563.53 625.93"/><polygon class="cls-59" points="536.84 598.53 480.15 588.32 480.14 535.04 536.82 545.28 536.84 598.53"/><path class="cls-29" d="M536.79,461.94l-108.48-19.7v-7.61l108.48,19.7Zm0,14.41L428.31,456.67v7.62L536.8,484Zm0,22L428.32,478.72v7.61L536.81,506Zm0,22L428.32,500.76v7.62L536.82,528Zm-67.07,12.76-41.42-7.49v7.62l41.42,7.48Zm0,23.24-41.43-7.48v7.62L469.75,564Zm0,22.43-41.43-7.47V579l41.43,7.46Z"/><polygon class="cls-60" points="723.57 597.11 563.48 626.22 563.48 433.39 723.57 404.28 723.57 597.11"/><polygon class="cls-34" points="668.13 490.17 588.93 504.57 588.93 454.24 668.13 439.84 668.13 490.17"/><path class="cls-29" d="M696.86,507.25,588.37,527v-7.62l108.49-19.73Zm0,14.44L588.37,541.42V549L696.86,529.3Zm0,22L588.37,563.47v7.61l108.49-19.72Zm0,22L588.37,585.52v7.62l108.49-19.73Zm0-130.81L677,438.59V445l19.85-3.61Z"/><path class="cls-27" d="M736.81,382.3c10.1,1.57,15.69,4.35,21.93,18.53,6,13.59,18.92,41.45,22.74,59.18s2.9,27-10.56,27.53c-15,.62-26.27-31.59-28.62-46.71-2.47-15.81-5.68-30.17-5.68-30.17a79.08,79.08,0,0,1-11.72-1.89c-5.49-1.42-10.52,3.29-12.3.56s4.07-7,11.79-6.91a19,19,0,0,0-9.17.07c-5.36,1.25-7.12,1.48-7.69-.57s6.25-5.47,11-5.59,7.15-.4,7.15-.4-8.49-1.64-12.76.34-7.71,4.14-8.81,1.89,4.79-6.81,11.34-8.36,8-1,8-1-8.14-.6-12.49,1.2-6.19,3.36-7.63,1.59,2.25-5.37,8.79-7.68S725,380.47,736.81,382.3Z"/><path class="cls-61" d="M710.62,434.09V434a1.87,1.87,0,0,0-.55-1.56,1.39,1.39,0,0,0-.31-.23c-1.51,1-2.45,2-2.23,2.8h0a2.83,2.83,0,0,0,.28.2,1,1,0,0,0,.18.23,1.42,1.42,0,0,0,2,.06A2.34,2.34,0,0,0,710.62,434.09Z"/><path class="cls-61" d="M712.36,441.94a1.79,1.79,0,0,0,2.38-.5,2.12,2.12,0,0,0-.58-2.64l-.2-.16C712.67,439.71,712.05,440.9,712.36,441.94Z"/><path class="cls-61" d="M706.24,423.37a1.43,1.43,0,0,0-.06-1.56,1.37,1.37,0,0,0-1.45-.55l-.27.11c-1.33,1.3-1.79,2.53-1.12,3.36a2.17,2.17,0,0,0,.82.64l.08-.06A5.12,5.12,0,0,0,706.24,423.37Z"/><path class="cls-61" d="M706.46,431.45a2.25,2.25,0,0,0,.92-1.34,1.43,1.43,0,0,0-.46-1.49,1.4,1.4,0,0,0-1.55-.16,2.6,2.6,0,0,0-1,1h0a1.93,1.93,0,0,0-.24,1.79,1.75,1.75,0,0,0,.47.59,1.58,1.58,0,0,0,1.86-.42Z"/><path class="cls-27" d="M432.16,546.58c6.38-.88,13.26-2.49,12.57-5.25-.56-2.22-5.09-2.52-10-2.15,3.69-.93,6.59-2.2,6.05-3.9-1.36-4.26-24.34-.58-24.34-.58s4.43-2.09,6-2.88c2.41-1.23,5.32-3.59,2.57-5.34s-16.66,2.67-35.94,9.56c-20.34,2.27-69.4-.35-69.4-.35s-.8-12,5.53-39.33c3.16-13.7,15.06-39.39,20.69-50.92,0,0-.07-8.14-12.26-17.59a30.87,30.87,0,0,0-17-6A154.52,154.52,0,0,0,288.56,485c-7.52,40-6.7,74.39,17.34,83.09s89.53-2.21,97.13-3.25,34.59-3.39,34-8c-.32-2.3-4-3-7.6-3.14,6.45-.45,15-1.62,14.86-4.63C444.11,546.62,438,546.31,432.16,546.58Z"/><path class="cls-61" d="M420.76,545.74a2.24,2.24,0,0,0-.62.39,2.88,2.88,0,0,0-.82.49,1.41,1.41,0,0,0-.06,2,3.41,3.41,0,0,0,2.62.73c1.07-.61,1.65-1.3,1.4-2.1S422.11,546,420.76,545.74Z"/><path class="cls-61" d="M422,560.15c-.09,1.48,1.17,2,2.49,2,1.25-.57,2-1.27,2-2.15s-.94-1.5-2.32-1.87C423,558.42,422.07,559,422,560.15Z"/><path class="cls-61" d="M426.89,552.8c-.23-.89-1.13-1.44-2.45-1.75-1.24.56-2.25,1.51-1.92,2.81.29,1.08,1.32,1.42,2.45,1.41C426.35,554.59,427.13,553.77,426.89,552.8Z"/><path class="cls-61" d="M408.75,539.14c-.79-.5-2.57-.45-5.17,0a1.33,1.33,0,0,0,1,1.21,11.76,11.76,0,0,0,4.61-.25,1.37,1.37,0,0,0,.43-.16A2.39,2.39,0,0,0,408.75,539.14Z"/><path class="cls-62" d="M504.29,677.23H622.84a5.09,5.09,0,0,1,5.09,5.09v1.15a0,0,0,0,1,0,0H499.2a0,0,0,0,1,0,0v-1.15A5.09,5.09,0,0,1,504.29,677.23Z"/><polygon class="cls-31" points="533.95 568.39 518.06 617.96 563.85 627.19 609.9 617.78 593.11 568.39 533.95 568.39"/><path class="cls-63" d="M596.93,675.15l-69.76.38,8.32-101.13,53.44,1.89Zm-33.08-68a17.3,17.3,0,1,0,17.29,17.3A17.3,17.3,0,0,0,563.85,607.15Z"/><path class="cls-64" d="M603.34,683.47H523.72L534,568.39h59.16Zm-39.49-73.58a17.3,17.3,0,1,0,17.29,17.3A17.3,17.3,0,0,0,563.85,609.89Z"/><polygon class="cls-63" points="593.35 571.04 593.11 568.39 533.95 568.39 533.71 571.04 593.35 571.04"/><path class="cls-65" d="M907.84,228.7a24.28,24.28,0,0,0,0-48.55c-.69,0-1.36,0-2,.1a36.43,36.43,0,0,0-68.82.11,22.9,22.9,0,0,0-3-.21,24.14,24.14,0,0,0-10.7,2.51,31.27,31.27,0,1,0-27.56,46Z"/><path class="cls-66" d="M545.26,247a4.1,4.1,0,1,0,0-8.2l-.35,0a6.16,6.16,0,0,0-11.63,0,4,4,0,0,0-.5,0,4.09,4.09,0,0,0-1.81.43,5.28,5.28,0,1,0-4.66,7.77Z"/><path class="cls-65" d="M20.26,224.9a6.77,6.77,0,0,1,0-13.54,5.3,5.3,0,0,1,.57,0,10.16,10.16,0,0,1,19.2,0,5.69,5.69,0,0,1,.83-.06,6.78,6.78,0,0,1,3,.7,8.72,8.72,0,1,1,7.68,12.84Z"/><path class="cls-65" d="M234.57,120a32.38,32.38,0,1,0-11-62.79,50.08,50.08,0,0,0-96.27-2.08A34.89,34.89,0,1,0,109.41,120Z"/><circle class="cls-27" cx="653.47" cy="261.82" r="15.46" transform="translate(59.91 640.31) rotate(-54.36)"/><circle class="cls-37" cx="653.47" cy="261.82" r="8.15" transform="translate(-34.01 110.35) rotate(-9.41)"/><path class="cls-27" d="M596.18,271c3.55,21.51,9.13,38.37,29.73,34.73,18.15-3.68,31.06-22.66,27.51-44.16s-14.81-38.25-38-34.18C587.56,232.29,592.64,249.51,596.18,271Z"/><path class="cls-37" d="M603.5,276a6.77,6.77,0,0,1-4.22,7.41,72.65,72.65,0,0,1-3.1-12.35c0-.23-.07-.46-.11-.69A6.78,6.78,0,0,1,603.5,276Z"/><path class="cls-37" d="M627.86,272a6.77,6.77,0,1,0,5.58-7.79A6.78,6.78,0,0,0,627.86,272Z"/><path class="cls-67" d="M613.36,260.19l-4.8,14.18a2.39,2.39,0,0,0,2.58,3.13l8-1.06Z"/><path class="cls-41" d="M651.24,249.62l2.18,12-4.18.93c-.2-3-2.2-10.12-2.9-12.45Z"/><path class="cls-44" d="M636.45,250.69c-.74,0-1.45-.13-2.16-.2l-1.06-.07c-.36,0-.7-.07-1.05-.06-.7,0-1.39-.07-2.08,0a19.77,19.77,0,0,0-2,.13,21.56,21.56,0,0,0-4,.83,19.4,19.4,0,0,0-3.74,1.62l-.09,0a.63.63,0,0,1-.86-.24.62.62,0,0,1,0-.68,9.87,9.87,0,0,1,3.74-3c.18-.09.36-.19.54-.27l.56-.21.56-.21.58-.17a17.12,17.12,0,0,1,2.35-.46,16.5,16.5,0,0,1,4.71.22,21.89,21.89,0,0,1,2.25.59,22.19,22.19,0,0,1,2.11.94.64.64,0,0,1-.31,1.21Z"/><path class="cls-44" d="M607.14,255c-.61.06-1.2.06-1.78.06s-1.15.05-1.72,0l-1.66.1c-.54.09-1.09.09-1.61.21a11.5,11.5,0,0,0-3,.85,7.74,7.74,0,0,0-1.3.76,7.3,7.3,0,0,0-1.13,1l-.14.14a.61.61,0,0,1-.88,0,.63.63,0,0,1-.18-.55,4.88,4.88,0,0,1,.88-2,8.57,8.57,0,0,1,.68-.79,10.28,10.28,0,0,1,.81-.67,8.64,8.64,0,0,1,3.77-1.49,14.39,14.39,0,0,1,2-.16,17.36,17.36,0,0,1,1.91.16c.62.11,1.25.24,1.85.41a16.15,16.15,0,0,1,1.75.67.65.65,0,0,1-.2,1.23Z"/><path class="cls-58" d="M625.57,282.11c.42,2.52-2.64,5.13-6.84,5.83s-8-.77-8.37-3.29,3.35-1.22,7.55-1.92S625.14,279.59,625.57,282.11Z"/><path class="cls-68" d="M618.63,229.87l-5.59-2c-19.83,6.14-19.55,15.78-19.55,20.22C593.52,248.09,614,239.77,618.63,229.87Z"/><path class="cls-29" d="M643.44,219.47,601.72,218l-11.67,16.63,3.5,9c.8-1.58,1.11-4.22,3.83-6.91a25,25,0,0,0,12.8-.52c2.05-.72,6.16-4.3,8.45-6.38,5.43.31,10.51,2.14,12.17,5.06,6.8,12.06,11.71,4.84,15.54,15.13l4.9-.44Z"/><circle class="cls-69" cx="533.48" cy="457.52" r="11.37" transform="translate(-3.59 910.83) rotate(-80.78)"/><path class="cls-70" d="M927.84,498.28c-1.22-20.86-52.63-14.56-75.68,20.85s-50.34,110-50.34,110l9.09,2.88s37.56-101.27,59.73-108.12S929.12,520,927.84,498.28Z"/><polygon class="cls-71" points="819.91 581.97 790.92 601.29 790.92 683.43 849.86 683.43 849.86 601.29 819.91 581.97"/><rect class="cls-45" x="849.86" y="601.29" width="19.97" height="82.13"/><polygon class="cls-69" points="839.88 581.97 819.91 581.97 849.86 601.29 869.83 601.29 839.88 581.97"/><rect class="cls-44" x="820.39" y="622.53" width="6.25" height="11.55"/><rect class="cls-44" x="820.39" y="650.64" width="6.25" height="11.55"/><rect class="cls-34" x="849.86" y="642.36" width="51.61" height="41.07"/><polygon class="cls-45" points="921.87 642.36 911.46 614.89 901.47 642.36 901.47 683.43 921.87 683.43 921.87 642.36"/><polygon class="cls-44" points="859.86 614.89 849.86 642.36 901.47 642.36 911.46 614.89 859.86 614.89"/><rect class="cls-44" x="872.54" y="667.77" width="6.25" height="15.65"/><rect class="cls-60" x="908.55" y="667.77" width="6.25" height="15.65"/><path class="cls-38" d="M476.58,307.69a1.37,1.37,0,1,1-.82-1.76A1.38,1.38,0,0,1,476.58,307.69Z"/><path class="cls-38" d="M629.54,258.8a1.37,1.37,0,1,1-.82-1.76A1.38,1.38,0,0,1,629.54,258.8Z"/><path class="cls-38" d="M601.68,264.34a1.37,1.37,0,1,1-.82-1.75A1.36,1.36,0,0,1,601.68,264.34Z"/></g><g class="cls-10"><path class="cls-11" d="M793,476a101.85,101.85,0,0,1,24.21-51.6c21.19-23.66,40.21-30,44.09-25.51s-62.57,87.39-62.57,87.39Z"/><path class="cls-12" d="M812.16,476.74s16.37-26.29,48.74-39.63,54.27-10.5,56-4.21-104,56.78-104,56.78Z"/><path class="cls-13" d="M567,697.31c-14.92-7.17,11-13.46,17.55-31.39,3-8.21-3.11-20.74.92-31.54,3.32-8.87,16.58-15.58,20.48-25.74,3.5-9.13-2.39-21.66,1.5-31.53,3.65-9.27,17-15.75,21-25.42,3.8-9.36-1.82-22,2.18-31.5s17.51-15.63,21.61-25-1.08-22.25,3.15-31.44c4.39-9.54,18.16-15.32,22.57-24.3,4.71-9.61.17-22.6,4.83-31.27,5.21-9.73,19.41-14.63,24.44-22.79,6.19-10,4.6-22.91,9.16-30.49,7.38-12.24,16.44-17,29.24-17,11.87,0,22.34,4.57,29.75,17.23,4.44,7.59,3.3,20.42,9.28,30.51,4.86,8.2,18.94,13.29,23.94,23.06,4.47,8.72-.34,21.61,4.16,31.25,4.22,9,17.86,15,22,24.56,4,9.22-1.47,21.87,2.47,31.38s17.3,15.79,21.06,25.25-2.1,22,1.5,31.43c3.71,9.7,17,16.37,20.41,25.67,3.67,9.89-2.5,22.3.81,31.45,3.67,10.19,16.78,17.09,19.9,26,3.8,10.83-2.57,23.22.24,31.45,6.13,18,31.85,24.57,16.89,31.56-11.8,5.51-15.66-8.6-29-8.65s-13.37,9-26.68,9-13.28-9.12-26.59-9.17-13.37,9-26.68,9-13.27-9.12-26.59-9.17-13.36,9-26.68,9-13.27-9.12-26.59-9.17-13.36,9-26.68,9S689.3,689.25,676,689.2s-13.37,9-26.69,9S636,689,622.7,689s-12.52,6.07-25.48,8.84C582.36,701,578.71,702.94,567,697.31Z"/><path class="cls-14" d="M776.74,423.87c1.63,19.86-6.9,22.13-6.86,33.95-.2,13.85,7.38,14.95,12.24,27.22,9.66,24.1-3.51,38-3.81,46.89.39,13.05,5.4,11.1,11.23,24,10.86,23.72-1.52,45.18-2.19,47.21-4.13,12,10.12,15.13,14,37.52a59,59,0,0,1-.65,25c-3.7,13-6.07,11.57-5.18,18.41,1.62,12.48-6.06,23.93-17.16,25.57s-21.42-7.14-23-19.62c-2.79-21.45,9.9-37.87,10.2-39.16,2-12-9.8-15.62-10.52-37.28-2.24-27.28,14.19-30.59,10.16-45.29-1-3.65-4.9-8.05-7.56-15.21a50.3,50.3,0,0,1-2.88-15.57c-1.07-25,14.41-26.92,10-44.83-2-7.67-12.36-15.65-10-36.45,1.65-16,10-17.22,10.46-31.75,0-.06.16-6.91,6-6.6A6.21,6.21,0,0,1,776.74,423.87Z"/><path class="cls-15" d="M775.34,685.79h0a.48.48,0,0,1-.48-.48c-.55-9.46,2-14.41,4.4-19.2s4.82-9.49,4.29-18.64-3.4-13.46-6.43-18-6-9.12-6.6-18.57,2-14.41,4.41-19.2,4.82-9.48,4.28-18.63-3.39-13.46-6.42-18-6-9.11-6.6-18.57,2-14.4,4.4-19.19,4.82-9.49,4.29-18.64-3.4-13.45-6.42-18-6.06-9.12-6.61-18.57,2-14.4,4.41-19.19,4.82-9.49,4.28-18.63a.5.5,0,0,1,.43-.54h0a.49.49,0,0,1,.48.48c.55,9.46-2,14.41-4.4,19.2s-4.83,9.48-4.29,18.63,3.39,13.46,6.42,18,6.05,9.11,6.6,18.56-2,14.41-4.4,19.2-4.82,9.48-4.29,18.63,3.4,13.46,6.42,18,6.06,9.11,6.61,18.57-2,14.41-4.41,19.2-4.82,9.48-4.28,18.63,3.39,13.46,6.42,18,6,9.11,6.6,18.57-2,14.41-4.4,19.2-4.82,9.48-4.29,18.63A.49.49,0,0,1,775.34,685.79Z"/><path class="cls-16" d="M733.1,668.49a21.32,21.32,0,0,0,5.42,14.23h65.13a22.49,22.49,0,0,0-9.1-35.6c0-.54.06-1.1.06-1.65a22.67,22.67,0,1,0-45.34,0c0,.74,0,1.48.1,2.2A21.47,21.47,0,0,0,733.1,668.49Z"/><path class="cls-17" d="M715.4,592.38c-9.66,11.87-16.62,9.81-23.62,23-2.07,3.89-6.68,12.63-4.46,23.23a32.3,32.3,0,0,0,4.48,10.86c.76-1.5,6.6-13,11.28-16.56a6.08,6.08,0,0,1,3.21-1.4c2.64-.23,4.78,1.71,5.56,2.39,7,6,13.57,4,16.89,9.47,3.83,6.3-.71,15.94-4.15,20.68a28,28,0,0,1-14.34,10,53.81,53.81,0,0,0,24.17,9.29c3.41.39,27.64,2.88,37.82-11.79,4.64-6.69,5.09-15.13,5.29-18.84.49-9.19-2.3-11.79-1.09-18.69,1.43-8.11,6.46-11.23,11.6-18.07,1.21-1.61,14.66-20,11.34-37.29-3.74-19.49-28-33.78-48.14-32.64-3.82.22-7.75.44-12.14,2.74C724.3,556.52,730.2,574.2,715.4,592.38Z"/><path class="cls-18" d="M793.78,585.33c-5.76-15.76-19.27-26.77-34.59-28.1-15-1.3-25.86,7.14-28.48,9.29l.86-1.88c2.75-2.22,13.36-10.26,27.91-9.1,15.33,1.22,28.93,12.15,34.86,27.91C794.16,584.08,794,584.7,793.78,585.33Z"/><path class="cls-18" d="M750.63,594.3c9.62,2.45,17.26,13,14.21,22.72-2.73,8.75-12.88,13.18-21.24,11.55-10.43-2-18.66-13.58-15.21-23.56C731.35,596.42,741.91,592.08,750.63,594.3Z"/><path class="cls-19" d="M749.12,600.54c6.09,1.55,10.92,8.2,9,14.37-1.73,5.54-8.15,8.34-13.44,7.31-6.59-1.28-11.8-8.59-9.62-14.9C736.92,601.88,743.6,599.13,749.12,600.54Z"/><path class="cls-18" d="M746,670.79l3.38-9.67L730,651.8a30.63,30.63,0,0,1-1.41,4.9,30.2,30.2,0,0,1-2.6,5.28Z"/><path class="cls-19" d="M813.4,417.59a7.5,7.5,0,0,0-8.79,3.64,10.77,10.77,0,0,0-4.78-.65c-6.12.6-11.51,6.87-13.9,15.67a12,12,0,0,1-1.36-2.08,2.25,2.25,0,0,0,.23-2.31,2.29,2.29,0,1,0-1.7,3.22,13.39,13.39,0,0,0,2.36,3.1l-2.82,11.91a11.19,11.19,0,0,1-2.52-3.2,2.25,2.25,0,0,0,.23-2.31,2.29,2.29,0,1,0-4.13,2,2.27,2.27,0,0,0,2.43,1.23,13,13,0,0,0,3.53,4.22q-1.33,5.67-2.68,11.33a11.26,11.26,0,0,1-3-3.68,2.25,2.25,0,0,0,.23-2.31,2.29,2.29,0,1,0-4.13,2,2.25,2.25,0,0,0,2.43,1.23,13.68,13.68,0,0,0,1.56,2.33,14.37,14.37,0,0,0,2.46,2.34h0c-.42,1.76-.83,3.53-1.25,5.3l2.76,1.19.06,0-41.19,123,20.21,6.9,41.43-123,0,0,1.42.49c1-1.74,2-3.49,3-5.24v.31a13,13,0,0,0,5.44-1.11,2.27,2.27,0,1,0,.68-3.57,2.25,2.25,0,0,0-1.26,2,11.24,11.24,0,0,1-4,.93l5.74-10a12.74,12.74,0,0,0,5.4-1.1,2.3,2.3,0,1,0-.58-1.62,11.44,11.44,0,0,1-3.77.91l4.35-7.56c.6-.92,1.16-1.84,1.69-2.75a13.15,13.15,0,0,0,4.67-1,2.26,2.26,0,0,0,2.66.55,2.29,2.29,0,1,0-2-4.13,2.26,2.26,0,0,0-1.26,2,11.43,11.43,0,0,1-3.05.85c5.23-9.63,6.38-17.75,3-20.93a6.74,6.74,0,0,0-4.86-1.58A7.5,7.5,0,0,0,813.4,417.59Zm-.73,21.82-12.23,35-4.91-1.71,11.37-35.27c.9-2.9,3.46-4.12,4.77-3.57S813.81,436.83,812.67,439.41Zm-10.92-3.82-12.24,35-4.91-1.72L796,433.56c.91-2.89,3.47-4.11,4.78-3.56S802.89,433,801.75,435.59Z"/><path class="cls-20" d="M762.27,593.88l.48-1.42-20.17-7.06-.48,1.42Z"/><path class="cls-20" d="M765,585.85c.15-.46.3-.92.46-1.38l-20.18-7.1c-.15.47-.31,1-.47,1.42Z"/><path class="cls-20" d="M767.86,577.29l.48-1.42-20.2-7.08-.5,1.47Z"/><path class="cls-20" d="M770.84,568.46c.15-.47.31-.94.47-1.41L751.09,560c-.15.47-.31.94-.47,1.42Z"/><path class="cls-20" d="M753.31,553.35l20.23,7.08L774,559l-20.24-7.08C753.62,552.4,753.47,552.88,753.31,553.35Z"/><path class="cls-20" d="M776.43,551.86c.15-.47.31-.94.47-1.41l-20.25-7.09c-.16.47-.31.95-.47,1.42Z"/><path class="cls-20" d="M759.1,536l20.28,7.09.47-1.41-20.26-7.09C759.42,535.07,759.26,535.54,759.1,536Z"/><path class="cls-20" d="M782.08,535.08l.48-1.42-20.28-7.09L761.8,528Z"/><path class="cls-20" d="M785,526.51l.48-1.41L765.15,518l-.48,1.42Z"/><path class="cls-20" d="M783.35,516.07a1.82,1.82,0,0,1,.83-.33,1.8,1.8,0,0,1,.52,0,16.07,16.07,0,0,1-3.52-1.6,14.52,14.52,0,0,1-1.26-.85l-11.82-4.13c-.15.47-.31.94-.47,1.41Z"/><path class="cls-20" d="M776.65,504.76a4.2,4.2,0,0,1,.57-.47,4.41,4.41,0,0,1,.94-.48l-7.37-2.68c-.15.47-.31.94-.47,1.41Z"/><path class="cls-20" d="M785.82,498.39c.6,0,1.24-.11,1.91-.22.46-.07.89-.14,1.31-.23l-15.37-5.4-.48,1.44Z"/><path class="cls-20" d="M796.12,493.35l.49-1.41-20.35-7.13-.48,1.42Z"/><path class="cls-20" d="M779.12,476.26c-.16.47-.32.94-.47,1.41L799,484.79l.48-1.42Z"/><path class="cls-21" d="M720.06,609.3c-.75,1.2-1.46,2.28-2.17,3.31a.7.7,0,0,1-.7.38.52.52,0,0,1-.42-.36.54.54,0,0,1,.13-.58l.18-.18.24,0c.67-1,1.33-2,2-3.08Zm-2.94,3.45.14-.4.23.32a.27.27,0,0,0,.09-.31.3.3,0,0,0-.25-.21Z"/><path class="cls-22" d="M177.43,530.54a86.51,86.51,0,0,0-39.89-27.37c-25.68-8.22-42.32-4.66-43.24.27s83.35,37.09,83.35,37.09Z"/><path class="cls-11" d="M71.59,410.91c6.69-22.88,71.08-7.59,91.93,35.31s37.53,129.9,37.53,129.9l-12.36,1.72s-23.29-118.14-50-129.31S64.6,434.78,71.59,410.91Z"/><path class="cls-13" d="M447,577.94a52.69,52.69,0,0,0-24.88-44.79,23.18,23.18,0,0,1-10.57-24.39,39.82,39.82,0,0,0,.86-8.23,39.43,39.43,0,0,0-30.82-38.48,9.47,9.47,0,0,1-7.37-10.15,27.75,27.75,0,0,0,.06-5.81c-1.42-10.9-7.56-16.84-16.42-21.7a11.32,11.32,0,0,1-5.49-12.79,34.66,34.66,0,0,0,1.06-7.76c.54-20.08-10.28-28.36-17.8-32.09a14.31,14.31,0,0,1-7.42-9.12A24.11,24.11,0,0,0,281,366.32l0,.27a7.37,7.37,0,0,1-7.74,6.66,30.77,30.77,0,0,0-3.95.07,30.15,30.15,0,0,0-27.48,27.81,30.93,30.93,0,0,0,.29,6.83,12.84,12.84,0,0,1-5.8,12.9,44.4,44.4,0,0,0-18,22.4,11.9,11.9,0,0,1-8,7.38,39.17,39.17,0,0,0-26.14,51.44,13,13,0,0,1-7.23,16.63,48.48,48.48,0,0,0-24.25,67.38,25.27,25.27,0,0,1-5.19,30.59,59.65,59.65,0,0,0-19.74,44.42v21.81H452V661.1c0-8.84-5.58-17.22-12.18-24.77a24.11,24.11,0,0,1-1.64-29.25A52.46,52.46,0,0,0,447,577.94Z"/><path class="cls-14" d="M462,667.2a23.27,23.27,0,0,0,5.91,15.52h71A24.52,24.52,0,0,0,529,643.9c0-.59.06-1.2.06-1.8a24.72,24.72,0,1,0-49.44,0,23.81,23.81,0,0,0,.12,2.4A23.4,23.4,0,0,0,462,667.2Z"/><path class="cls-23" d="M289.23,429.12c-.66,19.91-9.4,21.18-10.71,32.93-1.79,13.74,5.61,15.7,9,28.45,6.83,25-7.84,37.3-9.16,46.14-1.11,13,4.09,11.65,8.4,25.15,8.07,24.8-6.7,44.7-7.59,46.65-5.48,11.45,8.32,16.19,9.6,38.86a59,59,0,0,1-3.51,24.81c-5.17,12.5-7.36,10.8-7.26,17.69.18,12.59-8.77,23.08-20,23.44s-20.46-9.55-20.64-22.14c-.31-21.62,14.18-36.48,14.63-37.73,3.4-11.73-8-16.64-6.18-38.24.91-27.36,17.6-28.76,15.29-43.83-.57-3.74-4-8.55-5.77-16a50.29,50.29,0,0,1-1.08-15.79c1.81-25,17.41-25.09,15.12-43.38-1.09-7.85-10.48-17-5.72-37.36,3.48-15.75,11.93-16,14-30.34,0-.05.95-6.85,6.67-5.87A6.22,6.22,0,0,1,289.23,429.12Z"/><path class="cls-24" d="M257.8,689.15h0a.5.5,0,0,1-.43-.54c.54-9.45,3.61-14.09,6.58-18.57s5.88-8.86,6.4-18-1.83-13.76-4.32-18.64-5-9.74-4.43-19.2,3.61-14.09,6.58-18.57,5.88-8.86,6.4-18-1.83-13.76-4.32-18.64-5-9.75-4.43-19.2,3.61-14.09,6.58-18.57,5.87-8.86,6.39-18-1.82-13.75-4.31-18.63-5-9.75-4.43-19.2,3.61-14.09,6.57-18.57,5.88-8.86,6.4-18a.48.48,0,0,1,.48-.48h0a.49.49,0,0,1,.43.53c-.54,9.45-3.61,14.09-6.58,18.57s-5.88,8.86-6.39,18,1.82,13.76,4.31,18.64,5,9.74,4.43,19.2-3.61,14.08-6.58,18.56-5.87,8.87-6.39,18,1.82,13.76,4.31,18.64,5,9.74,4.43,19.2-3.61,14.08-6.58,18.56-5.87,8.87-6.39,18,1.83,13.76,4.31,18.64,5,9.75,4.43,19.2-3.6,14.09-6.57,18.57-5.88,8.87-6.4,18A.5.5,0,0,1,257.8,689.15Z"/><path class="cls-25" d="M155.65,673.5a13.83,13.83,0,0,0,3.49,9.18h42a14.48,14.48,0,0,0-5.86-22.94c0-.35,0-.71,0-1.07a14.61,14.61,0,0,0-29.21,0,13.24,13.24,0,0,0,.07,1.42A13.83,13.83,0,0,0,155.65,673.5Z"/><path class="cls-15" d="M288.28,594.62c-14.16-4.81-28,11.94-38.19,23.82-3.89,4.35-.46,7.14-1.76-43.17.53-.43,7.06-9.36,16.9-11.1,15.18-2.73,18.08-14.65,5.89-13.71-6.18.69-9.06,4.69-12,8.16-1.42,1.64-10.17,9.81-10.32,8.74-3.61-25.22,4-30.31,3.68-43.6-.06-11.8-5.66-16.8-10.21-7.84-6.83,13.7,2.23,22.26.65,48.63-16.6-15.5-15.94-19.87-24.75-22.5-9.37-2.55-12,2.47-5.29,9.19,9.37,9.37,14.56,1.88,29.73,20.55.09.12,0,18.09,0,30a108.93,108.93,0,0,0-13.13-11.46c-10.88-8.61-17.38-14.18-27.89-15.67-11.36-1.48-16.07,3-3.2,10.11,17.57,9.26,26,1,44.22,25.21V643c-16.28-15.29-15.77-19.66-24.49-22.26-9.38-2.56-12,2.47-5.29,9.18,9.6,9.6,14.45,1.76,29.73,20.56.08.11,0,21.24,0,32.08h5.67c.15-55.33-.23-52,.19-52.86,8.12-18.37,24.7-20.56,28.39-22.11,3-1.09,12.36-5.78,13.39-8.81A3.23,3.23,0,0,0,288.28,594.62Z"/><path class="cls-26" d="M724.53,596.59s10.21,76.56,14.18,133.09H673.49l-14.17-101L658.18,630l-9.83,99.71h-65L576,630.42Z"/><path class="cls-27" d="M759.74,424l11.91-3.83s9.64,17.3,12.76,36.58-2.27,26.51-7.23,28.5S759.74,424,759.74,424Z"/><path class="cls-28" d="M760.77,423.09l11.91-3.83s9.64,17.29,12.76,36.57-2.27,26.52-7.23,28.5S760.77,423.09,760.77,423.09Z"/><path class="cls-29" d="M612.84,234.17c-14,1.75-19.54,9-19.54,9s-29.46-21.88-19-41.71,28.59-11.38,39.67-3.21,12.45,7.1,27.62,6.22,25.47,10.21,25.47,25.67,12.25,31.7-8.75,51.83C633.67,305.66,612.84,234.17,612.84,234.17Z"/><path class="cls-27" d="M668,368.52c-2.81,4.36-6.16,8.82-10.6,11.87-7.07,1.19-14,2.66-20.64,3.65-6.49-1.21-12.19-4.13-18-8.15-10.43-7.22-19-16.7-27.38-26.44,22.2-11.84,27.71-8.32,28.55-17.94.92-10.64-11-64.33-11-64.33L656,259.89s10.8,53.16,13.76,61.83c1.79,5.24,8.83,7.9,18.69,10.4C682.92,344.82,675.52,356.81,668,368.52Z"/><path class="cls-30" d="M619.45,334.11a15.64,15.64,0,0,0,.43-2.6c.92-10.64-11-64.33-11-64.33L656,259.89s10.8,53.16,13.76,61.83a8.86,8.86,0,0,0,2.51,3.68Z"/><path class="cls-31" d="M623.45,314a32.31,32.31,0,0,1-5.41.5c-3.43-18.41-7-35.57-7-35.57l31.83-5C645,294.07,638.47,311.49,623.45,314Z"/><path class="cls-32" d="M549.39,442.51s-2.7-60.16,14.59-75.76,34.74-21.5,38.71-23.48,13.33-6,13.33-6,6.24,11.06,26.08,8.51,33.18-19.28,33.18-19.28,11.34,5.1,19.28,6.8,40.55,4.82,53.59,23.82,29.49,64.08,29.49,64.08-9.93,6.81-28.07,13.33S549.39,442.51,549.39,442.51Z"/><path class="cls-33" d="M641,352.06c10-.93,26.36-4.05,40.72-22.86-3.7-1.44-6.41-2.66-6.41-2.66S662,343.27,642.1,345.82,616,337.31,616,337.31s-2.65,1.13-5.72,2.48C618.05,351.27,631.23,353,641,352.06Z"/><path class="cls-34" d="M485.83,288.09C494.46,282.84,497.45,269,493,262c-3.29-5.21-11-6.7-11.51-11.92-1-10.08-14.39-19.74-26.11-16.25-15.1,4.5-20.9-2-27.45-11.51-7.05-10.21-10.8-20.36-35.17-20.36s-30.84-4-33.31-16-22.51-25-45-14.49S283.6,191.75,271,184.35s-25-17.58-39.17-7.09-8.63,36.7,7.1,39.17,4.62,19.74-1.55,30.22,2.47,29.61,23.45,26.22,24.36,3.08,29,14.5,21.59,13.88,30.84,9.25,20.05-7.71,30.54,1.54,13.57,14.5,28.37,11.1,17.17-.82,24.26,4.73,23.86,2.37,23.86,2.37Z"/><path class="cls-35" d="M450,302.87,453.13,291l-41.53-8.63c-20.56-13.57-25.91-11.11-41.13-9.87S360.19,256.83,345.8,249s-19.74,5.34-33.72,2.46-7.4-16-25.5-18.09c-17.09-1.94-21.35,10.41-45,5.9-1.45,2.62-3,5.15-4.28,7.36-6.16,10.49,2.47,29.61,23.45,26.22s24.36,3.08,29,14.5,21.59,13.88,30.84,9.25,20.05-7.71,30.54,1.54,13.57,14.5,28.37,11.1,16.76-1.64,23.85,3.91,23,4.52,23,4.52Z"/><path class="cls-27" d="M449.67,383.14c-.8-11.42,12.6-71.73,12.6-71.73l-47.88-7.55S402.12,363.59,399,372.92s-20.8,11.17-41.93,17.19a40.33,40.33,0,0,0-8.93,3.87c1.74,7.56,5,14.83,8.38,21.73,3.71,7.58,7.75,15,11.39,22.59,18.94,13.23,38.55,9.39,58.83,12.4,6.84,1,25.73-8.79,31.67-7.4,10.2-13,14.18-25.42,22.69-39.56C456.48,389.35,450.42,393.86,449.67,383.14Z"/><path class="cls-36" d="M450.06,385.93a16.89,16.89,0,0,1-.39-2.79c-.8-11.42,12.6-71.73,12.6-71.73l-47.88-7.55S402.12,363.59,399,372.92a9.87,9.87,0,0,1-2.6,4Z"/><path class="cls-31" d="M422.09,323.66c1.41,8.87,9,33.93,30.17,38.59,1.92-10.61,4.12-21.89,6-31.12Z"/><circle class="cls-27" cx="422.48" cy="294.8" r="16.64" transform="translate(-84.71 385.08) rotate(-45)"/><circle class="cls-37" cx="422.48" cy="294.8" r="8.77" transform="translate(-73.59 433.76) rotate(-50.56)"/><path class="cls-27" d="M481.53,315.9c-8,22-20.94,37.4-43.2,29.14-12.75-4.73-23.46-28.45-15.44-50.49s17.49-36.72,44.23-29.08C493,272.87,489.56,293.87,481.53,315.9Z"/><path class="cls-38" d="M450,298.21a1.37,1.37,0,1,1-.82-1.76A1.38,1.38,0,0,1,450,298.21Z"/><path class="cls-39" d="M481.43,315.62a7.29,7.29,0,1,0-7,12.31,7.08,7.08,0,0,0,1.76.27,56.25,56.25,0,0,0,5.19-12.43Z"/><path class="cls-39" d="M446.34,310.69a7.29,7.29,0,1,1-4.36-9.35A7.29,7.29,0,0,1,446.34,310.69Z"/><path class="cls-40" d="M461.56,304.23,464,316.54a2,2,0,0,1-2.49,2.31l-6.52-1.77Z"/><path class="cls-41" d="M417.3,305.69a1.4,1.4,0,1,1-.84-1.8A1.4,1.4,0,0,1,417.3,305.69Z"/><path class="cls-31" d="M406.28,290.6c12.34,7.72,21.46,4.63,28.25,2.16s8.94-19.43,18.5-20.66,10.54,6.34,20.72,5.55c11.87-.93,13.21,7.71,13.21,7.71s.67-10-15.06-19-34-12.18-45.7-3.54c-3.85,2.83-3.45,10.9-7.66,13.57C408.05,283.05,406.28,290.6,406.28,290.6Z"/><path class="cls-42" d="M409.7,281c12.33,7.71,17.27,10.18,24.05,7.71s8.95-19.43,18.51-20.66,10.16,6.52,20.36,7.09c10.89.62,13.57,6.17,13.57,6.17S493,269,477.24,260.07s-40.09-9.87-51.81-1.23S409.7,281,409.7,281Z"/><path class="cls-43" d="M503.85,683.47H291s30-124.61,60.87-186.71c30.22,7.51,75.15,9.46,105.28,1.24C457.18,498,501.8,614.79,503.85,683.47Z"/><path class="cls-44" d="M476.92,471.27C475.59,482.41,457.18,498,457.18,498c-30.13,8.22-75.06,6.27-105.28-1.24,0,0-3.5-27.14-10.08-42.35a45.73,45.73,0,0,0-12.13-24.27c-6.08-6.32-10.18-8-12.59-8.29a1.19,1.19,0,0,1-.8-1.94c3.73-4.52,11.31-13.41,18.33-18.66s17.17-10.5,22.49-12.16a1.32,1.32,0,0,1,1.7,1.13c.81,8.07,5.51,45.29,23.92,50.51,20.67,5.86,79-1.85,79-1.85S479,454,476.92,471.27Z"/><path class="cls-29" d="M317.1,421.85c2.41.28,6.51,2,12.59,8.29a45.76,45.76,0,0,1,12.13,24.27c.25.58.5,1.17.74,1.79,1.2-1.28,2.47-2.68,3.79-4.21,8.48-9.87,1.49-22.57-3.4-27.14a39.06,39.06,0,0,0-22.12-10.26c-1.8,2-3.36,3.9-4.53,5.32A1.19,1.19,0,0,0,317.1,421.85Z"/><path class="cls-31" d="M350.09,461.67c-2-9.15-4.21-16.23-4.21-16.23l-6.7-.53a39.83,39.83,0,0,1,2.64,9.5A121.55,121.55,0,0,1,348,475.07,45.83,45.83,0,0,0,350.09,461.67Z"/><path class="cls-45" d="M451.35,388.73c-6.57,4.73-15.29,7.28-25.43,7.28-11.32,0-24.85-5.41-31.8-17.33-.33.21-.68.43-1,.63,6.43,10.9,19,17.93,32.84,17.93,10.47,0,19.49-2.66,26.28-7.6A6.08,6.08,0,0,1,451.35,388.73Z"/><path class="cls-29" d="M368.86,439.65c10.64,10.64,25,10.8,47,9.41,17.92-1.13,42.07-4.19,50.47-5.3a51.46,51.46,0,0,0-4.67-4.88s-58.29,7.71-79,1.85c-18.41-5.22-23.11-42.45-23.92-50.51a1.32,1.32,0,0,0-1.7-1.13,49.74,49.74,0,0,0-5.25,2.08C354.77,408.06,358.92,429.71,368.86,439.65Z"/><path class="cls-27" d="M510.73,413.72s8.64-47.91,10.7-63.13c1.11-8.24,2.89-22.7,5.07-34.09,1.84-9.63,3.61-17,6.24-16.7,4.31.51,2,9.56,1.23,18.2-.46,5.13-.52,10.91-.5,14.32a1.18,1.18,0,0,0,2,.82c3.9-4,12.6-11.75,17.6-7.84,6.58,5.14-5.86,21.69-5.86,21.69l10,4.63c-1.19,4.69-8.75,14.35-11.06,15.78l-2,51.66Z"/><g class="cls-46"><path class="cls-47" d="M544,419.47l2.16-52.07c2.88-1.85,9.92-11.62,11.06-15.78l-10-4.63s12.44-16.55,5.86-21.69c-5-3.91-13.7,3.87-17.6,7.84a1.18,1.18,0,0,1-2-.82c0-3.41,0-9.19.5-14.32.77-8.64,3.08-17.69-1.23-18.2-2.63-.31-4.4,7.07-6.24,16.7-2.18,11.39-4,25.84-5.07,34.09-.8,6-8.78,52.89-10.49,62.92C517.93,413.87,541.52,419.37,544,419.47Z"/></g><g class="cls-48"><path class="cls-49" d="M544,419.47l2.16-52.07c2.88-1.85,9.92-11.62,11.06-15.78l-10-4.63s12.44-16.55,5.86-21.69c-5-3.91-13.7,3.87-17.6,7.84a1.18,1.18,0,0,1-2-.82c0-3.41,0-9.19.5-14.32.77-8.64,3.08-17.69-1.23-18.2-2.63-.31-4.4,7.07-6.24,16.7-2.18,11.39-4,25.84-5.07,34.09-.8,6-8.78,52.89-10.49,62.92C517.93,413.87,541.52,419.37,544,419.47Z"/></g><path class="cls-27" d="M556.38,342.78c3.09,1.74,4.63,6.17,1.75,9S543,362.1,541.06,360.77s-2-5.76.72-7.3S556.38,342.78,556.38,342.78Z"/><path class="cls-50" d="M544.3,358.1c-.81-.73-3.41.77-4.28,1.3a3.1,3.1,0,0,0,1,1.37c.62.42,2.25,0,4.28-.92A3.55,3.55,0,0,0,544.3,358.1Z"/><path class="cls-51" d="M556.38,342.78c3.09,1.74,4.63,6.17,1.75,9S543,362.1,541.06,360.77s-2-5.76.72-7.3S556.38,342.78,556.38,342.78Z"/><path class="cls-27" d="M552.37,335.89c2.78.51,5.55,1,6.27,4.32s-13.67,15.52-18,16.45-5.24-5.86-.51-9S552.37,335.89,552.37,335.89Z"/><path class="cls-50" d="M541.73,352.8c-.78-.83-4,1.19-4.6,1.61a2.81,2.81,0,0,0,3.52,2.25,10.14,10.14,0,0,0,2.5-1.09A4.76,4.76,0,0,0,541.73,352.8Z"/><path class="cls-52" d="M552.37,335.89c2.78.51,5.55,1,6.27,4.32s-13.67,15.52-18,16.45-5.24-5.86-.51-9S552.37,335.89,552.37,335.89Z"/><path class="cls-27" d="M553.59,325.79c4.44,4.93.53,11.43-6.05,17.5s-8.94,5.24-11,4.11,2.26-6,6.68-10.55S553.59,325.79,553.59,325.79Z"/><path class="cls-50" d="M544,346.22c-.4-.8-1.46-2.61-2.76-2.31s-3.75,3.19-4.19,3.75C538.55,348.41,540.39,348.73,544,346.22Z"/><path class="cls-53" d="M553.59,325.79c4.44,4.93.53,11.43-6.05,17.5s-8.94,5.24-11,4.11,2.26-6,6.68-10.55S553.59,325.79,553.59,325.79Z"/><path class="cls-27" d="M548.89,341.81c2-2.2,1.23-4.76-6-4.94s-16.39,6.53-16.39,6.53c-1.43.71-2.91,1.36-4.34,1.92q-.25,1.94-.48,3.6c-.45,3.31-1.17,8-2,13.34H520c15-.53,19.8-18.75,19.8-18.75S547.55,343.26,548.89,341.81Z"/><g class="cls-54"><path class="cls-55" d="M548.89,341.81c2-2.2,1.23-4.76-6-4.94s-16.39,6.53-16.39,6.53c-1.43.71-2.91,1.36-4.34,1.92q-.25,1.94-.48,3.6c-.45,3.31-1.17,8-2,13.34H520c15-.53,19.8-18.75,19.8-18.75S547.55,343.26,548.89,341.81Z"/></g><path class="cls-50" d="M549.25,338.47a6.94,6.94,0,0,0-3.91-1.42,1.8,1.8,0,0,0,1.33,2.28,5.82,5.82,0,0,0,2.46.16Z"/><path class="cls-56" d="M444.05,288.35c.68-.12,1.35-.21,2-.3a20.17,20.17,0,0,1,2.06-.05,16.46,16.46,0,0,1,4.11.65,14.07,14.07,0,0,1,3.76,1.82,9.92,9.92,0,0,1,2.9,3,.28.28,0,0,1-.1.39.29.29,0,0,1-.35-.05l0,0a13,13,0,0,0-3-2.4,16.86,16.86,0,0,0-3.53-1.56,17.93,17.93,0,0,0-1.89-.46c-.63-.15-1.28-.2-1.93-.29s-1.31-.08-2-.14-1.32,0-2,0h0a.28.28,0,0,1-.27-.29A.31.31,0,0,1,444.05,288.35Z"/><path class="cls-56" d="M471,298.09c.6-.12,1.22-.19,1.84-.28s1.24-.08,1.87-.07a17.46,17.46,0,0,1,3.73.46,13.2,13.2,0,0,1,3.53,1.37,8.84,8.84,0,0,1,2.9,2.48.28.28,0,0,1-.07.39.27.27,0,0,1-.35,0l0,0a12.2,12.2,0,0,0-2.95-1.87,18.33,18.33,0,0,0-3.32-1.14l-.86-.19-.87-.15c-.58-.12-1.18-.14-1.77-.23s-1.19-.07-1.79-.12-1.2,0-1.81-.05h0a.29.29,0,0,1-.27-.3A.28.28,0,0,1,471,298.09Z"/><path class="cls-37" d="M462.16,325.77c-.27,1.08-4.61,2.17-9.05.81s-7.36-4.44-7.05-5.75c.38-1.58,3.22,2.48,7.67,3.85S462.57,324.15,462.16,325.77Z"/><path class="cls-57" d="M724.58,391.55l-161.1,29.3-161.09-29.3a8.2,8.2,0,0,0-9.66,8.06V597.48a8.19,8.19,0,0,0,6.72,8.06l164,29.83h0l.22,0v-.08l163.81-29.79a8.19,8.19,0,0,0,6.73-8.06V399.61A8.2,8.2,0,0,0,724.58,391.55Z"/><polygon class="cls-58" points="563.53 625.93 403.4 597.11 403.4 404.28 563.45 433.39 563.53 625.93"/><polygon class="cls-59" points="536.84 598.53 480.15 588.32 480.14 535.04 536.82 545.28 536.84 598.53"/><path class="cls-29" d="M536.79,461.94l-108.48-19.7v-7.61l108.48,19.7Zm0,14.41L428.31,456.67v7.62L536.8,484Zm0,22L428.32,478.72v7.61L536.81,506Zm0,22L428.32,500.76v7.62L536.82,528Zm-67.07,12.76-41.42-7.49v7.62l41.42,7.48Zm0,23.24-41.43-7.48v7.62L469.75,564Zm0,22.43-41.43-7.47V579l41.43,7.46Z"/><polygon class="cls-60" points="723.57 597.11 563.48 626.22 563.48 433.39 723.57 404.28 723.57 597.11"/><polygon class="cls-34" points="668.13 490.17 588.93 504.57 588.93 454.24 668.13 439.84 668.13 490.17"/><path class="cls-29" d="M696.86,507.25,588.37,527v-7.62l108.49-19.73Zm0,14.44L588.37,541.42V549L696.86,529.3Zm0,22L588.37,563.47v7.61l108.49-19.72Zm0,22L588.37,585.52v7.62l108.49-19.73Zm0-130.81L677,438.59V445l19.85-3.61Z"/><path class="cls-27" d="M736.81,382.3c10.1,1.57,15.69,4.35,21.93,18.53,6,13.59,18.92,41.45,22.74,59.18s2.9,27-10.56,27.53c-15,.62-26.27-31.59-28.62-46.71-2.47-15.81-5.68-30.17-5.68-30.17a79.08,79.08,0,0,1-11.72-1.89c-5.49-1.42-10.52,3.29-12.3.56s4.07-7,11.79-6.91a19,19,0,0,0-9.17.07c-5.36,1.25-7.12,1.48-7.69-.57s6.25-5.47,11-5.59,7.15-.4,7.15-.4-8.49-1.64-12.76.34-7.71,4.14-8.81,1.89,4.79-6.81,11.34-8.36,8-1,8-1-8.14-.6-12.49,1.2-6.19,3.36-7.63,1.59,2.25-5.37,8.79-7.68S725,380.47,736.81,382.3Z"/><path class="cls-61" d="M710.62,434.09V434a1.87,1.87,0,0,0-.55-1.56,1.39,1.39,0,0,0-.31-.23c-1.51,1-2.45,2-2.23,2.8h0a2.83,2.83,0,0,0,.28.2,1,1,0,0,0,.18.23,1.42,1.42,0,0,0,2,.06A2.34,2.34,0,0,0,710.62,434.09Z"/><path class="cls-61" d="M712.36,441.94a1.79,1.79,0,0,0,2.38-.5,2.12,2.12,0,0,0-.58-2.64l-.2-.16C712.67,439.71,712.05,440.9,712.36,441.94Z"/><path class="cls-61" d="M706.24,423.37a1.43,1.43,0,0,0-.06-1.56,1.37,1.37,0,0,0-1.45-.55l-.27.11c-1.33,1.3-1.79,2.53-1.12,3.36a2.17,2.17,0,0,0,.82.64l.08-.06A5.12,5.12,0,0,0,706.24,423.37Z"/><path class="cls-61" d="M706.46,431.45a2.25,2.25,0,0,0,.92-1.34,1.43,1.43,0,0,0-.46-1.49,1.4,1.4,0,0,0-1.55-.16,2.6,2.6,0,0,0-1,1h0a1.93,1.93,0,0,0-.24,1.79,1.75,1.75,0,0,0,.47.59,1.58,1.58,0,0,0,1.86-.42Z"/><path class="cls-27" d="M432.16,546.58c6.38-.88,13.26-2.49,12.57-5.25-.56-2.22-5.09-2.52-10-2.15,3.69-.93,6.59-2.2,6.05-3.9-1.36-4.26-24.34-.58-24.34-.58s4.43-2.09,6-2.88c2.41-1.23,5.32-3.59,2.57-5.34s-16.66,2.67-35.94,9.56c-20.34,2.27-69.4-.35-69.4-.35s-.8-12,5.53-39.33c3.16-13.7,15.06-39.39,20.69-50.92,0,0-.07-8.14-12.26-17.59a30.87,30.87,0,0,0-17-6A154.52,154.52,0,0,0,288.56,485c-7.52,40-6.7,74.39,17.34,83.09s89.53-2.21,97.13-3.25,34.59-3.39,34-8c-.32-2.3-4-3-7.6-3.14,6.45-.45,15-1.62,14.86-4.63C444.11,546.62,438,546.31,432.16,546.58Z"/><path class="cls-61" d="M420.76,545.74a2.24,2.24,0,0,0-.62.39,2.88,2.88,0,0,0-.82.49,1.41,1.41,0,0,0-.06,2,3.41,3.41,0,0,0,2.62.73c1.07-.61,1.65-1.3,1.4-2.1S422.11,546,420.76,545.74Z"/><path class="cls-61" d="M422,560.15c-.09,1.48,1.17,2,2.49,2,1.25-.57,2-1.27,2-2.15s-.94-1.5-2.32-1.87C423,558.42,422.07,559,422,560.15Z"/><path class="cls-61" d="M426.89,552.8c-.23-.89-1.13-1.44-2.45-1.75-1.24.56-2.25,1.51-1.92,2.81.29,1.08,1.32,1.42,2.45,1.41C426.35,554.59,427.13,553.77,426.89,552.8Z"/><path class="cls-61" d="M408.75,539.14c-.79-.5-2.57-.45-5.17,0a1.33,1.33,0,0,0,1,1.21,11.76,11.76,0,0,0,4.61-.25,1.37,1.37,0,0,0,.43-.16A2.39,2.39,0,0,0,408.75,539.14Z"/><path class="cls-62" d="M504.29,677.23H622.84a5.09,5.09,0,0,1,5.09,5.09v1.15a0,0,0,0,1,0,0H499.2a0,0,0,0,1,0,0v-1.15A5.09,5.09,0,0,1,504.29,677.23Z"/><polygon class="cls-31" points="533.95 568.39 518.06 617.96 563.85 627.19 609.9 617.78 593.11 568.39 533.95 568.39"/><path class="cls-63" d="M596.93,675.15l-69.76.38,8.32-101.13,53.44,1.89Zm-33.08-68a17.3,17.3,0,1,0,17.29,17.3A17.3,17.3,0,0,0,563.85,607.15Z"/><path class="cls-64" d="M603.34,683.47H523.72L534,568.39h59.16Zm-39.49-73.58a17.3,17.3,0,1,0,17.29,17.3A17.3,17.3,0,0,0,563.85,609.89Z"/><polygon class="cls-63" points="593.35 571.04 593.11 568.39 533.95 568.39 533.71 571.04 593.35 571.04"/><path class="cls-65" d="M907.84,228.7a24.28,24.28,0,0,0,0-48.55c-.69,0-1.36,0-2,.1a36.43,36.43,0,0,0-68.82.11,22.9,22.9,0,0,0-3-.21,24.14,24.14,0,0,0-10.7,2.51,31.27,31.27,0,1,0-27.56,46Z"/><path class="cls-66" d="M545.26,247a4.1,4.1,0,1,0,0-8.2l-.35,0a6.16,6.16,0,0,0-11.63,0,4,4,0,0,0-.5,0,4.09,4.09,0,0,0-1.81.43,5.28,5.28,0,1,0-4.66,7.77Z"/><path class="cls-65" d="M20.26,224.9a6.77,6.77,0,0,1,0-13.54,5.3,5.3,0,0,1,.57,0,10.16,10.16,0,0,1,19.2,0,5.69,5.69,0,0,1,.83-.06,6.78,6.78,0,0,1,3,.7,8.72,8.72,0,1,1,7.68,12.84Z"/><path class="cls-65" d="M234.57,120a32.38,32.38,0,1,0-11-62.79,50.08,50.08,0,0,0-96.27-2.08A34.89,34.89,0,1,0,109.41,120Z"/><circle class="cls-27" cx="653.47" cy="261.82" r="15.46" transform="translate(59.91 640.31) rotate(-54.36)"/><circle class="cls-37" cx="653.47" cy="261.82" r="8.15" transform="translate(-34.01 110.35) rotate(-9.41)"/><path class="cls-27" d="M596.18,271c3.55,21.51,9.13,38.37,29.73,34.73,18.15-3.68,31.06-22.66,27.51-44.16s-14.81-38.25-38-34.18C587.56,232.29,592.64,249.51,596.18,271Z"/><path class="cls-37" d="M603.5,276a6.77,6.77,0,0,1-4.22,7.41,72.65,72.65,0,0,1-3.1-12.35c0-.23-.07-.46-.11-.69A6.78,6.78,0,0,1,603.5,276Z"/><path class="cls-37" d="M627.86,272a6.77,6.77,0,1,0,5.58-7.79A6.78,6.78,0,0,0,627.86,272Z"/><path class="cls-67" d="M613.36,260.19l-4.8,14.18a2.39,2.39,0,0,0,2.58,3.13l8-1.06Z"/><path class="cls-41" d="M651.24,249.62l2.18,12-4.18.93c-.2-3-2.2-10.12-2.9-12.45Z"/><path class="cls-44" d="M636.45,250.69c-.74,0-1.45-.13-2.16-.2l-1.06-.07c-.36,0-.7-.07-1.05-.06-.7,0-1.39-.07-2.08,0a19.77,19.77,0,0,0-2,.13,21.56,21.56,0,0,0-4,.83,19.4,19.4,0,0,0-3.74,1.62l-.09,0a.63.63,0,0,1-.86-.24.62.62,0,0,1,0-.68,9.87,9.87,0,0,1,3.74-3c.18-.09.36-.19.54-.27l.56-.21.56-.21.58-.17a17.12,17.12,0,0,1,2.35-.46,16.5,16.5,0,0,1,4.71.22,21.89,21.89,0,0,1,2.25.59,22.19,22.19,0,0,1,2.11.94.64.64,0,0,1-.31,1.21Z"/><path class="cls-44" d="M607.14,255c-.61.06-1.2.06-1.78.06s-1.15.05-1.72,0l-1.66.1c-.54.09-1.09.09-1.61.21a11.5,11.5,0,0,0-3,.85,7.74,7.74,0,0,0-1.3.76,7.3,7.3,0,0,0-1.13,1l-.14.14a.61.61,0,0,1-.88,0,.63.63,0,0,1-.18-.55,4.88,4.88,0,0,1,.88-2,8.57,8.57,0,0,1,.68-.79,10.28,10.28,0,0,1,.81-.67,8.64,8.64,0,0,1,3.77-1.49,14.39,14.39,0,0,1,2-.16,17.36,17.36,0,0,1,1.91.16c.62.11,1.25.24,1.85.41a16.15,16.15,0,0,1,1.75.67.65.65,0,0,1-.2,1.23Z"/><path class="cls-58" d="M625.57,282.11c.42,2.52-2.64,5.13-6.84,5.83s-8-.77-8.37-3.29,3.35-1.22,7.55-1.92S625.14,279.59,625.57,282.11Z"/><path class="cls-68" d="M618.63,229.87l-5.59-2c-19.83,6.14-19.55,15.78-19.55,20.22C593.52,248.09,614,239.77,618.63,229.87Z"/><path class="cls-29" d="M643.44,219.47,601.72,218l-11.67,16.63,3.5,9c.8-1.58,1.11-4.22,3.83-6.91a25,25,0,0,0,12.8-.52c2.05-.72,6.16-4.3,8.45-6.38,5.43.31,10.51,2.14,12.17,5.06,6.8,12.06,11.71,4.84,15.54,15.13l4.9-.44Z"/><circle class="cls-69" cx="533.48" cy="457.52" r="11.37" transform="translate(-3.59 910.83) rotate(-80.78)"/><path class="cls-70" d="M927.84,498.28c-1.22-20.86-52.63-14.56-75.68,20.85s-50.34,110-50.34,110l9.09,2.88s37.56-101.27,59.73-108.12S929.12,520,927.84,498.28Z"/><polygon class="cls-71" points="819.91 581.97 790.92 601.29 790.92 683.43 849.86 683.43 849.86 601.29 819.91 581.97"/><rect class="cls-45" x="849.86" y="601.29" width="19.97" height="82.13"/><polygon class="cls-69" points="839.88 581.97 819.91 581.97 849.86 601.29 869.83 601.29 839.88 581.97"/><rect class="cls-44" x="820.39" y="622.53" width="6.25" height="11.55"/><rect class="cls-44" x="820.39" y="650.64" width="6.25" height="11.55"/><rect class="cls-34" x="849.86" y="642.36" width="51.61" height="41.07"/><polygon class="cls-45" points="921.87 642.36 911.46 614.89 901.47 642.36 901.47 683.43 921.87 683.43 921.87 642.36"/><polygon class="cls-44" points="859.86 614.89 849.86 642.36 901.47 642.36 911.46 614.89 859.86 614.89"/><rect class="cls-44" x="872.54" y="667.77" width="6.25" height="15.65"/><rect class="cls-60" x="908.55" y="667.77" width="6.25" height="15.65"/><path class="cls-38" d="M476.58,307.69a1.37,1.37,0,1,1-.82-1.76A1.38,1.38,0,0,1,476.58,307.69Z"/><path class="cls-38" d="M629.54,258.8a1.37,1.37,0,1,1-.82-1.76A1.38,1.38,0,0,1,629.54,258.8Z"/><path class="cls-38" d="M601.68,264.34a1.37,1.37,0,1,1-.82-1.75A1.36,1.36,0,0,1,601.68,264.34Z"/></g></g></g></svg>