<svg id="Calque_1" data-name="Calque 1" xmlns="http://www.w3.org/2000/svg" viewBox="0 0 710.39 967.73"><defs><style>.cls-1{fill:#23589f;}.cls-2{fill:#d0d8db;}.cls-3{fill:#1d1d1b;}.cls-4{fill:#141614;}.cls-5{fill:#f1b59a;}.cls-6{fill:#f7c50a;}.cls-7{fill:#f3b69b;}.cls-8{fill:#f1b59b;}.cls-9{fill:#eeb69d;}.cls-10{fill:#ce836b;}.cls-11{fill:#c8dbe0;}.cls-12{fill:#ede0a0;}.cls-13{fill:#eeeda6;}.cls-14{fill:#f8faf7;}.cls-15{fill:#fdfdfd;}.cls-16{fill:#0e0e0c;}.cls-17{fill:#262a47;}.cls-18{fill:none;}</style></defs><title>accueil-appli-nv</title><path class="cls-1" d="M565.34,592.27c-6.27-9.11-12.31-18.39-18.9-27.27-3.83-5.16-8.48-9.73-12.9-14.44-.83-.89-2.3-1.19-3.48-1.75a37.68,37.68,0,0,0-2.79-4.47c-3.75-4.52-7.62-8.93-11.44-13.38-8.25-11.64-13.8-24.56-17.9-39.4-4.85,10.28-9.19,19.35-13.4,28.49-1.78,3.87-3.26,7.88-4.88,11.83a39,39,0,0,0-2.38,3.76c-5.61,11.32-11.14,22.67-16.74,34-13.86,28-27.89,56-46.7,81.17-20.87,28-47.52,46.38-83,49.47a150,150,0,0,1-76.18-13.39c1.61-5.66,2.5-11.65,4.93-16.93,12.7-27.51,29.2-52.81,46.27-77.75,5.58-8.16,11.26-16.24,16.9-24.35l6-7.93h0l6-8h0l12.95-17,0,0,1.73-1.75a78.29,78.29,0,0,0,6.18-5.75c10.93-12.44,21.24-25.49,32.75-37.36C414.57,463,440.8,435.91,471,413.15c11.45-8.61,23.43-16.35,37.66-19.64,6.56-1.51,12.64-.38,17.4,4.68A137.17,137.17,0,0,1,536,410c3.65,4.87,6.94,10,10.39,15,3.71,8.29,7.79,16.43,11.06,24.89,9.83,25.51,19.7,51,28.86,76.76,6.49,18.24,11.85,36.89,17.72,55.35a43.8,43.8,0,0,1-29.78,10C571.27,592,568.3,592.19,565.34,592.27Z"/><path class="cls-2" d="M264,230.16c10.74-17.32,21.12-34.89,32.32-51.91a343.74,343.74,0,0,1,52.34-62.34c2.66-2.49,5.43-4.89,8.32-7.1,3.39-2.59,6.87-5.24,11.62-3.57,4.69,2.69,9.62,5,14,8.13,6.27,4.44,12.14,9.45,18.18,14.22-.71,3-.73,6.51-2.22,9.11-15.56,27.06-31.49,53.92-47.06,81C332.19,251.25,317.6,287,306.59,324a645.77,645.77,0,0,0-17.33,72.39c-4,22.88-4.1,46.2,2.4,69a98.45,98.45,0,0,0,21.15,38.48c-6.12,3.42-12.85,6.08-18.19,10.45-6.24,5.11-12.35,11-16.46,17.87-2.91,4.84-2.4,11.73-3.42,17.71-3.81,1.41-7.6,2.87-11.42,4.23-5.5,2-11,3.85-16.53,5.77,1.84-3.3,3.8-6.53,5.42-9.92a4,4,0,0,0-.29-3.49c-.43-.59-2.79-.77-3.07-.33-2.83,4.31-5.46,8.76-7.92,13.29-.18.32,1.33,1.57,2,2.38-7.52,2.35-14.91,5.56-22.61,6.85-10.87,1.82-14.59-.73-18.54-11.15a61.47,61.47,0,0,1-3.44-14.93c-1-8.66-1.47-17.38-1.73-26.09-.09-2.84.37-5.95-3-6.25-3.61-.32-3.85,3-3.71,5.73.26,5.13.29,10.29,1,15.35,1.34,9.13,2.33,18.42,4.9,27.22,4.11,14.1,13.61,18.76,28.07,15.88,17.92-3.57,34.05-11.86,50.83-18.47l7.95,21.92c1.84,3.71.79,6.55-2.37,9.07s-6,5.2-8.95,7.89a208.56,208.56,0,0,1-55.06,36.25c-2.33,1-4.53,2.39-6.79,3.59a42.48,42.48,0,0,0-6.1.67c-21.88,5.52-39.24-1.27-50.43-20.84-4.56-8-8.94-16.62-10.83-25.5-4-18.78-6.28-37.92-9.27-56.91,0-9-.22-18,.11-27,1-25.33,4.83-50.09,15.6-73.35,7.11-15.34,17.53-28.08,30.42-38.93,1.36-1.14,2-3.18,2.89-4.8a11.78,11.78,0,0,1,.89,3.21,128.78,128.78,0,0,0,3.84,32.78c2,8.65,6,15.81,12.66,21.26,11.43,9.36,24.51,3.82,28.18-9.08,2.74-9.6-.62-18.38-1.14-27.5-.49-8.64-2.41-17.2-3.69-25.79l.48-7.83c4.95-1.11,10-1.84,14.82-3.38,16.92-5.42,30.84-24.35,30.73-42.46-.06-11.66-1.17-23.32-1.82-35,7.87-5.41,10.32-15.87,6.44-25.76a11.07,11.07,0,0,1-.1-6.81c1.79-5.81,2.12-12-2.39-15.85-4.79-4.09-6.16-8.7-6.55-14.27A12,12,0,0,0,264,230.16Zm-21.3,215.29c-4.18,1.13-7.83,1.58-10.9,3.16-1.5.78-1.92,3.65-2.84,5.58,1.51.59,3.18,1.92,4.49,1.63,3.41-.72,6.62-2.28,10-3.28,2.31-.7,4.31-1.79,3.18-4.35C246,446.88,243.89,446.24,242.69,445.45Zm-30.32,35c3.89-1.29,7.3-2,10.2-3.57,1.27-.7,1.69-3.25,2-5.05.08-.41-2-1.87-2.83-1.66a126.34,126.34,0,0,0-13.35,4.12c-.57.21-1,2.88-.52,3.4C209.13,479,211,479.67,212.37,480.46Zm-32-27.78c-.76.87-2.29,1.87-2.17,2.62.21,1.32,1.17,3.24,2.25,3.59,5.31,1.74,10.75,3.11,16.19,4.42.84.21,1.91-.56,2.88-.88-.34-1-.42-2.64-1.05-2.9C192.69,457.18,186.8,455.07,180.38,452.68ZM332.78,201l.91-1.62c-1.22-1.24-2.41-3.49-3.67-3.53a79.24,79.24,0,0,0-13.84.92c-1,.14-2.38,2.39-2.25,3.52s2.11,2.64,3.19,2.57C322.35,202.47,327.56,201.64,332.78,201Zm-103,313.92c3.09-1.21,5.7-1.39,6.53-2.7a55.66,55.66,0,0,0,5.1-11.18c.34-1-.82-3.35-1.76-3.66-1.11-.37-3.58.44-4,1.37C233.64,503.49,232.07,508.47,229.8,514.89Zm97-300.92c-1.07.85-2.52,1.43-2.95,2.44-1.22,2.93-2.66,6-2.73,9.08,0,1.44,2.93,4.25,4.41,4.17,3.51-.19,6.36-11.14,3.86-13.71A23.16,23.16,0,0,0,326.77,214ZM230.7,604.14c-.07-.86-.15-1.72-.22-2.58-2-.55-4.28-1.93-6.06-1.48a50.12,50.12,0,0,0-10.71,4.43c-.69.36-1,2.58-.57,3.6.33.84,2.18,1.88,3,1.62C221,608.05,225.84,606,230.7,604.14ZM168,553.4a15.23,15.23,0,0,0,1.51-1.19c3.06-3,6.23-5.88,9.06-9.06,1-1.14,1.21-3,1.78-4.54-1.93.23-4.33-.18-5.69.82-2.88,2.1-5.16,5-7.79,7.46C164,549.62,164.75,551.59,168,553.4Zm89.63-160.56c-1,2-2.66,3.8-2.37,5.16a54.29,54.29,0,0,0,3.8,10.67c.36.81,2.4,1.71,3,1.38,1.24-.64,3-2.43,2.82-3.24a111.93,111.93,0,0,0-4.44-12C260.28,394.22,259.31,393.94,257.66,392.84Zm49.07-171.75a3.12,3.12,0,0,0-5.29-2.26,47.15,47.15,0,0,0-7.24,9.07c-1.75,2.72.53,3.82,2.74,4.06S306.81,223.32,306.73,221.09ZM159.05,494.18c5.33,1.3,13.76-7,13.92-13.24C168.13,479.71,161.66,485.75,159.05,494.18ZM175.77,428c-1.61-1.4-2.73-2.89-4.18-3.41-.67-.23-2.45,1.23-3,2.29A87.28,87.28,0,0,0,164.52,437c-.36,1.05.13,2.39.23,3.61,1.4-.14,3.57.24,4.06-.5C171.27,436.46,173.28,432.48,175.77,428ZM283.91,236l-2.2.67c-.88,1.56-2.87,3.6-2.44,4.59a43.74,43.74,0,0,0,5.94,9.6c.68.84,2.85.51,4.33.71.18-1.43.92-3.12.42-4.25a92.39,92.39,0,0,0-4.67-8.11A32.64,32.64,0,0,1,283.91,236Zm10.5,31.84c-3.49,3.2-7,6.16-10.13,9.47-.79.83-.44,2.75-.61,4.18,1.6,0,3.59.51,4.72-.24,2.43-1.63,4.32-4,6.62-5.91C297.82,273,298.14,270.89,294.41,267.81ZM268.53,453.14c-2.44-3.62-4.57-7.33-7.31-10.53-.88-1-3.36-.67-5.1-.95,0,1.43-.5,3.16.13,4.22a80.53,80.53,0,0,0,5.57,7.51C264.12,456.42,266.28,456.16,268.53,453.14ZM209.16,593l2.56-1.46c-.77-1.09-1.33-2.83-2.35-3.16a88.23,88.23,0,0,0-12.49-3.17c-1.14-.19-2.57,1.24-3.86,1.93.88,1.18,1.57,3.12,2.68,3.41C199.85,591.6,204.13,592.13,209.16,593Zm5.6-43.92V549c-2,0-4-.35-5.89.13a4.21,4.21,0,0,0-2.4,3c-.11.76,1.4,2.49,2.27,2.55a83.55,83.55,0,0,0,11.84,0c.81-.06,2.07-1.72,2.08-2.66a3.54,3.54,0,0,0-2-2.75C218.78,548.78,216.74,549.07,214.76,549.07ZM285,311.28c1.17,1.24,2.05,2.88,3.26,3.2.84.21,2.56-1.17,3.18-2.24a33.48,33.48,0,0,0,3.11-7.29c.39-1.34-.15-2.94-.28-4.42-1.81.37-4.53.13-5.24,1.22C287.27,304.43,286.43,307.71,285,311.28Zm66-163.94c-.72-1-1.12-2.27-1.78-2.44-1.15-.29-3.1-.4-3.6.25A102.52,102.52,0,0,0,339,155.37c-.24.43.56,2,1.22,2.29.92.42,2.75.63,3.17.11C346.07,154.47,348.45,150.94,351,147.34ZM208.68,499.43c.45-.42,2.28-1.37,2.28-2.3a4.49,4.49,0,0,0-2.37-3.48,26.28,26.28,0,0,0-8.68-1.42c-1.28,0-2.52,2-3.78,3,1,1.08,1.88,2.79,3.1,3.11C201.9,499.05,204.75,499,208.68,499.43Zm90.53-293.8c-1.6-1.13-3.07-2.77-4.83-3.17-.94-.22-2.57,1.51-3.52,2.67a7,7,0,0,0-1.39,3.53,33.94,33.94,0,0,0,.15,5.13c1.93-.44,4.33-.32,5.66-1.46C296.9,210.94,297.61,208.5,299.21,205.63Zm17.68,31.73c-2.09-.77-3.73-2-4.73-1.63A64.07,64.07,0,0,0,302,240.82c-.88.53-1,2.33-1.45,3.54,1.27.34,2.78,1.29,3.75.9a95.49,95.49,0,0,0,9.78-4.84C314.82,240,315.32,239.09,316.89,237.36Zm7.45-80.92c-1,1.55-2.51,2.84-2.3,3.72a61,61,0,0,0,3.55,10.23c.27.61,2.64,1,3.29.56.94-.7,1.86-2.49,1.6-3.52a45.84,45.84,0,0,0-3.15-8.33C326.92,158.21,325.76,157.66,324.34,156.44ZM240.45,397.16c-1.92,2.83-3.74,5-4.93,7.48-.62,1.28-.16,3.1-.05,4.67,0,.24.88.68,1.22.58,1.64-.48,3.9-.66,4.68-1.8a19.41,19.41,0,0,0,2.79-7.35C244.3,400,242.26,398.84,240.45,397.16ZM159.83,465c-1.67-1.61-3.37-4.59-5-4.54-3.69.11-4.13,3.51-3.89,6.68.16,2.14-.82,5.08,3,4.85S159.06,469.45,159.83,465Zm38.08,134.6c-2.94-.18-5.27-1-6.15-.24a35.31,35.31,0,0,0-6.17,7.57c-.56.87.18,2.57.33,3.89,1.43-.27,3.4,0,4.17-.9C192.61,607.1,194.68,603.93,197.91,599.57Zm-16.63-37.9-1.95.29c-.56,1.62-2.06,4.13-1.51,4.72a32.55,32.55,0,0,0,7.74,6c.75.43,2.57-1,3.91-1.62Zm74.58-36.53,1.84,0c1-1.43,3.15-3.42,2.78-4.2-1.37-2.86-3.58-5.32-5.48-7.92-1.29,1-3.85,2.52-3.67,3A82.25,82.25,0,0,0,255.86,525.14Zm-46.77,6.29c1.13-.89,2.3-1.79,3.47-2.7-.86-1-1.53-2.43-2.64-3A29.82,29.82,0,0,0,203,522.9c-1.12-.28-2.52.51-3.79.81.36,1.3.31,3.28,1.15,3.79C202.9,529,205.77,530,209.09,531.43Zm14.75,2.4c-1.35-1.29-2.68-3.66-4-3.67-4.65,0-2.89,5-4.63,7.36-.25.35,2.5,4.1,3.7,4C222.64,541.26,223.1,538.05,223.84,533.83ZM251.16,429c2.08,0,3.81.32,5.35-.1,1.19-.32,2.12-1.56,3.17-2.4-1.05-.83-2-2.07-3.16-2.4a10.45,10.45,0,0,0-4.91-.06c-2.58.61-7.21-2.05-7.41,2C244,431.08,249,428.1,251.16,429Zm-92.78,115.7c-3.15-3.1-5.49-5.53-8.07-7.67-.19-.16-2.9,1.63-3.05,2.7-.41,3,4.24,8.55,6.46,8.05C155,547.53,156.09,546.31,158.38,544.74Zm14.48,49.58c4.72-4.26,5.26-8.61,2.16-11.05a5.94,5.94,0,0,0-4.42-1c-.78.18-1.82,2.48-1.53,3.45C169.91,588.46,171.37,591.05,172.86,594.32Zm50-77.61c-3.75-2.84-6.19-4.89-8.89-6.53-.36-.21-2.68,1.53-2.89,2.61-.55,2.81,3.95,7.38,6.81,7C219.09,519.64,220.17,518.44,222.86,516.71ZM173,617.87l2.28-.45c.55-2.17,1.48-4.35,1.51-6.53,0-1.64-1.13-3.29-1.76-4.94-1.72.69-4.22.92-4.95,2.18-.84,1.45-.47,3.91.06,5.74C170.57,615.35,172,616.55,173,617.87Zm83.22-132.43-4.33,3a24,24,0,0,0,4.24,3,12.79,12.79,0,0,0,5.29,1.12c1.4,0,2.78-1,4.16-1.53-.76-1.12-1.29-2.68-2.35-3.26C261.39,486.82,259.21,486.41,256.22,485.44Zm-80.76,21.95,7.25-7.16c-1.18-.74-2.3-2-3.55-2.13-3.23-.36-8.48,3.5-7.93,5.8C171.5,505,173.3,505.68,175.46,507.39Zm91.36-.67c2.22,2.46,3.31,4.81,4.77,5.06,3.33.57,5.54-1.82,4.93-5-.35-1.83-2.59-3.84-4.46-4.57C271.24,501.92,269.26,504.56,266.82,506.72Zm-76-32.8h.09c0-.66.24-1.47-.05-1.95C190,470.59,189,469.34,188,468c-1,1.28-2.54,2.41-2.94,3.85a11.71,11.71,0,0,0,.07,5.85c.26.95,1.92,2,3,2.08.84.08,2.24-1.07,2.61-2C191.19,476.69,190.84,475.23,190.84,473.92ZM316.45,264.29l-6.05-7.47c-.89,1.13-2.76,2.6-2.51,3.32a56.39,56.39,0,0,0,4,7.82ZM170,522c-2.38-3.91-6.71-4.07-11.12-.93-.86.62-1.13,2.08-1.67,3.16,1.1.53,2.4,1.74,3.26,1.49C163.69,524.76,166.76,523.32,170,522Zm41.25,97.53L201.1,618a2.18,2.18,0,0,0-1,0,6.58,6.58,0,0,0-2.48,1.29c-.3.34,0,1.59.4,2.12C200.69,624.77,208.19,624,211.26,619.54Zm72.4-138.88c-1.86,2.39-3.8,4.29-3.54,4.66a64.36,64.36,0,0,0,5.77,6.62c.92-.91,2.8-2.24,2.61-2.66A91.85,91.85,0,0,0,283.66,480.66Zm-30.48-13.9c-5.53-2-7.89.62-9.62,4-.49,1-.06,2.41,0,3.63,1.52-.14,3.6.29,4.46-.54C249.91,472,251.24,469.53,253.18,466.76Zm-11.36,67.7c-.46-.33-1.57-1.58-2-1.38a83.73,83.73,0,0,0-8.7,4.8,5.23,5.23,0,0,0,1.34,2.66C234.5,541.85,241.76,537.57,241.82,534.46ZM321.72,184c-4-2.44-9.42-.79-12.59,3.51C312.69,190.23,316.93,189.13,321.72,184ZM262.58,364.49a80.37,80.37,0,0,0-5.42,7.72c-.2.36,1.62,1.85,2.51,2.82,1.92-2.2,3.93-4.32,5.65-6.67C265.52,368.08,264.11,366.61,262.58,364.49ZM236.36,587.91l7.15-5.38c-.92-.74-2.18-2.31-2.71-2.09a90.66,90.66,0,0,0-8.22,4.18Zm-75.06,2.18c-2.05,2.67-4.16,4.25-4,5.44.28,1.58,2.16,3.22,3.75,4.05.51.27,3.3-2,3.31-3.09C164.4,594.81,162.88,593.13,161.3,590.09ZM346,177.27l-3.67-3.83c-1.43,2-3.14,3.85-4.13,6.05-.26.57,1.71,2.16,2.65,3.28ZM236.39,385.49l4.45-4.4c-1.24-1-2.72-3-3.66-2.75-2.18.53-4.11,2.13-6.14,3.3ZM358.12,159.23c-2.73,2-5.43,3.86-8,5.92-.28.22,0,1.79.45,2.12.68.48,2.06.86,2.6.49a60.89,60.89,0,0,0,6.56-5.23,2.53,2.53,0,0,0,.19-2.17C359.79,159.92,358.94,159.71,358.12,159.23Zm-71,182c3.25-1.84,5.15-6.36,3.15-8.1-1-.83-4-1.08-4.36-.5C284,335.61,284,338.74,287.1,341.22Zm-9.17,132.52c-2.17-1.64-3.78-3.68-4.72-3.41a7.27,7.27,0,0,0-4.09,3.77c-.29.65,2.22,3.64,3,3.47C273.91,477.17,275.44,475.5,277.93,473.74ZM358.85,126.8l5.5-7.54c-.94-.68-2.55-2.1-2.73-1.94a52.39,52.39,0,0,0-5.75,6.07C355.75,123.54,357.25,125,358.85,126.8Zm-8.48,68.87,5.22-4.66c-1.72-.92-3.38-2.36-5.18-2.57-1.12-.13-2.45,1.61-3.69,2.51Zm-91.61,397.9c3.14-1,5.71-1.5,8-2.62.73-.36.95-2.31.87-3.5,0-.54-1.66-1.58-2.08-1.38C262.76,587.39,259.28,588.14,258.76,593.57ZM381.83,137.23l5.77-3.88c-.88-.88-2.09-2.65-2.59-2.47a55.68,55.68,0,0,0-6.94,3.5ZM257.54,547.47c1.52,2,2.37,3.14,3.22,4.28a32.08,32.08,0,0,0,3.83-5c.19-.35-2-2.8-2.72-2.63C260.47,544.51,259.35,546,257.54,547.47Zm-95.92,28.68c-2.41-1.57-3.75-3.14-4.94-3s-2.45,1.78-3.67,2.77c1.2,1.29,2.21,3.17,3.68,3.65C157.58,579.81,159.17,577.91,161.62,576.15ZM225.09,496c-2.05-1.74-3.34-3.68-4.56-3.64s-2.36,2.08-3.53,3.24c1.24,1.11,2.34,2.75,3.77,3.15C221.67,499,223.08,497.34,225.09,496Zm141.54-356.1c-4-1.41-6.08.31-7.45,3.2-.15.31,1.28,2,2,2C364.48,145.28,366.24,143.51,366.63,139.88Zm10,5.62-3.87,4.29c1,.84,2.05,2.39,3,2.33,1.29-.07,2.52-1.37,3.77-2.14C378.74,148.76,378,147.55,376.62,145.5Zm-100.9,233-3.07-.3c-.44,1.9-.87,3.79-1.31,5.69l4.38.1Z"/><path class="cls-3" d="M132.91,532.12c3,19,5.28,38.13,9.27,56.91,1.89,8.88,6.27,17.51,10.83,25.5,11.19,19.57,28.55,26.36,50.43,20.84a42.48,42.48,0,0,1,6.1-.67l3.69,10.23a72.45,72.45,0,0,0,18.18,27.48c6.7,6.45,14.2,11.7,23.21,14.48a150,150,0,0,0,76.18,13.39c35.51-3.09,62.16-21.52,83-49.47,18.81-25.19,32.84-53.13,46.7-81.17,5.6-11.33,11.13-22.68,16.74-34a39,39,0,0,1,2.38-3.76c10.77-4.62,21.66-5.93,32.8-1.27a12,12,0,0,0,3.38.35c3.82,4.45,7.69,8.86,11.44,13.38a37.68,37.68,0,0,1,2.79,4.47c.48,5.55-2.37,8.72-7.43,10.3a8.38,8.38,0,0,1-1.39.52c-14.46,1.74-21.42,11.72-25.58,24.13a212.64,212.64,0,0,0-7.35,27.38q-15.8,82.14-90.62,119.13c-1,.51-2,1.11-3.49,1.93,3.31,11.47,6.64,22.91,9.91,34.36q24.34,85.07,48.66,170.13c1.85,6.47-.14,10.83-5.49,12.4-4.89,1.43-9-1.08-11-7.43q-14.4-44.56-28.57-89.21c-.45-1.41-.91-2.82-1.41-4.34H218c-4.34,13.49-8.73,27-13.07,40.62-5.66,17.73-11.23,35.48-16.93,53.19-2,6.32-6.44,8.84-11.6,6.93-4.93-1.82-6.68-5.84-5-11.86q8.88-31.15,17.85-62.29L229,736.41a27.08,27.08,0,0,0-2.78-1.53c-55.92-23.58-89.75-65-101.34-124.72-2-10.35-5.65-20.46-9.37-30.38-3.53-9.41-10.43-15.67-20.71-17.55a33.65,33.65,0,0,1-5.29-1.44c-8.16-2.87-10-8.39-5-15.41,9.3-13.07,22.14-18.07,37.82-15.9C125.89,530,129.38,531.22,132.91,532.12Zm88.93,304.65c1.48.64,3,1.84,4.45,1.84q85.57.15,171.17,0c1.39,0,2.78-1,4.18-1.55a25.18,25.18,0,0,0-.5-5c-5.78-18.37-11.66-36.7-17.49-55C379.8,765,376,752.82,372.08,740.46c-40.13,12.94-80.26,13.86-120.76,2.81-2.36,7.44-4.59,14.37-6.78,21.32Q233.19,800.68,221.84,836.77Zm82.32-101c7.77-.72,15.58-1.24,23.3-2.31,1.71-.24,4.53-2.51,4.47-3.73-.18-3.53-3.17-2.79-5.73-2.47-4.94.62-9.9,1.26-14.87,1.48-26.89,1.14-52.45-4.64-77-15.19-1.22-.52-2.5-1.51-3.66-1.4a5,5,0,0,0-3.4,2.09c-.43.77.14,2.63.88,3.4a11.33,11.33,0,0,0,3.91,2.11C255.12,729.26,279,735.14,304.16,735.8Zm-106-42a17.46,17.46,0,0,0-1-2.08,3.89,3.89,0,0,0-1.06-1c-7-4.94-11.7-11.57-15.26-19.26-.57-1.24-3-1.63-4.57-2.41-.42,1.58-1.61,3.46-1.13,4.7a48,48,0,0,0,16.78,21.74,5.78,5.78,0,0,0,4.06.7C196.82,696,197.42,694.58,198.12,693.76Z"/><path class="cls-4" d="M180.84,372.16c-12.09,3.09-19.27,0-24.58-10.67-14.32.22-19.36-3.28-22.61-15.66-13.48-2.54-20.16-13.54-13.81-27.24-14.11-5.08-19.9-22-6.47-36.3-9-15.3-4.6-28.78,6.36-41.36-3.78-1.24-7.57-2.12-11-3.69-9.46-4.26-13.22-11.34-12.2-21.62A5.94,5.94,0,0,0,95,211.47c-8.87-9.19-8.49-20.22.94-28.81a6.74,6.74,0,0,0,1.87-4.52c0-11.92,8.76-20,20.66-18.65,2.34.26,3.77.17,5.38-2,9-12.12,25.7-12.6,35.89-1.4,1.07,1.18,3.14,2.31,4.6,2.14,17.42-2,29.85,12,25.62,29.13a8.72,8.72,0,0,0-.17,1.08c4,2,7.72,4,11.79,6,12.71-7.09,27.06.92,29.52,14.68-1.57,0-3.15,0-4.73,0-6.26,0-12.65-.83-18.78.09-50.71,7.57-71.56,56.58-58.5,96.88-8.48,5.58-11.23,12.91-6.79,20.46a24.62,24.62,0,0,0,8.46,7.91c4.7,2.84,9.53.93,13.26-1.37,5.14,7.08,10,13.74,14.82,20.46a6.57,6.57,0,0,1,1.19,3.14C180.37,361.88,180.58,367,180.84,372.16Z"/><path class="cls-5" d="M180.84,372.16c-.26-5.14-.47-10.28-.84-15.41a6.57,6.57,0,0,0-1.19-3.14c-4.8-6.72-9.68-13.38-14.82-20.46-3.73,2.3-8.56,4.21-13.26,1.37a24.62,24.62,0,0,1-8.46-7.91c-4.44-7.55-1.69-14.88,6.79-20.46l6.8-.19c8.56,3.76,9.9,3.68,15.47-3.85a49.41,49.41,0,0,0,6.28-12.3c1.23-3.34,1.35-7.09,1.81-9.73,5.94-1.26,11.82-1.5,16.69-3.83s9-6.84,13.61-10.51c9.32,6.81,12.52,7.18,25.23,2.47,7.42,7.8,16.22,8.48,26.33,4.13,1.93,7.56,3.77,14.76,5.6,22,.65,11.67,1.76,23.33,1.82,35,.11,18.11-13.81,37-30.73,42.46-4.81,1.54-9.87,2.27-14.82,3.38-.64-.66-1.24-1.85-1.92-1.9-9.93-.66-18.7-4.67-27.34-9.15a1.29,1.29,0,0,0-.17-.33c-.05-.06-.17-.05-.26-.07l.43.41c6.42,11.13,16.09,17.29,28.78,18.87,1.28,8.59,3.2,17.15,3.69,25.79.52,9.12,3.88,17.9,1.14,27.5-3.67,12.9-16.75,18.44-28.18,9.08-6.66-5.45-10.62-12.61-12.66-21.26a128.78,128.78,0,0,1-3.84-32.78,11.78,11.78,0,0,0-.89-3.21Q181.39,380.12,180.84,372.16Zm30.68-37.3a20,20,0,0,0,18.94,15.19c7.1.12,13.21-4.22,14.93-10.73Zm26.95-15-10.34,3.7c5.25,3.8,10,3.11,13.78-.92,3.6-3.81,1.3-6.66-1-10-2.46-3.62-4-7.84-6.16-11.68-.6-1.08-1.94-1.73-2.94-2.58-.38,1.21-1.39,2.68-1,3.61C233,307.7,235.61,313.31,238.47,319.87Zm-31.42-23.22a87.92,87.92,0,0,0-6.85,6c-.51.53.26,2.3.44,3.5,1.06-.48,2.63-.66,3.08-1.48,1.76-3.14,4.11-3.35,7.16-2.3a23,23,0,0,0,4.58.66,27.69,27.69,0,0,0-3.29-4.8C211.34,297.46,209.73,297.44,207.05,296.65Zm52.87,2.07a9.71,9.71,0,0,0-.38-2c-2-3.35-5.32-5.28-8.79-4.08-2.74.95-4.83,3.85-7.06,6a3.28,3.28,0,0,0,1.29,2.19,2.71,2.71,0,0,0,2.45-.88c2.45-4.1,5.18-3.87,8.6-1.17C256.79,299.43,258.52,298.79,259.92,298.72Z"/><path class="cls-6" d="M475.57,198.19c0-5.41.52-10.87-.06-16.2-.35-3.15-2.7-6-3.63-9.17-2.56-8.68-6.57-17.37-6.91-26.18-.83-21.53,7.87-39.31,26.61-50.69,24.12-14.64,51.86-11.67,72.46,7.76,9.22,8.7,14.45,20.19,16.37,32.85a57.93,57.93,0,0,1-44,65.15c-7.52,1.7-13.59,5-17.69,11.7-.48.78-1.5,1.22-2.27,1.82L504,210.4c5.7-10.22,11.16-19.52,16.11-29.1,2.53-4.89,4.22-9.17,11.48-7.5a9.26,9.26,0,0,0,10.76-6.28c1.39-3.82.32-7.19-3-9.74-4.21-3.26-9.84-2-13.55,3.73-2.55,3.94-4.86,5.92-9.5,3.05-2.64-1.64-7-1.7-8.37-3.87s-.1-6.06.1-9.2c.33-5.11-3.06-9.66-7.62-10.13a8.86,8.86,0,0,0-9.45,7.79c-.51,4.9,2.33,8.39,5.75,11.58,1.25,1.18,2.88,3.37,2.54,4.59-3.55,12.58-7.48,25.06-11.53,38.31Z"/><path class="cls-7" d="M565.34,592.27c3-.08,5.93-.31,8.89-.24A43.8,43.8,0,0,0,604,582c7.8,30.69,17,60.87,36,86.86C644.42,675,650.4,680,655.7,685.48c2.42,2.52,5.41,5,3.74,9-1.74,4.17-5.42,5.22-9.76,5.53-9.86.72-17.88-3.82-25.34-9-18.81-13.13-37.71-26-58.68-35.59-3.68-1.69-7-4.56-9.94-7.4-7.48-7.18-7.89-13.46-2.53-22.29,3.52-5.79,7.2-11.62,9.6-17.9C564.62,603,564.56,597.46,565.34,592.27Z"/><path class="cls-4" d="M266.88,294.3c-1.83-7.2-3.67-14.4-5.6-22-10.11,4.35-18.91,3.67-26.33-4.13-12.71,4.71-15.91,4.34-25.23-2.47-4.6,3.67-8.61,8.12-13.61,10.51s-10.75,2.57-16.69,3.83c-.46,2.64-.58,6.39-1.81,9.73a49.41,49.41,0,0,1-6.28,12.3c-5.57,7.53-6.91,7.61-15.47,3.85.09-7.29-.7-14.71.42-21.84,6.47-41,41.49-68.49,82.66-65,4.42.37,8.83.9,13.25,1.35,5.05,1.87,9.3,4.71,11.8,9.7a12,12,0,0,1,.29,1.45c.39,5.57,1.76,10.18,6.55,14.27,4.51,3.85,4.18,10,2.39,15.85a11.07,11.07,0,0,0,.1,6.81C277.2,278.43,274.75,288.89,266.88,294.3Z"/><path class="cls-8" d="M651.79,268.75c-6.58-10.47-16.32-16.94-27.48-21.58,4.85-12,8.9-24.29,6.91-37.31-2-12.73-5.34-25.23-7.88-37.88-1-4.94-2.38-10.12-1.78-15,.72-5.82,5.42-7.93,10.4-4.7a39.72,39.72,0,0,1,11.45,11.36c6.5,10,12,20.7,18.21,30.91,5,8.22,10.75,16,15.69,24.25a40.1,40.1,0,0,1,4.92,12.39c1.89,9.25-2.49,15.78-9.92,21.1C665.2,257.42,658.61,263.25,651.79,268.75Z"/><path class="cls-5" d="M400.78,127.59c-6-4.77-11.91-9.78-18.18-14.22-4.39-3.11-9.32-5.44-14-8.13,2.86-14.29,5.62-28.61,8.62-42.87,2-9.24,4.25-18.41,6.42-27.61.34-1.45.38-3.31,1.31-4.22,1.85-1.83,4.22-3.14,6.38-4.67,1.45,2.17,4.12,4.31,4.16,6.5.16,8.78-.5,17.58-.85,26.37,0,.82,0,1.64,0,3,6.17-2.61,10.85-1.24,13.93,4.67,5.22-1.56,10.27-2.5,13.72,3.82,6-8.57,11.53-16.82,17.43-24.81,2.22-3,4.45-7.9,9.29-5.42s3.12,7.45,1.44,11.09c-6.24,13.54-12.9,26.88-19.41,40.29-1.62-.77-3.2-1.65-4.86-2.3-4.11-1.61-4.56-4.46-3.28-8.27.54-1.62.32-3.49.45-5.24l-2-.57-3.86,8.48-7.56-1.8c-.2-4-.39-7.59-.58-11.22l-1.68-.26a35,35,0,0,0-1.74,4.17c-1.47,5.23-2.69,10.54-4.29,15.74-1,3.22-2.69,6.93-6.72,5.92s-4.38-5-3.7-8.62c1-5.2,2.16-10.35,3.13-15.55a34.59,34.59,0,0,0,0-5.33c-1.65,1.21-2.43,1.47-2.6,2-2.83,8.2-5,16.56-3.87,25.3a7.05,7.05,0,0,0,3.67,4.8c2.67,1,5.8.89,9.27,1.3,2.13,6,7.49,4.6,12.61,3.83a18.93,18.93,0,0,0,2.94-.94,21.35,21.35,0,0,0-1.9-3c-2.53-2.8-5.36-5.35-7.63-8.34A4.63,4.63,0,0,1,407,87a4.76,4.76,0,0,1,4.2-1.24c2.82.85,5.41,2.45,8.13,3.66,3.71,1.65,7.46,3.24,11.19,4.85,6.12,4.69,4.71,11.23-1.67,19C421.73,122.09,411.69,125.91,400.78,127.59Z"/><path class="cls-9" d="M335.84,519.93c-7,4.8-14,9.63-21.1,14.39-5.86,3.94-11.62,8.06-17.71,11.63-4,2.33-5.43,5.44-4.1,9.46s4.2,7,9.17,6.48c1.15-.13,2.32-.11,3.47-.15,0,.94.43,2.21,0,2.75a33.77,33.77,0,0,1-5.27,5.15c-3.76,2.87-7.71,5.51-11.58,8.25h-6L274.76,556c0-2,0-4.05,0-6.07,1-6,.51-12.87,3.42-17.71,4.11-6.82,10.22-12.76,16.46-17.87,5.34-4.37,12.07-7,18.19-10.45,3.75-.32,7.53-1.06,11.25-.88C332.34,503.39,338,511.8,335.84,519.93Z"/><path class="cls-1" d="M252.19,220.46c-4.42-.45-8.83-1-13.25-1.35-41.17-3.48-76.19,24-82.66,65-1.12,7.13-.33,14.55-.42,21.84l-6.8.19c-13.06-40.3,7.79-89.31,58.5-96.88,6.13-.92,12.52-.1,18.78-.09,1.58,0,3.16,0,4.73,0,6.22,3,12.45,5.94,18.62,9A12.53,12.53,0,0,1,252.19,220.46Z"/><path class="cls-1" d="M475.57,198.19l12.22,5.44c4-13.25,8-25.73,11.53-38.31.34-1.22-1.29-3.41-2.54-4.59-3.42-3.19-6.26-6.68-5.75-11.58a8.86,8.86,0,0,1,9.45-7.79c4.56.47,7.95,5,7.62,10.13-.2,3.14-1.49,7-.1,9.2s5.73,2.23,8.37,3.87c4.64,2.87,7,.89,9.5-3.05,3.71-5.72,9.34-7,13.55-3.73,3.29,2.55,4.36,5.92,3,9.74a9.26,9.26,0,0,1-10.76,6.28c-7.26-1.67-9,2.61-11.48,7.5-4.95,9.58-10.41,18.88-16.11,29.1l12.37,4.83c-2.69,6.51-5.32,13-8.11,19.5a4.14,4.14,0,0,1-2.38,1.68c-5.07,1.7-10.09,3.64-15.28,4.82-8.26,1.88-16.6-4-18.19-12.23-.28-1.45-.34-3.46-1.28-4.17-6.23-4.71-4.5-10-1.49-15.42.88-1.59,1.72-3.2,2.58-4.8-.79,3.08-1,6.49-2.5,9.16-1.87,3.31-1.05,5.35,1.1,7.92a15.92,15.92,0,0,1,3.58,6.72c.92,4.78,5.91,10.27,10.64,9.66a189.93,189.93,0,0,0,20.38-4.22c1.17-.29,2.27-1.93,2.87-3.2,1.39-2.9,2.49-5.93,3.63-8.94.94-2.5,1.26-4.6-2-6-5.31-2.27-10.45-5-15.6-7.57-.72-.36-1.11-1.36-1.65-2.06l7.16,2.18,20-36.82L504.8,165.2c-1.38,4.33-2.64,8.07-3.75,11.86-2.82,9.67-5.57,19.36-8.35,29-6.71-1.22-13-6.77-20.28-1.86Zm51.6-29.64c4.89,1.08,8.93,1.58,10.82-3.1.41-1-1.45-4.24-2.52-4.38C530.51,160.44,529.35,164.64,527.17,168.55ZM502.09,157.8c.31-4.45,3.76-8.54-1.44-11.15-.85-.43-3.89,1.29-4.28,2.54C495,153.45,497.88,155.67,502.09,157.8Z"/><path class="cls-1" d="M492.68,206.08c.54.7.93,1.7,1.65,2.06,5.15,2.62,10.29,5.3,15.6,7.57,3.29,1.4,3,3.5,2,6-1.14,3-2.24,6-3.63,8.94-.6,1.27-1.7,2.91-2.87,3.2a189.93,189.93,0,0,1-20.38,4.22c-4.73.61-9.72-4.88-10.64-9.66a15.92,15.92,0,0,0-3.58-6.72c-2.15-2.57-3-4.61-1.1-7.92,1.51-2.67,1.71-6.08,2.5-9.16l.16-.38c7.27-4.91,13.57.64,20.28,1.86Z"/><path class="cls-6" d="M48.74,468.46c4.42-2.51,10.13-4.06,12.87-7.8,2.6-3.56,2.1-9.4,4.22-15.11,2.25,2.54,4.68,4.95,6.71,7.66,2.29,3.05,4.91,4,8.57,2.89,3.16-.9,6.44-1.35,10.88-2.24-1.83,3.95-3,7.29-4.84,10.22-2.15,3.43-1.78,6.34.23,9.58a54.29,54.29,0,0,1,4.5,9.73C80.2,477.93,72,482.3,65,492.25c.38-12.4-4.17-20.55-17-22.57Z"/><path class="cls-6" d="M172.56,83.56c12.91-4,20.66-12.08,23.42-25.51,3.28,13.77,10.88,22.35,25.24,25.12-13.92,3.31-22.37,11.2-25,25.5C192.64,95.93,186.34,86.77,172.56,83.56Z"/><path class="cls-6" d="M529.38,732.28c-14.24,3-22.8,10.86-25.23,25.58-2.84-14.22-10.47-22.78-25.49-24.68,6.71-3.54,13.2-5.37,17.26-9.56s5.54-10.62,8.7-17.21C506.85,721,515,729.36,529.38,732.28Z"/><path class="cls-1" d="M643,489.11l-23-12.33c-3.07-1.65-6.4-3-9.1-5.09-1.38-1.09-1.64-3.61-2.4-5.48,1.91-.16,4.2-1.1,5.66-.37,9.06,4.51,17.92,9.41,26.86,14.15,1.28.68,2.63,1.23,4.9,2.28-.93-3.36-2.07-5.82-2.16-8.33-.07-1.93,1.18-3.9,1.84-5.85,1.53,1.17,3.82,2,4.47,3.57,2.11,5,3.54,10.35,5.38,15.51,1.29,3.59.18,5.72-3.43,6.78-5.09,1.49-10.1,3.36-15.27,4.45-1.76.37-3.92-1.12-5.9-1.76,1.24-1.59,2.17-3.69,3.78-4.66C636.8,490.69,639.48,490.27,643,489.11Z"/><path class="cls-6" d="M686.27,351.48c-12,2.78-19.14,9.7-21.79,22-2.4-12.38-9.65-19.15-21.71-21.74,11.77-2.91,19.48-9.33,21.59-22C667.25,341.71,673.86,349.11,686.27,351.48Z"/><path class="cls-10" d="M430.51,94.31c-3.73-1.61-7.48-3.2-11.19-4.85-2.72-1.21-5.31-2.81-8.13-3.66A4.76,4.76,0,0,0,407,87a4.63,4.63,0,0,0-.17,4.39c2.27,3,5.1,5.54,7.63,8.34a21.35,21.35,0,0,1,1.9,3,18.93,18.93,0,0,1-2.94.94c-5.12.77-10.48,2.12-12.61-3.83-3.47-.41-6.6-.26-9.27-1.3a7.05,7.05,0,0,1-3.67-4.8c-1.17-8.74,1-17.1,3.87-25.3.17-.48.95-.74,2.6-2a34.59,34.59,0,0,1,0,5.33c-1,5.2-2.17,10.35-3.13,15.55-.68,3.65-.33,7.61,3.7,8.62s5.72-2.7,6.72-5.92c1.6-5.2,2.82-10.51,4.29-15.74a35,35,0,0,1,1.74-4.17l1.68.26c.19,3.63.38,7.26.58,11.22l7.56,1.8L421.29,75l2,.57c-.13,1.75.09,3.62-.45,5.24-1.28,3.81-.83,6.66,3.28,8.27,1.66.65,3.24,1.53,4.86,2.3Z"/><path class="cls-1" d="M36.69,249.65C23,258,23,258,18,269.62c-2.07-10.56-7.59-17-18-19,10-2.4,15.92-8.17,18.13-18.54C20.78,241.56,25.83,248.32,36.69,249.65Z"/><path class="cls-6" d="M92.87,704.74c8.71-2.85,14.32-8.26,16.93-17.17,1.17,10.1,8.4,13.41,16.08,16.84-8.63,2.41-13.89,7.7-16.3,16.32C106.12,713.11,102.93,705.77,92.87,704.74Z"/><path class="cls-6" d="M92.17,402.61c4.73-2.6,8.71-3.86,11.32-6.48S107,389.74,109,386c2,3.7,3.28,7.49,5.78,10s6.38,3.89,9.93,5.92c-.39.46-.69,1.14-1.16,1.3-6.55,2.12-11.46,5.74-12.69,13.05a2.4,2.4,0,0,1-1.52,1.61c-.59.11-1.87-.55-1.92-1C106.38,408.53,100.53,405,92.17,402.61Z"/><path class="cls-6" d="M571.67,56.67a42.58,42.58,0,0,1-1.51,4.69c-2.67,5.67-5.1,11.5-8.35,16.83-1.13,1.86-4.59,3.64-6.63,3.3-3.18-.54-4.77-3.89-3.42-7.07a198.52,198.52,0,0,1,9.67-20c.84-1.48,4.31-2.45,6.23-2C569.35,52.76,570.55,55.38,571.67,56.67Z"/><path class="cls-6" d="M619.31,112.16c-.56.7-1.41,2.8-2.92,3.52-6.24,3-12.6,5.8-19.08,8.25-3.14,1.19-6.44.68-7.84-3.06s.72-6,3.88-7.4c5.89-2.57,11.81-5.1,17.82-7.34C615.62,104.47,619.31,106.83,619.31,112.16Z"/><path class="cls-6" d="M496.83,78.33c-.9-1-3.28-2.46-4.1-4.56-2.33-6-4.14-12.17-5.92-18.34-.93-3.19-.18-6.08,3.37-7.19,3.4-1.06,5.81.4,7,3.73,2.21,6.4,4.48,12.78,6.46,19.25C504.8,75.14,502.29,78.34,496.83,78.33Z"/><path class="cls-1" d="M550.26,277.32a9.33,9.33,0,0,1-9.71-9.21,9.45,9.45,0,1,1,18.9-.52A9.34,9.34,0,0,1,550.26,277.32Z"/><path class="cls-6" d="M439.29,154.26c-2.33,0-4.89.61-6.92-.16s-5-2.82-5.18-4.54,2.21-5.33,3.92-5.64a77.78,77.78,0,0,1,17.77-1.1c1.65.09,4.54,3.72,4.3,5.33-.33,2.15-2.84,4.81-5,5.61-2.63,1-5.89.23-8.88.23Z"/><path class="cls-6" d="M32.76,531.13A10,10,0,0,1,23,540.6a9.62,9.62,0,0,1-9.35-9.76c.14-5.36,4.34-9.16,9.91-9A9.35,9.35,0,0,1,32.76,531.13Z"/><path class="cls-6" d="M656,568a9.31,9.31,0,0,1-9.53-9.38c.14-5.14,4.7-9.64,9.64-9.5a9.38,9.38,0,0,1,9.17,9.84A9.12,9.12,0,0,1,656,568Z"/><path class="cls-1" d="M152.13,769.21c.07,5.64-3.78,9.59-9.28,9.5a9.16,9.16,0,0,1-9-9.34c0-5.32,3.73-9.39,8.8-9.55A9.18,9.18,0,0,1,152.13,769.21Z"/><path class="cls-6" d="M419.64,264.3c2.12,7.19,6.67,11.51,13.47,14.48-8,1.16-10.82,6.81-13.31,14.13-3.2-7-5.66-13.61-14.62-14.09C412.87,276.07,417.18,271.33,419.64,264.3Z"/><path class="cls-6" d="M600.68,197.76c-6.31-3.25-12.18-6-17.61-9.37-1.06-.67-1.22-4.67-.26-6.1s4.18-2.59,5.82-2.06a71.29,71.29,0,0,1,14.48,6.49c1.58.95,2.73,4.26,2.43,6.23C605.28,194.63,602.64,195.94,600.68,197.76Z"/><path class="cls-6" d="M362.67,312.18c0,4.92-3.1,8-8,8s-8-3.08-7.93-8,3.11-8,8-8S362.7,307.25,362.67,312.18Z"/><path class="cls-1" d="M64,299.67a6.52,6.52,0,0,1-6.43,6.83,6.69,6.69,0,0,1-.29-13.37A6.5,6.5,0,0,1,64,299.67Z"/><path class="cls-2" d="M288.7,577.89c3.87-2.74,7.82-5.38,11.58-8.25a33.77,33.77,0,0,0,5.27-5.15c.45-.54,0-1.81,0-2.75L320.8,552c4-.82,8.14-1.54,9.9-6.07h0c3.11.32,5.2-.89,6-4v0l3.12.49-5,9.57h0c-3.18,1.78-6.27,3.63-6,8h0c-3.16,1.76-6.21,3.62-6,7.93-5.64,8.11-11.32,16.19-16.9,24.35-17.07,24.94-33.57,50.24-46.27,77.75-2.43,5.28-3.32,11.27-4.93,16.93-9-2.78-16.51-8-23.21-14.48a72.45,72.45,0,0,1-18.18-27.48L251.86,622c.89,1.48,1.47,3.8,2.74,4.28,2.35.88,5.09.68,7.67.93a45.75,45.75,0,0,0-2.44-5.26,21,21,0,0,0-3-3.16c.64-.75,1.24-1.55,1.93-2.26,9.42-9.77,18.65-19.72,28.38-29.16C290.4,584.15,289.38,581.23,288.7,577.89Zm-48.82,60.49c-2.65-.42-4.8-1.46-5.93-.79a46,46,0,0,0-8.52,6.74c-1,1-1,2.92-1.5,4.43,1.76,0,3.93.73,5.19,0,2.78-1.72,5.14-4.14,7.59-6.36A42,42,0,0,0,239.88,638.38Zm44.91-31-5.37-3.72c-1.88,3.19-3.83,6.33-5.49,9.63-.16.32,2.26,2.36,2.33,2.3C278.83,613.33,281.26,610.9,284.79,607.41ZM246,663.91c-4-2.41-7-4.35-10.22-5.95-.41-.2-1.72,1.39-2.61,2.14,2.87,2.45,5.68,5,8.71,7.19C242.13,667.48,243.82,665.72,246,663.91ZM248.84,648c.13.74.27,1.48.4,2.21l6,1.5a61.44,61.44,0,0,0,1.47-7.16c.08-.77-1-1.66-1.63-2.5Zm52.52-69.19c-6.74,4.66-7.64,8.25-2.75,11C299.6,586.26,304.5,584,301.36,578.8Z"/><path class="cls-11" d="M334.75,551.94l5-9.57-3.12-.49,11-7Z"/><path class="cls-11" d="M328.75,559.94c-.27-4.37,2.82-6.22,6-8Z"/><path class="cls-11" d="M322.72,567.86c-.18-4.31,2.87-6.17,6-7.93Z"/><path class="cls-11" d="M347.68,534.93l1.73-1.75Z"/><path class="cls-1" d="M288.7,577.89c.68,3.34,1.7,6.26-1.59,9.46-9.73,9.44-19,19.39-28.38,29.16-.69.71-1.29,1.51-1.93,2.27l-4.94,3.2-38.63,22.95-3.69-10.23c2.26-1.2,4.46-2.54,6.79-3.59a208.56,208.56,0,0,0,55.06-36.25c2.93-2.69,5.84-5.42,8.95-7.89s4.21-5.36,2.37-9.07Z"/><path class="cls-1" d="M274.74,549.91c0,2,0,4,0,6.07-16.78,6.61-32.91,14.9-50.83,18.47-14.46,2.88-24-1.78-28.07-15.88-2.57-8.8-3.56-18.09-4.9-27.22-.73-5.06-.76-10.22-1-15.35-.14-2.77.1-6.05,3.71-5.73,3.38.3,2.92,3.41,3,6.25.26,8.71.77,17.43,1.73,26.09a61.47,61.47,0,0,0,3.44,14.93c3.95,10.42,7.67,13,18.54,11.15,7.7-1.29,15.09-4.5,22.61-6.85l2.87-.91,1-1,0,0c5.51-1.92,11-3.81,16.53-5.77C267.14,552.78,270.93,551.32,274.74,549.91Z"/><path class="cls-10" d="M222.67,383c-12.69-1.58-22.36-7.74-28.78-18.87h0c8.64,4.48,17.41,8.49,27.34,9.15.68,0,1.28,1.24,1.92,1.9Z"/><path class="cls-12" d="M242.69,445.45c1.2.79,3.32,1.43,3.91,2.74,1.13,2.56-.87,3.65-3.18,4.35-3.36,1-6.57,2.56-10,3.28-1.31.29-3-1-4.49-1.63.92-1.93,1.34-4.8,2.84-5.58C234.86,447,238.51,446.58,242.69,445.45Z"/><path class="cls-13" d="M212.37,480.46c-1.38-.79-3.24-1.48-4.49-2.76-.51-.52,0-3.19.52-3.4a126.34,126.34,0,0,1,13.35-4.12c.81-.21,2.91,1.25,2.83,1.66-.32,1.8-.74,4.35-2,5.05C219.67,478.49,216.26,479.17,212.37,480.46Z"/><path class="cls-14" d="M180.38,452.68c6.42,2.39,12.31,4.5,18.1,6.85.63.26.71,1.9,1.05,2.9-1,.32-2,1.09-2.88.88-5.44-1.31-10.88-2.68-16.19-4.42-1.08-.35-2-2.27-2.25-3.59C178.09,454.55,179.62,453.55,180.38,452.68Z"/><path class="cls-1" d="M332.78,201c-5.22.67-10.43,1.5-15.66,1.86-1.08.07-3.08-1.56-3.19-2.57s1.27-3.38,2.25-3.52a79.24,79.24,0,0,1,13.84-.92c1.26,0,2.45,2.29,3.67,3.53Z"/><path class="cls-1" d="M229.8,514.89c2.27-6.42,3.84-11.4,5.89-16.17.4-.93,2.87-1.74,4-1.37.94.31,2.1,2.68,1.76,3.66a55.66,55.66,0,0,1-5.1,11.18C235.5,513.5,232.89,513.68,229.8,514.89Z"/><path class="cls-12" d="M326.77,214a23.16,23.16,0,0,1,2.59,2c2.5,2.57-.35,13.52-3.86,13.71-1.48.08-4.45-2.73-4.41-4.17.07-3.06,1.51-6.15,2.73-9.08C324.25,215.4,325.7,214.82,326.77,214Z"/><path class="cls-13" d="M230.7,604.14c-4.86,1.9-9.68,3.91-14.61,5.59-.77.26-2.62-.78-3-1.62-.4-1-.12-3.24.57-3.6a50.12,50.12,0,0,1,10.71-4.43c1.78-.45,4,.93,6.06,1.48C230.55,602.42,230.63,603.28,230.7,604.14Z"/><path class="cls-13" d="M168,553.4c-3.28-1.81-4.05-3.78-1.13-6.51,2.63-2.45,4.91-5.36,7.79-7.46,1.36-1,3.76-.59,5.69-.82-.57,1.53-.76,3.4-1.78,4.54-2.83,3.18-6,6.07-9.06,9.06A15.23,15.23,0,0,1,168,553.4Z"/><path class="cls-1" d="M257.66,392.84c1.65,1.1,2.62,1.38,2.85,2a111.93,111.93,0,0,1,4.44,12c.22.81-1.58,2.6-2.82,3.24-.64.33-2.68-.57-3-1.38a54.29,54.29,0,0,1-3.8-10.67C255,396.64,256.67,394.86,257.66,392.84Z"/><path class="cls-12" d="M306.73,221.09c.08,2.23-7.66,11.1-9.79,10.87s-4.49-1.34-2.74-4.06a47.15,47.15,0,0,1,7.24-9.07A3.12,3.12,0,0,1,306.73,221.09Z"/><path class="cls-1" d="M159.05,494.18c2.61-8.43,9.08-14.47,13.92-13.24C172.81,487.2,164.38,495.48,159.05,494.18Z"/><path class="cls-6" d="M175.77,428c-2.49,4.46-4.5,8.44-7,12.12-.49.74-2.66.36-4.06.5-.1-1.22-.59-2.56-.23-3.61a87.28,87.28,0,0,1,4.11-10.13c.51-1.06,2.29-2.52,3-2.29C173,425.13,174.16,426.62,175.77,428Z"/><path class="cls-1" d="M283.91,236a32.64,32.64,0,0,0,1.38,3.21,92.39,92.39,0,0,1,4.67,8.11c.5,1.13-.24,2.82-.42,4.25-1.48-.2-3.65.13-4.33-.71a43.74,43.74,0,0,1-5.94-9.6c-.43-1,1.56-3,2.44-4.59Z"/><path class="cls-1" d="M294.41,267.81c3.73,3.08,3.41,5.22.6,7.5-2.3,1.87-4.19,4.28-6.62,5.91-1.13.75-3.12.2-4.72.24.17-1.43-.18-3.35.61-4.18C287.42,274,290.92,271,294.41,267.81Z"/><path class="cls-1" d="M245.85,560.93l-2.87.91c-.72-.81-2.23-2.06-2-2.38,2.46-4.53,5.09-9,7.92-13.29.28-.44,2.64-.26,3.07.33a4,4,0,0,1,.29,3.49c-1.62,3.39-3.58,6.62-5.42,9.92l0,0Z"/><path class="cls-1" d="M268.53,453.14c-2.25,3-4.41,3.28-6.71.25a80.53,80.53,0,0,1-5.57-7.51c-.63-1.06-.12-2.79-.13-4.22,1.74.28,4.22-.08,5.1.95C264,445.81,266.09,449.52,268.53,453.14Z"/><path class="cls-14" d="M209.16,593c-5-.86-9.31-1.39-13.46-2.45-1.11-.29-1.8-2.23-2.68-3.41,1.29-.69,2.72-2.12,3.86-1.93a88.23,88.23,0,0,1,12.49,3.17c1,.33,1.58,2.07,2.35,3.16Z"/><path class="cls-6" d="M214.76,549.07c2,0,4-.29,5.9.14a3.54,3.54,0,0,1,2,2.75c0,.94-1.27,2.6-2.08,2.66a83.55,83.55,0,0,1-11.84,0c-.87-.06-2.38-1.79-2.27-2.55a4.21,4.21,0,0,1,2.4-3c1.85-.48,3.91-.13,5.89-.13Z"/><path class="cls-6" d="M285,311.28c1.42-3.57,2.26-6.85,4-9.53.71-1.09,3.43-.85,5.24-1.22.13,1.48.67,3.08.28,4.42a33.48,33.48,0,0,1-3.11,7.29c-.62,1.07-2.34,2.45-3.18,2.24C287.06,314.16,286.18,312.52,285,311.28Z"/><path class="cls-6" d="M351,147.34c-2.58,3.6-5,7.13-7.61,10.43-.42.52-2.25.31-3.17-.11-.66-.3-1.46-1.86-1.22-2.29a102.52,102.52,0,0,1,6.62-10.22c.5-.65,2.45-.54,3.6-.25C349.91,145.07,350.31,146.3,351,147.34Z"/><path class="cls-1" d="M208.68,499.43c-3.93-.39-6.78-.38-9.45-1.07-1.22-.32-2.07-2-3.1-3.11,1.26-1.06,2.5-3,3.78-3a26.28,26.28,0,0,1,8.68,1.42,4.49,4.49,0,0,1,2.37,3.48C211,498.06,209.13,499,208.68,499.43Z"/><path class="cls-12" d="M299.21,205.63c-1.6,2.87-2.31,5.31-3.93,6.7-1.33,1.14-3.73,1-5.66,1.46a33.94,33.94,0,0,1-.15-5.13,7,7,0,0,1,1.39-3.53c.95-1.16,2.58-2.89,3.52-2.67C296.14,202.86,297.61,204.5,299.21,205.63Z"/><path class="cls-15" d="M316.89,237.36c-1.57,1.73-2.07,2.65-2.83,3.06a95.49,95.49,0,0,1-9.78,4.84c-1,.39-2.48-.56-3.75-.9.46-1.21.57-3,1.45-3.54a64.07,64.07,0,0,1,10.18-5.09C313.16,235.34,314.8,236.59,316.89,237.36Z"/><path class="cls-1" d="M324.34,156.44c1.42,1.22,2.58,1.77,3,2.66a45.84,45.84,0,0,1,3.15,8.33c.26,1-.66,2.82-1.6,3.52-.65.48-3,.05-3.29-.56A61,61,0,0,1,322,160.16C321.83,159.28,323.34,158,324.34,156.44Z"/><path class="cls-13" d="M240.45,397.16c1.81,1.68,3.85,2.83,3.71,3.58a19.41,19.41,0,0,1-2.79,7.35c-.78,1.14-3,1.32-4.68,1.8-.34.1-1.21-.34-1.22-.58-.11-1.57-.57-3.39.05-4.67C236.71,402.16,238.53,400,240.45,397.16Z"/><path class="cls-12" d="M159.83,465c-.77,4.48-2.15,6.76-5.86,7s-2.86-2.71-3-4.85c-.24-3.17.2-6.57,3.89-6.68C156.46,460.38,158.16,463.36,159.83,465Z"/><path class="cls-1" d="M197.91,599.57c-3.23,4.36-5.3,7.53-7.82,10.32-.77.85-2.74.63-4.17.9-.15-1.32-.89-3-.33-3.89a35.31,35.31,0,0,1,6.17-7.57C192.64,598.54,195,599.39,197.91,599.57Z"/><path class="cls-1" d="M181.28,561.67l8.19,9.38c-1.34.59-3.16,2.05-3.91,1.62a32.55,32.55,0,0,1-7.74-6c-.55-.59,1-3.1,1.51-4.72Z"/><path class="cls-6" d="M255.86,525.14a82.25,82.25,0,0,1-4.53-9.18c-.18-.47,2.38-2,3.67-3,1.9,2.6,4.11,5.06,5.48,7.92.37.78-1.78,2.77-2.78,4.2Z"/><path class="cls-1" d="M209.09,531.43c-3.32-1.44-6.19-2.4-8.7-3.93-.84-.51-.79-2.49-1.15-3.79,1.27-.3,2.67-1.09,3.79-.81a29.82,29.82,0,0,1,6.89,2.79c1.11.61,1.78,2,2.64,3C211.39,529.64,210.22,530.54,209.09,531.43Z"/><path class="cls-12" d="M223.84,533.83c-.74,4.22-1.2,7.43-5,7.7-1.2.09-4-3.66-3.7-4,1.74-2.41,0-7.4,4.63-7.36C221.16,530.17,222.49,532.54,223.84,533.83Z"/><path class="cls-14" d="M251.16,429c-2.14-.94-7.2,2-7-2.92.2-4.09,4.83-1.43,7.41-2a10.45,10.45,0,0,1,4.91.06c1.18.33,2.11,1.57,3.16,2.4-1.05.84-2,2.08-3.17,2.4C255,429.36,253.24,429,251.16,429Z"/><path class="cls-6" d="M158.38,544.74c-2.29,1.57-3.37,2.79-4.66,3.08-2.22.5-6.87-5.09-6.46-8.05.15-1.07,2.86-2.86,3.05-2.7C152.89,539.21,155.23,541.64,158.38,544.74Z"/><path class="cls-12" d="M172.86,594.32c-1.49-3.27-3-5.86-3.79-8.63-.29-1,.75-3.27,1.53-3.45a5.94,5.94,0,0,1,4.42,1C178.12,585.71,177.58,590.06,172.86,594.32Z"/><path class="cls-13" d="M222.86,516.71c-2.69,1.73-3.77,2.93-5,3.09-2.86.37-7.36-4.2-6.81-7,.21-1.08,2.53-2.82,2.89-2.61C216.67,511.82,219.11,513.87,222.86,516.71Z"/><path class="cls-12" d="M173,617.87c-1-1.32-2.43-2.52-2.86-4-.53-1.83-.9-4.29-.06-5.74.73-1.26,3.23-1.49,4.95-2.18.63,1.65,1.78,3.3,1.76,4.94,0,2.18-1,4.36-1.51,6.53Z"/><path class="cls-14" d="M256.22,485.44c3,1,5.17,1.38,7,2.39,1.06.58,1.59,2.14,2.35,3.26-1.38.54-2.76,1.5-4.16,1.53a12.79,12.79,0,0,1-5.29-1.12,24,24,0,0,1-4.24-3Z"/><path class="cls-13" d="M175.46,507.39c-2.16-1.71-4-2.41-4.23-3.49-.55-2.3,4.7-6.16,7.93-5.8,1.25.14,2.37,1.39,3.55,2.13Z"/><path class="cls-12" d="M266.82,506.72c2.44-2.16,4.42-4.8,5.24-4.48,1.87.73,4.11,2.74,4.46,4.57.61,3.15-1.6,5.54-4.93,5C270.13,511.53,269,509.18,266.82,506.72Z"/><path class="cls-12" d="M190.84,473.92c0,1.31.35,2.77-.11,3.9-.37.92-1.77,2.07-2.61,2-1.11-.1-2.77-1.13-3-2.08a11.71,11.71,0,0,1-.07-5.85c.4-1.44,1.92-2.57,2.94-3.85,1,1.31,2.06,2.56,2.92,3.94.29.48.05,1.29.05,1.95Z"/><path class="cls-6" d="M316.45,264.29,311.87,268a56.39,56.39,0,0,1-4-7.82c-.25-.72,1.62-2.19,2.51-3.32Z"/><path class="cls-14" d="M170,522c-3.25,1.31-6.32,2.75-9.53,3.72-.86.25-2.16-1-3.26-1.49.54-1.08.81-2.54,1.67-3.16C163.3,517.94,167.63,518.1,170,522Z"/><path class="cls-6" d="M211.26,619.54c-3.07,4.48-10.57,5.23-13.22,1.86-.41-.53-.7-1.78-.4-2.12a6.58,6.58,0,0,1,2.48-1.29,2.18,2.18,0,0,1,1,0Z"/><path class="cls-6" d="M283.66,480.66a91.85,91.85,0,0,1,4.84,8.62c.19.42-1.69,1.75-2.61,2.66a64.36,64.36,0,0,1-5.77-6.62C279.86,485,281.8,483.05,283.66,480.66Z"/><path class="cls-6" d="M253.18,466.76c-1.94,2.77-3.27,5.26-5.2,7.13-.86.83-2.94.4-4.46.54,0-1.22-.45-2.66,0-3.63C245.29,467.38,247.65,464.72,253.18,466.76Z"/><path class="cls-14" d="M241.82,534.46c-.06,3.11-7.32,7.39-9.36,6.08a5.23,5.23,0,0,1-1.34-2.66,83.73,83.73,0,0,1,8.7-4.8C240.25,532.88,241.36,534.13,241.82,534.46Z"/><path class="cls-14" d="M321.72,184c-4.79,5.15-9,6.25-12.59,3.51C312.3,183.19,317.74,181.54,321.72,184Z"/><path class="cls-6" d="M262.58,364.49c1.53,2.12,2.94,3.59,2.74,3.87-1.72,2.35-3.73,4.47-5.65,6.67-.89-1-2.71-2.46-2.51-2.82A80.37,80.37,0,0,1,262.58,364.49Z"/><path class="cls-1" d="M236.36,587.91l-3.78-3.29a90.66,90.66,0,0,1,8.22-4.18c.53-.22,1.79,1.35,2.71,2.09Z"/><path class="cls-1" d="M161.3,590.09c1.58,3,3.1,4.72,3.1,6.4,0,1.1-2.8,3.36-3.31,3.09-1.59-.83-3.47-2.47-3.75-4.05C157.14,594.34,159.25,592.76,161.3,590.09Z"/><path class="cls-6" d="M346,177.27l-5.15,5.5c-.94-1.12-2.91-2.71-2.65-3.28,1-2.2,2.7-4.06,4.13-6.05Z"/><path class="cls-6" d="M236.39,385.49,231,381.64c2-1.17,4-2.77,6.14-3.3.94-.22,2.42,1.77,3.66,2.75Z"/><path class="cls-14" d="M358.12,159.23c.82.48,1.67.69,1.81,1.13a2.53,2.53,0,0,1-.19,2.17,60.89,60.89,0,0,1-6.56,5.23c-.54.37-1.92,0-2.6-.49-.46-.33-.73-1.9-.45-2.12C352.69,163.09,355.39,161.21,358.12,159.23Z"/><path class="cls-12" d="M287.1,341.22c-3.15-2.48-3.08-5.61-1.21-8.6.36-.58,3.4-.33,4.36.5C292.25,334.86,290.35,339.38,287.1,341.22Z"/><path class="cls-14" d="M277.93,473.74c-2.49,1.76-4,3.43-5.82,3.83-.77.17-3.28-2.82-3-3.47a7.27,7.27,0,0,1,4.09-3.77C274.15,470.06,275.76,472.1,277.93,473.74Z"/><path class="cls-6" d="M358.85,126.8c-1.6-1.81-3.1-3.26-3-3.41a52.39,52.39,0,0,1,5.75-6.07c.18-.16,1.79,1.26,2.73,1.94Z"/><path class="cls-6" d="M350.37,195.67,346.72,191c1.24-.9,2.57-2.64,3.69-2.51,1.8.21,3.46,1.65,5.18,2.57Z"/><path class="cls-6" d="M258.76,593.57c.52-5.43,4-6.18,6.78-7.5.42-.2,2,.84,2.08,1.38.08,1.19-.14,3.14-.87,3.5C264.47,592.07,261.9,592.6,258.76,593.57Z"/><path class="cls-14" d="M381.83,137.23l-3.76-2.85a55.68,55.68,0,0,1,6.94-3.5c.5-.18,1.71,1.59,2.59,2.47Z"/><path class="cls-13" d="M257.54,547.47c1.81-1.48,2.93-3,4.33-3.31.7-.17,2.91,2.28,2.72,2.63a32.08,32.08,0,0,1-3.83,5C259.91,550.61,259.06,549.48,257.54,547.47Z"/><path class="cls-14" d="M161.62,576.15c-2.45,1.76-4,3.66-4.93,3.38-1.47-.48-2.48-2.36-3.68-3.65,1.22-1,2.38-2.66,3.67-2.77S159.21,574.58,161.62,576.15Z"/><path class="cls-14" d="M225.09,496c-2,1.36-3.42,3-4.32,2.75-1.43-.4-2.53-2-3.77-3.15,1.17-1.16,2.32-3.19,3.53-3.24S223,494.24,225.09,496Z"/><path class="cls-14" d="M366.63,139.88c-.39,3.63-2.15,5.4-5.41,5.22-.76,0-2.19-1.71-2-2C360.55,140.19,362.66,138.47,366.63,139.88Z"/><path class="cls-1" d="M376.62,145.5c1.33,2.05,2.12,3.26,2.9,4.48-1.25.77-2.48,2.07-3.77,2.14-.95.06-2-1.49-3-2.33Z"/><path class="cls-13" d="M275.72,378.51V384l-4.38-.1c.44-1.9.87-3.79,1.31-5.69Z"/><path class="cls-6" d="M304.16,735.8c-25.14-.66-49-6.54-72.15-16a11.33,11.33,0,0,1-3.91-2.11c-.74-.77-1.31-2.63-.88-3.4a5,5,0,0,1,3.4-2.09c1.16-.11,2.44.88,3.66,1.4,24.6,10.55,50.16,16.33,77,15.19,5-.22,9.93-.86,14.87-1.48,2.56-.32,5.55-1.06,5.73,2.47.06,1.22-2.76,3.49-4.47,3.73C319.74,734.56,311.93,735.08,304.16,735.8Z"/><path class="cls-16" d="M221.84,836.77l171.84.09c2.66,0,5.31.14,8,.21-1.4.54-2.79,1.55-4.18,1.55q-85.59.12-171.17,0C224.8,838.61,223.32,837.41,221.84,836.77Z"/><path class="cls-6" d="M198.12,693.76c-.7.82-1.3,2.21-2.13,2.35a5.78,5.78,0,0,1-4.06-.7,48,48,0,0,1-16.78-21.74c-.48-1.24.71-3.12,1.13-4.7,1.57.78,4,1.17,4.57,2.41,3.56,7.69,8.3,14.32,15.26,19.26a3.89,3.89,0,0,1,1.06,1A17.46,17.46,0,0,1,198.12,693.76Z"/><path class="cls-15" d="M429.21,413.87c-2.09-1.48-5.07-2.56-6.28-4.65-4.65-8-4.82-17.66,2.92-24.91a7.64,7.64,0,0,1,11,0c6.22,5.83,5.45,22.07-1.43,27C434,412.5,431.89,412.85,429.21,413.87Z"/><path class="cls-11" d="M330.7,545.88c-1.76,4.53-5.86,5.25-9.9,6.07Z"/><path class="cls-11" d="M336.67,541.85c-.78,3.15-2.87,4.36-6,4Z"/><path class="cls-14" d="M211.52,334.86l33.87,4.46c-1.72,6.51-7.83,10.85-14.93,10.73A20,20,0,0,1,211.52,334.86Z"/><path class="cls-10" d="M238.47,319.87c-2.86-6.56-5.44-12.17-7.7-17.91-.36-.93.65-2.4,1-3.61,1,.85,2.34,1.5,2.94,2.58,2.16,3.84,3.7,8.06,6.16,11.68,2.31,3.38,4.61,6.23,1,10-3.82,4-8.53,4.72-13.78.92Z"/><path class="cls-17" d="M207.05,296.65c2.68.79,4.29.81,5.12,1.62a27.69,27.69,0,0,1,3.29,4.8,23,23,0,0,1-4.58-.66c-3-1.05-5.4-.84-7.16,2.3-.45.82-2,1-3.08,1.48-.18-1.2-.95-3-.44-3.5A87.92,87.92,0,0,1,207.05,296.65Z"/><path class="cls-17" d="M259.92,298.72c-1.4.07-3.13.71-3.89.11-3.42-2.7-6.15-2.93-8.6,1.17a2.71,2.71,0,0,1-2.45.88,3.28,3.28,0,0,1-1.29-2.19c2.23-2.18,4.32-5.08,7.06-6,3.47-1.2,6.77.73,8.79,4.08A9.71,9.71,0,0,1,259.92,298.72Z"/><path class="cls-10" d="M193.89,364.09l-.43-.41c.09,0,.21,0,.26.07a1.29,1.29,0,0,1,.17.33Z"/><path class="cls-6" d="M492.7,206.09c2.78-9.67,5.53-19.36,8.35-29,1.11-3.79,2.37-7.53,3.75-11.86l15.08,6.24-20,36.82-7.16-2.18Z"/><path class="cls-6" d="M527.17,168.55c2.18-3.91,3.34-8.11,8.3-7.48,1.07.14,2.93,3.36,2.52,4.38C536.1,170.13,532.06,169.63,527.17,168.55Z"/><path class="cls-6" d="M502.09,157.8c-4.21-2.13-7.07-4.35-5.72-8.61.39-1.25,3.43-3,4.28-2.54C505.85,149.26,502.4,153.35,502.09,157.8Z"/><path class="cls-6" d="M239.88,638.38a42,42,0,0,1-3.17,4c-2.45,2.22-4.81,4.64-7.59,6.36-1.26.78-3.43.08-5.19,0,.47-1.51.51-3.46,1.5-4.43a46,46,0,0,1,8.52-6.74C235.08,636.92,237.23,638,239.88,638.38Z"/><path class="cls-1" d="M284.79,607.41c-3.53,3.49-6,5.92-8.53,8.21-.07.06-2.49-2-2.33-2.3,1.66-3.3,3.61-6.44,5.49-9.63Z"/><path class="cls-1" d="M246,663.91c-2.17,1.81-3.86,3.57-4.12,3.38-3-2.23-5.84-4.74-8.71-7.19.89-.75,2.2-2.34,2.61-2.14C239,659.56,242,661.5,246,663.91Z"/><path class="cls-12" d="M251.86,622l4.94-3.2a20.44,20.44,0,0,1,3,3.15,45.75,45.75,0,0,1,2.44,5.26c-2.58-.25-5.32-.05-7.67-.93C253.33,625.78,252.75,623.46,251.86,622Z"/><path class="cls-13" d="M248.84,648l6.23-6c.58.84,1.71,1.73,1.63,2.5a61.44,61.44,0,0,1-1.47,7.16l-6-1.5C249.11,649.47,249,648.73,248.84,648Z"/><path class="cls-14" d="M301.36,578.8c3.14,5.21-1.76,7.46-2.75,11C293.72,587.05,294.62,583.46,301.36,578.8Z"/><path class="cls-2" d="M245.85,560.93l1-1Z"/><path class="cls-18" d="M425.85,384.31c-7.74,7.25-7.57,16.9-2.92,24.91,1.21,2.09,4.19,3.17,6.28,4.65,2.68-1,4.74-1.37,6.26-2.47,6.88-5,7.65-21.22,1.43-27A7.64,7.64,0,0,0,425.85,384.31Z"/><path class="cls-3" d="M491.85,387.18c0-7.34-.28-13.79,0-20.2,1.32-26.4,2.9-52.79,4.21-79.19.38-7.49-6.2-11.51-12.85-8.11-2.51,1.29-4.85,2.9-7.27,4.36q-57.12,34.6-114.25,69.17c-8.7,5.25-13.51,13-13.94,22.84q-2.88,67-5,134.11c-.18,5.41-2,8.36-6.91,9.77-7,4.8-14,9.63-21.1,14.39-5.86,3.94-11.62,8.06-17.71,11.63-4,2.33-5.43,5.44-4.1,9.46s4.2,7,9.17,6.48c1.15-.13,2.32-.11,3.47-.15L320.8,552l9.9-6.07h0l6-4v0l11-7,0,0,1.73-1.75a78.29,78.29,0,0,0,6.18-5.75c10.93-12.44,21.24-25.49,32.75-37.36C414.57,463,440.8,435.91,471,413.15a138.7,138.7,0,0,1,21.22-13.61L492,387ZM435.47,411.4c-1.52,1.1-3.58,1.45-6.26,2.47-2.09-1.48-5.07-2.56-6.28-4.65-4.65-8-4.82-17.66,2.92-24.91a7.64,7.64,0,0,1,11,0C443.12,390.18,442.35,406.42,435.47,411.4Z"/><path class="cls-1" d="M624.31,247.17Q611.07,261,597.83,274.93q-48.23,50.85-96.41,101.72c-3.09,3.26-6.06,6.65-9.45,10.39l.29,12.5a74.08,74.08,0,0,1,16.44-6c6.56-1.51,12.64-.38,17.4,4.68A137.17,137.17,0,0,1,536,410c3.65,4.87,6.94,10,10.39,15,1.79-1.21,3.61-2.37,5.37-3.61,22.81-16.09,38.8-38,52-62.08,16.42-30,32.09-60.35,48.08-90.56C645.21,258.27,635.47,251.81,624.31,247.17Z"/></svg>